<?xml version="1.0" encoding="utf-8"?>
<!-- Generator: Adobe Illustrator 25.0.0, SVG Export Plug-In . SVG Version: 6.00 Build 0)  -->
<svg version="1.1" id="Layer_1" xmlns="http://www.w3.org/2000/svg" xmlns:xlink="http://www.w3.org/1999/xlink" x="0px" y="0px"
	 viewBox="0 0 80.8 106.3" style="enable-background:new 0 0 80.8 106.3;" xml:space="preserve">
<g>
	<g>
		<path d="M8.5,102.6c2.2-7.1,4.4-14.3,6.7-21.4c1-3.2,2-6.5,3-9.7c2.6-8.2,5.1-16.4,7.7-24.7c2.8-9.1,5.7-18.2,8.5-27.3
			c1-3.3,2.1-6.6,3.1-10c0.5-1.6,1.1-3.2,1.5-4.9c0-0.1,0-0.1,0.1-0.2c-1.6,0-3.2,0-4.8,0c1.2,3.2,2.5,6.5,3.7,9.7
			c3,7.8,6,15.7,9,23.5c3.6,9.4,7.2,18.9,10.8,28.3c3.1,8.2,6.2,16.3,9.4,24.5c1.5,4,3,8,4.6,12c0,0.1,0,0.1,0.1,0.2
			c0.5,1.3,1.7,2.1,3.1,1.7c1.2-0.3,2.2-1.8,1.7-3.1c-1.2-3.2-2.5-6.5-3.7-9.7c-3-7.8-6-15.7-9-23.5c-3.6-9.4-7.2-18.9-10.8-28.3
			c-3.1-8.2-6.2-16.3-9.4-24.5c-1.5-4-3-8-4.6-12c0-0.1,0-0.1-0.1-0.2c-0.9-2.2-4-2.5-4.8,0c-1.3,4.1-2.5,8.2-3.8,12.2
			c-2.8,8.9-5.5,17.7-8.3,26.6c-2.7,8.6-5.4,17.2-8,25.8c-1.1,3.5-2.2,6.9-3.2,10.4c-2.3,7.5-4.7,15-7,22.5
			c-0.1,0.2-0.1,0.4-0.2,0.7C2.7,104.4,7.6,105.7,8.5,102.6L8.5,102.6z"/>
	</g>
</g>
<g>
	<g>
		<path d="M64.9,75.4c-5.8,0-11.6,0.1-17.4,0.1c-9.2,0.1-18.5,0.1-27.7,0.2c-2.1,0-4.3,0-6.4,0c-3.2,0-3.2,5,0,5
			c5.8,0,11.6-0.1,17.4-0.1c9.2-0.1,18.5-0.1,27.7-0.2c2.1,0,4.3,0,6.4,0C68.1,80.4,68.1,75.4,64.9,75.4L64.9,75.4z"/>
	</g>
</g>
</svg>
