<svg xmlns="http://www.w3.org/2000/svg">
<defs>
<font
       horiz-adv-x="613"
       id="PremiumUltra1SLedit">
      <font-face
         id="font-face1554"
         unicode-range="U+0020-266B"
         underline-position="-480"
         underline-thickness="160"
         bbox="-1460 -2318 6675 3163"
         cap-height="2666"
         x-height="644"
         descent="-615"
         ascent="2457"
         panose-1="0 0 4 0 0 0 0 0 0 0"
         units-per-em="3072"
         font-stretch="normal"
         font-weight="400"
         font-family="PremiumUltra1SLedit" />
      <missing-glyph
         id="missing-glyph1556"
         d="M946 375q-33 -3 -83.5 -5t-111.5 -3t-130 -2t-138 -1.5t-135.5 -0.5t135.5 0.5t138 1.5t130 2t111.5 3t83.5 5"
         horiz-adv-x="1050" />
      <glyph
         id="glyph1558"
         d="M946 375q-33 -3 -83.5 -5t-111.5 -3t-130 -2t-138 -1.5t-135.5 -0.5t135.5 0.5t138 1.5t130 2t111.5 3t83.5 5"
         horiz-adv-x="1050"
         glyph-name=".notdef" />
      <glyph
         id="glyph1560"
         glyph-name="nonmarkingreturn" />
      <glyph
         id="glyph1562"
         horiz-adv-x="768"
         glyph-name="space.1" />
      <glyph
         id="glyph1564"
         horiz-adv-x="1408"
         unicode=" "
         glyph-name="space" />
      <glyph
         id="glyph1566"
         d="M449 2395q-34 -318 -65 -588q-9 -77 -18 -155t-18 -152.5t-17.5 -142.5t-16 -125.5t-14.5 -102t-12 -70.5q-10 -49 -8 -80t11 -48t23 -23t28 -6q9 0 16.5 1.5t13.5 3.5q7 2 13 5M286 267q-21 -15 -30 -29t-7.5 -26t11.5 -21.5t26 -16.5q4 -2 10 -2q13 0 21 13t11 29.5 t1 32t-9 20.5"
         horiz-adv-x="675"
         unicode="!"
         glyph-name="exclam" />
      <glyph
         id="glyph1568"
         d="M259 2509q-6 -103 -15 -204q-4 -43 -8.5 -91t-10 -95.5t-11.5 -93.5t-14 -87M533 2370q41 -43 65.5 -99t33 -116t2.5 -121.5t-26 -117.5"
         horiz-adv-x="900"
         unicode="&quot;"
         glyph-name="quotedbl" />
      <glyph
         id="glyph1570"
         d="M1491 2144q-27 -81 -79 -185t-119.5 -223t-147 -249.5t-162.5 -265.5t-165.5 -270t-157 -263.5t-135.5 -246.5t-101.5 -218t-56 -178.5t2.5 -128.5M2237 2258q-135 -281 -295 -622q-68 -145 -149 -317.5t-171.5 -367t-189 -408.5t-203.5 -442M644 1303q116 37 249 71.5 t275.5 60.5t290.5 42t293 16q167 0 322.5 -23.5t292.5 -80.5M150 696q146 -9 321 -9q130 0 268.5 4.5t276.5 11t271.5 15.5t252.5 18q279 22 548 49"
         horiz-adv-x="2492"
         unicode="#"
         glyph-name="numbersign" />
      <glyph
         id="glyph1572"
         d="M1319 2413q-253 -567 -466 -1070q-60 -143 -121 -289.5t-118 -289.5t-109 -278.5t-94.5 -255t-74 -219.5t-48.5 -172M1570 2229q-22 -104 -54.5 -225t-72 -253t-85 -271.5t-94.5 -281.5t-99.5 -282.5t-100.5 -273.5q-175 -469 -374 -962M2122 1581q-90 38 -197.5 66.5 t-225 47.5t-241 28.5t-244.5 9.5q-173 0 -332 -19t-282.5 -57.5t-199.5 -95.5t-83 -134q-4 -52 28 -89t90.5 -63.5t138.5 -45.5t171.5 -34.5t189 -30.5t191 -34t177.5 -44.5t149.5 -62t106.5 -87t48 -119.5q9 -93 -31 -178.5t-116.5 -160t-184 -135.5t-234 -104.5t-266 -67 t-280.5 -23.5q-100 0 -196.5 12.5t-188.5 39.5"
         horiz-adv-x="2191"
         unicode="$"
         glyph-name="dollar" />
      <glyph
         id="glyph1574"
         d="M1252 726q52 26 94 37.5t74 11.5q49 0 77 -23.5t38 -63t3.5 -91t-26.5 -106.5t-52 -110t-73 -102t-90 -81.5t-102 -49.5q-37 -10 -70 -10q-55 0 -87 28.5t-43 75.5t-2.5 106.5t35.5 121.5t70 121t101 104q-73 -28 -144 -64t-137.5 -76t-127 -82t-112.5 -81 q-123 -93 -231 -192q30 73 70.5 166.5t89 201t103 225.5t112 241t116.5 247.5t116 244.5q202 423 428 887q-146 -169 -287 -301q-60 -57 -124 -111t-127 -96.5t-122 -68.5t-107 -26q-23 0 -43 7t-37 21q-8 7 -15.5 20.5t-13.5 30t-11 35.5t-9 38q-9 45 -16 97q21 -13 28 -48 t1.5 -83.5t-22 -106.5t-41.5 -116.5t-57.5 -113t-70 -96.5t-79 -67t-85.5 -24q-48 1 -80 24t-48.5 62t-16 89.5t17 106t50.5 112t84.5 107t118.5 91.5t154 66"
         horiz-adv-x="1732"
         unicode="%"
         glyph-name="percent" />
      <glyph
         id="glyph1576"
         d="M210 1264q35 -81 74.5 -145t100.5 -113.5t151 -86.5t225.5 -64.5t325 -46.5t449.5 -33M972 1838q-92 -218 -170 -486q-33 -114 -66 -249.5t-61.5 -289t-50 -323.5t-31.5 -353"
         horiz-adv-x="2130"
         unicode="&amp;"
         glyph-name="ampersand" />
      <glyph
         id="glyph1578"
         d="M693 2530q-6 -138 -13 -264q-3 -54 -7.5 -110t-9.5 -108.5t-10.5 -99t-12.5 -79.5"
         horiz-adv-x="575"
         unicode="'"
         glyph-name="quotesingle" />
      <glyph
         id="glyph1580"
         d="M796 2663q-99 -76 -191.5 -186t-173 -244t-145.5 -287t-109 -315.5t-64 -330t-9.5 -330.5t54.5 -316t127.5 -286.5t209.5 -243.5t301 -186"
         horiz-adv-x="953"
         unicode="("
         glyph-name="parenleft" />
      <glyph
         id="glyph1582"
         d="M120 2604q81 -11 161.5 -84t154 -191.5t137 -273.5t111 -330.5t76 -363t31.5 -370t-21.5 -352t-83 -310t-154 -242.5t-234.5 -149"
         horiz-adv-x="848"
         unicode=")"
         glyph-name="parenright" />
      <glyph
         id="glyph1584"
         d="M172 1105q153 66 314 163q69 41 146 93t157.5 114.5t162 136t159.5 158.5q-128 -13 -268 -51q-60 -16 -128.5 -39t-142 -55t-150 -74t-153.5 -95q111 -51 219 -117q46 -28 96.5 -61.5t100.5 -72.5t98 -83.5t89 -92.5q28 208 22 398q-3 81 -13 165.5t-32.5 163.5t-59 148 t-91.5 118q-85 -237 -178 -433q-39 -83 -84 -165.5t-93.5 -151.5t-98.5 -118.5t-100 -67.5"
         horiz-adv-x="1325"
         unicode="*"
         glyph-name="asterisk" />
      <glyph
         id="glyph1586"
         d="M190 663q237 6 472 11q100 2 209 3.5t219 3t215.5 2.5t197.5 1M790 1244q-5 -187 -7 -384q-1 -84 -1.5 -178.5t0 -193.5t2.5 -200t6 -197"
         horiz-adv-x="1698"
         unicode="+"
         glyph-name="plus" />
      <glyph
         id="glyph1588"
         d="M272 378q33 -122 26 -226.5t-47 -205.5t-109.5 -204.5t-161.5 -223.5"
         horiz-adv-x="512"
         unicode=","
         glyph-name="comma" />
      <glyph
         id="glyph1590"
         d="M230 592h893"
         horiz-adv-x="1348"
         unicode="-"
         glyph-name="hyphen" />
      <glyph
         id="glyph1594"
         d="M353 236q-21 -15 -30 -29t-7.5 -26t11.5 -21.5t26 -16.5q4 -2 10 -2q13 0 21 13t11 29.5t1 32t-9 20.5"
         horiz-adv-x="800"
         unicode="."
         glyph-name="period" />
      <glyph
         id="glyph1596"
         d="M904 2503q-39 -218 -102 -452q-26 -100 -60 -213t-76 -233t-92.5 -243t-110.5 -243q-59 -120 -104 -223.5t-78.5 -191.5t-56 -160.5t-36.5 -129.5q-34 -134 -38 -225"
         horiz-adv-x="1007"
         unicode="/"
         glyph-name="slash" />
      <glyph
         id="glyph1598"
         d="M90 1282q-1 146 79 262t228.5 197t360.5 124t476 43t41.5 -1q141 -3 247 -38t179.5 -94t114.5 -137t53 -167.5t-4.5 -186.5t-60 -193.5t-112 -188t-160.5 -170.5q-81 -70 -175.5 -139.5t-195 -133t-202.5 -118.5t-199.5 -95.5t-185.5 -63.5t-159 -23q-55 0 -98 15 t-71.5 48t-40 85t-2.5 125q15 127 50.5 250t83.5 237t104 217.5t112 191.5q132 207 291 387"
         horiz-adv-x="2013"
         unicode="0"
         glyph-name="zero" />
      <glyph
         id="glyph1600"
         d="M1042 2035q-71 -158 -150.5 -329.5t-163 -345.5t-169.5 -344.5t-170 -326.5t-165 -291t-154 -239q16 -7 35 -13q16 -5 38 -9t48 -4q19 0 39 2.5t41 10.5"
         horiz-adv-x="958"
         unicode="1"
         glyph-name="one" />
      <glyph
         id="glyph1602"
         d="M1052 1778q36 59 70 100t66 67t62.5 37.5t58.5 11.5q52 0 96.5 -34t81.5 -87.5t65 -119.5t47 -131q17 -57 28.5 -137.5t12.5 -175.5t-10.5 -200t-41 -211t-79 -209t-125 -193.5t-178.5 -164t-240 -120.5q-106 -37 -199 -53t-174 -16q-112 0 -199 27.5t-144.5 72.5 t-85.5 102.5t-23.5 116.5t43.5 116t114 100q45 26 100 38.5t120 12.5q102 0 223.5 -30t255.5 -84.5t276 -132.5t285 -174.5t284.5 -208.5t272.5 -236"
         horiz-adv-x="2175"
         unicode="2"
         glyph-name="two" />
      <glyph
         id="glyph1604"
         d="M452 1934q244 -31 478 -71q100 -17 208 -37.5t214.5 -44.5t206 -50.5t182.5 -56.5q-138 -121 -310 -239q-73 -50 -161 -104.5t-188 -108.5t-211.5 -105.5t-231.5 -95.5q78 -43 169 -90q78 -40 179.5 -88.5t215.5 -96.5q75 -31 134 -63.5t95 -68.5t46 -76t-11.5 -86.5 t-79 -101.5t-155.5 -120q-148 -97 -328 -179t-381.5 -140.5t-419.5 -90.5t-443 -31"
         horiz-adv-x="1889"
         unicode="3"
         glyph-name="three" />
      <glyph
         id="glyph1606"
         d="M737 1865q-55 -81 -106 -159.5t-96.5 -152t-85 -140.5t-72.5 -124q-77 -134 -137 -251q31 -4 70 -6q33 -3 79.5 -5t103.5 -2t122 3t136 10t145.5 19t150.5 31q164 41 303 55t247 14q63 0 112 -3t83 -7q41 -4 71 -10M1513 2279q-45 -98 -108 -228t-138.5 -279 t-161.5 -312t-176 -327t-182.5 -324t-181 -304t-171.5 -265.5t-154 -208.5"
         horiz-adv-x="1767"
         unicode="4"
         glyph-name="four" />
      <glyph
         id="glyph1608"
         d="M1696 2063q-48 -36 -110.5 -67.5t-132.5 -59t-143.5 -50t-143.5 -40.5q-164 -42 -340 -72q66 -37 100 -98q15 -26 24 -59.5t7 -75t-17 -91.5t-48 -109q-67 -119 -130 -220.5t-113 -176.5q-57 -88 -108 -160q100 54 202 96q44 18 93 35.5t99.5 31t101 21.5t97.5 8t89 -9.5 t75 -32t56.5 -59.5t32.5 -91q12 -69 -15.5 -135t-84.5 -127t-138.5 -116t-178.5 -102t-203.5 -85t-213 -64.5t-208 -41t-188.5 -14.5q-63 0 -115.5 7.5t-91.5 24.5"
         horiz-adv-x="1775"
         unicode="5"
         glyph-name="five" />
      <glyph
         id="glyph1610"
         d="M1421 2026q-93 -67 -198.5 -145t-215.5 -165.5t-220 -182t-211.5 -193.5t-189.5 -201t-154 -204t-106 -203t-45 -197q-4 -77 18 -128.5t63 -83t99 -45t126 -13.5q69 0 144.5 11t152 28.5t150.5 39.5t139 43t118.5 39t88.5 28q54 16 97.5 34.5t68 34.5t26 27t-30.5 11 q-19 0 -53.5 -5t-85 -17t-119 -31t-157.5 -47q-114 -36 -194 -70.5t-133 -67t-82.5 -61.5t-42.5 -54q-31 -59 5 -109"
         horiz-adv-x="1725"
         unicode="6"
         glyph-name="six" />
      <glyph
         id="glyph1612"
         d="M350 1437q104 117 199 228.5t169 200.5q86 104 161 197q-36 -115 -9 -204q12 -39 38 -75.5t74 -65.5t121 -46.5t178 -17.5q36 0 76 2.5t85 7.5q-65 -74 -151 -174q-75 -87 -181.5 -213t-243.5 -292q-68 -83 -144 -172t-152 -179t-148 -178t-132 -168.5t-105 -151 t-67 -126t-17 -92.5t45 -51"
         horiz-adv-x="1517"
         unicode="7"
         glyph-name="seven" />
      <glyph
         id="glyph1614"
         d="M1024 1744q-16 56 -40.5 97t-55 67.5t-66 39t-73.5 12.5q-42 0 -85.5 -14.5t-86 -42t-82.5 -68t-75 -91.5q-67 -99 -105.5 -200t-35 -200t55.5 -194.5t166 -184.5q76 -59 150 -108t135.5 -93t105.5 -87t60.5 -90t0 -101t-75.5 -121q-48 -55 -116 -100.5t-144.5 -78 t-156.5 -50.5t-152 -18q-61 0 -112.5 14t-88 43.5t-54.5 76.5t-11 113q8 72 57 162t128.5 190t184 205.5t221.5 209.5t242 202.5t245.5 183.5t232 152.5t201.5 110.5"
         horiz-adv-x="1592"
         unicode="8"
         glyph-name="eight" />
      <glyph
         id="glyph1616"
         d="M1258 1829q-24 75 -68.5 129.5t-102.5 89.5t-125.5 51.5t-138.5 16.5q-58 0 -115 -10.5t-110 -30.5t-100 -49t-84 -66q-44 -44 -76 -104t-46 -124t-7 -126.5t41.5 -111.5t99 -79.5t165.5 -30.5q75 0 171.5 19t217.5 64M100 -105q25 76 74 183.5t115 235t145 269.5 t165 286t175 285t175 267t165 231t144 177"
         horiz-adv-x="1317"
         unicode="9"
         glyph-name="nine" />
      <glyph
         id="glyph1618"
         d="M234 1203q-21 -15 -30 -29t-7.5 -26t11.5 -21.5t26 -16.5q4 -2 10 -2q13 0 21 13t11 29.5t1 32t-9 20.5M254 404q-21 -15 -30 -29t-7.5 -26t11.5 -21.5t26 -16.5q4 -2 10 -2q13 0 21 13t11 29.5t1 32t-9 20.5"
         horiz-adv-x="617"
         unicode=":"
         glyph-name="colon" />
      <glyph
         id="glyph1620"
         d="M180 1075q-21 -15 -30 -29t-7.5 -26t11.5 -21.5t26 -16.5q4 -2 10 -2q13 0 21 13t11 29.5t1 32t-9 20.5M241 189q45 -83 49 -173q2 -39 -5 -82.5t-28 -90t-58.5 -95t-97.5 -95.5"
         horiz-adv-x="583"
         unicode=";"
         glyph-name="semicolon" />
      <glyph
         id="glyph1622"
         d="M1278 1452q-51 -61 -118 -111t-144 -91t-160.5 -75t-167 -63t-163.5 -55t-150 -51.5t-127 -51.5t-94 -55q-49 -39 -28 -80.5t101.5 -85t215 -89t311 -92t390 -94.5t452.5 -97"
         horiz-adv-x="1750"
         unicode="&lt;"
         glyph-name="less" />
      <glyph
         id="glyph1624"
         d="M342 1192q103 11 225 21q104 8 242 14t296 6q112 0 227.5 -4t231.5 -15M30 560q316 45 660 88q147 19 314 39t345.5 40.5t364 39.5t368.5 35"
         horiz-adv-x="2209"
         unicode="="
         glyph-name="equal" />
      <glyph
         id="glyph1626"
         d="M810 1698q172 -102 335 -184t327 -148.5t333 -120t353 -98.5q-229 -132 -445 -247q-92 -49 -190 -100t-193.5 -96.5t-182.5 -83t-157 -60.5t-147 -49.5t-155 -55t-155 -56.5t-147 -54q-164 -61 -326 -123"
         horiz-adv-x="2315"
         unicode="&gt;"
         glyph-name="greater" />
            <glyph
         id="glyph1628"
         d="M100 1839q33 52 104 110t169 115.5t218.5 110t252 92.5t269.5 64t272 24q37 0 73.5 -1.5t72.5 -6.5q105 -12 165 -46t80 -81.5t2 -105.5t-69 -119t-132.5 -121t-189 -111.5t-237.5 -91t-279 -59.5q59 -109 103 -245q19 -58 36.5 -128t30 -149.5t19 -169 M1012 254 q-21 -15 -30 -29t-7.5 -26t11.5 -21.5t26 -16.5q4 -2 10 -2q13 0 21 13t11 29.5t1 32t-9 20.5"
         horiz-adv-x="1873"
         unicode="?"
         glyph-name="question" />
      <glyph
         id="glyph1630"
         d="M1551 1402q-63 39 -123.5 57.5t-120.5 18.5q-87 0 -168 -36t-150.5 -98.5t-125.5 -147t-94.5 -181.5t-57 -201.5t-12.5 -207.5q6 -100 24 -182.5t47.5 -142t70 -92t90.5 -32.5q44 0 95.5 28t109.5 88.5t121.5 155.5t131.5 228M1389 1119q0 -115 4 -218.5t18 -191.5 t42 -159.5t76.5 -124.5t120.5 -85.5t175 -42.5q8 -1 15 -1q75 0 147.5 33.5t139 91.5t126 136.5t107.5 168t83.5 186.5t54.5 192t20 183.5t-19 162.5q-23 84 -96 155.5t-183 123t-251.5 80.5t-301.5 29q-127 0 -263 -20t-274 -63.5t-275.5 -112t-268.5 -164.5 q-100 -74 -174.5 -179t-122 -231t-68 -266.5t-13.5 -285t42 -287t99 -272t157 -240.5t216 -192.5t276.5 -128t338.5 -46.5q157 0 334 36t378 116"
         horiz-adv-x="2783"
         unicode="@"
         glyph-name="at" />
      <glyph
         id="glyph1632"
         d="M614 843q-99 -79 -179 -135.5t-142 -92.5t-107.5 -52.5t-76.5 -16.5q-51 0 -63.5 42.5t5.5 116t61.5 172.5t104.5 212q37 69 91.5 155.5t120 181t137.5 192.5t144 190t140.5 172.5t126.5 140.5t101.5 95t66.5 35q28 0 18.5 -59.5t-68.5 -196.5q-84 -195 -164.5 -365 t-148 -321.5t-117.5 -289t-74 -268.5t-17 -259.5t53 -261.5q19 -53 45 -90t57.5 -60t67.5 -33.5t76 -10.5q55 0 114 17t118.5 45t117.5 63.5t110 72.5q121 86 240 197"
         horiz-adv-x="1534"
         unicode="A"
         glyph-name="A" />
      <glyph
         id="glyph1634"
         d="M371 2207q-152 -38 -218.5 -60.5t-28.5 -22.5q34 0 157.5 20t349.5 63q100 19 213.5 28.5t233.5 9.5q115 0 231 -9t224.5 -28t205.5 -47t173.5 -66.5t128.5 -87t71.5 -107.5t2.5 -128.5t-80 -149.5q-79 -101 -173.5 -184.5t-197 -151.5t-209 -122t-209.5 -96t-199 -72.5 t-176.5 -53t-142.5 -36.5t-97 -23q-17 -5 -32.5 -6.5t-30.5 -1.5q-39 0 -71 11t-48 27.5t-12 36.5t35.5 37.5t95 30.5t167.5 17q12 1 24 1q113 0 222.5 -19t199 -59.5t150.5 -104t77 -152t-21 -203t-144 -258.5q-106 -143 -230.5 -248.5t-249 -175t-242 -103.5 t-210.5 -34q-52 0 -94.5 10.5t-72 31.5t-45 52t-13.5 72q3 63 34 107.5t83.5 74t122.5 46.5t152 25.5t171.5 10.5t180.5 2q157 2 320.5 19.5t319.5 52t297 87t254 124.5M891 2239q-74 -390 -178 -809q-44 -178 -99 -380.5t-121 -417t-143 -435t-164 -434.5"
         horiz-adv-x="2261"
         unicode="B"
         glyph-name="B" />
      <glyph
         id="glyph1636"
         d="M1603 2329q-93 72 -217 72q-96 0 -203.5 -44t-219.5 -132t-225 -218.5t-219 -303.5q-70 -114 -134.5 -243.5t-117.5 -265t-91 -271.5t-54.5 -263.5t-8.5 -241.5t47.5 -203.5t113.5 -151t189 -84.5q44 -8 89.5 -12.5t93.5 -4.5q115 0 238 21t246 54.5t242 77t226 88.5 q251 106 493 241"
         horiz-adv-x="2117"
         unicode="C"
         glyph-name="C" />
      <glyph
         id="glyph1638"
         d="M1404 2349q0 -77 -4 -188.5t-13.5 -244.5t-25.5 -282t-41 -300t-59 -298t-80 -276.5t-104 -235.5t-131 -176q-70 -67 -147.5 -122.5t-155.5 -94.5t-153 -60.5t-142 -21.5q-70 0 -127.5 26t-94.5 82t-50 144.5t5 212.5q15 100 42 167.5t63 108.5t79 58.5t90 17.5 q68 0 140.5 -28.5t141 -68.5t128.5 -82.5t102 -70.5q41 -27 92.5 -67t113 -83.5t133.5 -86.5t155.5 -77t177.5 -55.5t200 -21.5q48 0 97.5 4.5t101.5 15.5q134 27 268 83.5t255.5 147t223.5 218.5t171.5 299t99.5 387t8 483q-29 342 -86 587.5t-151 404t-229 233.5t-321 75 q-129 0 -281 -34q-174 -38 -308 -122t-232.5 -200t-164 -258t-103.5 -295.5t-50.5 -312t-4.5 -308.5q6 -109 21.5 -212.5t53 -194.5t103 -166.5t170 -130t254 -84.5t356.5 -30q115 0 248.5 10t288.5 31t332.5 54t378.5 78"
         horiz-adv-x="3533"
         unicode="D"
         glyph-name="D" />
      <glyph
         id="glyph1640"
         d="M1639 2867q-34 -131 -69 -278q-15 -63 -32 -135t-34.5 -150.5t-35 -161t-34.5 -166.5q-8 134 -48 239q-17 45 -42 87.5t-61 76t-84.5 54t-111.5 20.5q-61 0 -136 -22.5t-169 -75.5q-119 -67 -220 -152.5t-179 -182t-129 -201t-69.5 -210.5t-0.5 -210t78 -199.5 t165.5 -179t262.5 -148.5q-233 -295 -386 -550q-43 -72 -82.5 -145.5t-69.5 -144.5t-49 -136.5t-22 -121.5t12 -100.5t53 -73.5q39 -30 87 -44t105 -14q91 0 199.5 33.5t230.5 93.5t253.5 142.5t267.5 180t274 207.5t272 224"
         horiz-adv-x="1812"
         unicode="E"
         glyph-name="E" />
      <glyph
         id="glyph1642"
         d="M891 1503q321 204 589 395q76 55 153 112t149.5 114t138.5 113t120 108.5t94 100t61 87.5q-172 -515 -311 -962q-39 -127 -78 -257t-75.5 -255.5t-68 -242.5t-56.5 -218.5t-41.5 -183.5t-21.5 -137q-217 -81 -453 -184q-100 -44 -214.5 -97.5t-236.5 -115t-248.5 -130.5 t-251.5 -144M696 537q154 203 496 442q146 102 348 221.5t470 253t608.5 279t763.5 297.5"
         horiz-adv-x="2492"
         unicode="F"
         glyph-name="F" />
      <glyph
         id="glyph1644"
         d="M130 250q86 25 184.5 74t199.5 128t199.5 190.5t184 259.5t153.5 336t108 420q7 39 5.5 56t-8.5 17q-10 0 -28.5 -30.5t-37 -76.5t-33 -99t-17 -99t12 -76.5t53.5 -30.5q27 0 68.5 17.5t99.5 59.5q91 65 166.5 153t136.5 187.5t108.5 205.5t83.5 206q84 236 130 493 q-90 -288 -167 -548q-33 -111 -66 -227t-62.5 -224t-52.5 -201t-36 -158q-25 -130 -54 -274t-68.5 -290.5t-93 -289t-128.5 -269.5M1735 386q-79 -53 -150 -96t-137 -74t-128.5 -47.5t-124.5 -16.5q-71 0 -144 24t-152.5 76.5t-168 136t-191.5 201.5"
         horiz-adv-x="1736"
         unicode="G"
         glyph-name="G" />
      <glyph
         id="glyph1646"
         d="M2180 2259q-69 -56 -120 -118t-91.5 -131t-75 -147.5t-71 -168t-78 -192t-95.5 -219.5q-40 -88 -88.5 -192t-100 -214t-103.5 -222t-100 -215q-113 -242 -230 -492M1119 2445q26 -64 47 -117t34 -103.5t16.5 -104t-7 -119t-36.5 -147.5t-71.5 -189.5t-112 -245.5 t-158.5 -315q-86 -167 -151.5 -291.5t-116 -218t-88 -160t-67.5 -118t-55.5 -92t-51.5 -81.5t-55 -87t-67 -108q-49 -81 -75 -145t-32 -109t6.5 -69t38.5 -24q28 0 70 29t94 91M2059 419q-90 -40 -190 -77t-206 -68.5t-214.5 -57.5t-215.5 -44t-210.5 -28t-197.5 -10 q-114 0 -211 15.5t-170 50t-117 88.5t-52 131q-8 81 17.5 144.5t74 107.5t114.5 67t139 23q82 0 165.5 -30.5t153.5 -95t119 -164t61 -237.5"
         horiz-adv-x="2029"
         unicode="H"
         glyph-name="H" />
      <glyph
         id="glyph1648"
         d="M1258 827q-14 2 -29.5 3.5t-31.5 1.5q-74 0 -163 -23.5t-182.5 -64.5t-187.5 -95t-179.5 -115t-157.5 -125t-121.5 -125t-72 -115t-8.5 -95t69 -64.5t160 -23.5q20 0 41.5 1t44.5 3q225 18 444.5 59.5t423 111.5t385 171t331 237t261 309.5t175.5 389.5q49 166 68.5 334 t15.5 323.5t-28 290.5t-61 235t-84 157.5t-96 57.5q-45 0 -89.5 -52t-83.5 -169q-42 -125 -81 -275t-73 -312.5t-62 -331.5t-47.5 -332.5t-30.5 -315.5t-11 -280.5t12 -227.5t37 -156t59 -80t73 -23q31 0 63.5 12t64.5 31.5t63 44t59 50.5q65 60 127 137"
         horiz-adv-x="2355"
         unicode="I"
         glyph-name="I" />
      <glyph
         id="glyph1650"
         d="M1082 160q-118 13 -227 78.5t-204.5 168t-176.5 233t-143.5 273.5t-105 289t-61.5 279.5t-12.5 245.5t42.5 187q24 51 67.5 97t101.5 85.5t127.5 71.5t145.5 54.5t156 35t159 12.5q76 0 149 -12.5t138 -39.5t119.5 -69t94 -101t62 -135.5t22.5 -173.5 q1 -196 -36.5 -401.5t-113.5 -426.5t-190.5 -460t-268.5 -502t-348.5 -553.5t-428.5 -614.5q-201 -278 -350.5 -484t-252 -343t-160 -204.5t-74.5 -67.5q-26 0 33.5 150t190.5 448q76 172 182.5 342.5t232 334.5t265 319t281 296.5t281 267t265 230t232 186.5t182.5 137  "
         horiz-adv-x="1458"
         unicode="J"
         glyph-name="J" />
      <glyph
         id="glyph1652"
         d="M750 2296q-1 -58 -23.5 -154t-59 -216.5t-84 -259t-99.5 -282.5t-105 -287t-100 -271.5t-85 -236.5t-60 -183q-33 -109 -40 -174.5t0.5 -100.5t23.5 -45.5t31 -10.5q11 0 18 3q4 1 7 2M1628 2154q-45 -113 -98 -222t-112 -205.5t-124 -178t-136 -140.5t-147.5 -92 t-157.5 -33q-38 0 -76.5 7.5t-78.5 24.5q-72 29 -112.5 57.5t-58 51.5t-14.5 37t19 14q18 0 46.5 -19.5t60 -64.5t61.5 -119t50 -184q19 -104 46 -213.5t66 -212.5t90.5 -195t119 -160.5t152 -108.5t189.5 -40q115 0 256 55t311 180"
         horiz-adv-x="1978"
         unicode="K"
         glyph-name="K" />
      <glyph
         id="glyph1654"
         d="M434 1743q68 -14 143 -20.5t156 -6.5q99 0 202 11t205 33.5t199.5 58t185 84t161.5 111t129 140.5q61 87 76.5 155t-1 115t-57 72t-90.5 25q-35 0 -72 -13t-71 -40t-61.5 -68.5t-43.5 -98.5q-26 -91 -57 -216.5t-66 -270t-74 -301t-81.5 -309t-87.5 -293t-92 -254.5 q-55 -134 -101 -231t-93 -159.5t-100.5 -92.5t-124.5 -30q-39 0 -84.5 8.5t-99.5 25.5q-56 17 -105 52t-89 81t-69 98.5t-44.5 104.5t-16.5 100.5t16.5 85.5t53.5 59t94 22q29 0 64 -6t77 -20q80 -26 154 -76.5t147.5 -111t150 -124t161.5 -115t182.5 -84.5t212.5 -33 q118 0 257 41.5t307 140.5"
         horiz-adv-x="1987"
         unicode="L"
         glyph-name="L" />
      <glyph
         id="glyph1656"
         d="M402 1315q-13 70 -5.5 143.5t29.5 143.5t54 132.5t66.5 109.5t68 74.5t58.5 27.5q24 0 37 -30.5t6 -99.5q-7 -73 -15 -145t-21 -151t-33.5 -170.5t-52 -204t-75.5 -250t-105.5 -310t-141 -383.5t-182.5 -470M679 1268q42 87 95.5 184t113.5 197t124 199t127 189 t123 167.5t111.5 134t92.5 89t66 32.5q32 0 34.5 -58.5t-34.5 -189.5q-38 -137 -82 -290.5t-91 -312.5t-95.5 -319.5t-97.5 -312t-96.5 -289t-91.5 -251t-83 -198.5t-72 -131t-21 -46q9 0 46 30t94.5 84.5t132 131t159.5 169t176 198t182 219.5t178.5 233t163.5 238 q102 159 190.5 291t158.5 227t119.5 148t74.5 53q29 0 22 -76.5t-54 -245.5q-65 -232 -127.5 -442.5t-115 -392.5t-91.5 -334t-57 -267q-16 -103 8.5 -151t87.5 -48q77 0 207 69t309 197"
         horiz-adv-x="2666"
         unicode="M"
         glyph-name="M" />
      <glyph
         id="glyph1658"
         d="M755 1594q-17 -82 -52.5 -142.5t-81 -100t-96.5 -58.5t-98 -19q-54 0 -96.5 24t-61.5 70t-7 113.5t67 154.5q47 75 97 142.5t99.5 125t97 104.5t90 80t78.5 51t62 18q24 0 39 -15t19.5 -47t-2.5 -82t-28 -119q-40 -135 -81.5 -281t-85 -293.5t-90 -293t-97 -279.5 t-106 -252t-116.5 -211q-69 -104 -121 -157t-79 -53q-23 0 -25 39t22 118.5t76.5 200.5t138.5 285q68 131 160 274t195.5 288.5t213 287.5t213.5 270q244 301 509 598q-162 -401 -308 -782q-41 -108 -84.5 -222t-85.5 -229t-83 -228.5t-77.5 -220.5t-68.5 -205t-57 -182 q-19 -64 -20.5 -108t10 -71t35 -39t55.5 -12q33 0 73.5 11t84 29t87.5 41t85 47q97 56 197 128"
         horiz-adv-x="1451"
         unicode="N"
         glyph-name="N" />
      <glyph
         id="glyph1660"
         d="M822 876q-195 271 -320 494.5t-164.5 398.5t13.5 301.5t213 202.5q74 35 156.5 67.5t169.5 57t176 39.5t176 15q102 0 197.5 -24t178.5 -80.5t150 -149t111 -229.5q81 -253 86 -472.5t-77.5 -417t-259 -378t-457.5 -356.5q-222 -139 -410.5 -211t-331.5 -72 q-111 0 -190 45.5t-119.5 140t-39 239.5t52.5 344q46 181 108.5 335.5t131.5 281.5t140 225t134 164.5t113 101t78 34.5q36 0 26 -55"
         horiz-adv-x="1883"
         unicode="O"
         glyph-name="O" />
      <glyph
         id="glyph1662"
         d="M282 2525q121 81 242 148.5t237.5 117t227 77t210.5 27.5q82 0 155.5 -20.5t136 -65.5t112.5 -115t85 -169q52 -146 83 -274t34.5 -238.5t-25 -204t-96.5 -169.5t-179.5 -135.5t-273.5 -102.5q-184 -49 -348.5 -78t-301 -44t-240.5 -19.5t-167 -4.5q-20 0 -35.5 0.5 t-26.5 0.5q-13 0 -22 1M1099 2285q-90 -352 -186 -691q-41 -145 -87 -301t-94 -310t-97.5 -298t-96.5 -264t-78.5 -213.5t-50.5 -163.5t-27 -120t-10 -83q-4 -78 23 -97"
         horiz-adv-x="1758"
         unicode="P"
         glyph-name="P" />
      <glyph
         id="glyph1664"
         d="M1725 2285q-39 59 -99 88t-138 29q-93 0 -209 -42.5t-247 -127.5t-275 -213t-293 -299q-101 -116 -173 -238t-114 -243t-53 -237t8.5 -220t71.5 -192t135.5 -153.5t200 -103.5t266.5 -43q121 0 257.5 24.5t280 68.5t291 106t290 137t276 160.5t249.5 178t211 188.5 t161 192t98 189.5t22 179.5q-17 150 -53 272t-105.5 208.5t-179.5 133.5t-274 47q-152 0 -356.5 -43.5t-472.5 -137.5q-90 -31 -150 -85t-97 -120t-54 -140.5t-21 -146.5q-9 -171 39 -367M1544 939q178 -163 344 -320q71 -67 146 -139.5t147 -144t137 -138.5t116 -123"
         horiz-adv-x="3050"
         unicode="Q"
         glyph-name="Q" />
      <glyph
         id="glyph1666"
         d="M100 1210q104 -78 250 -124t333 -46q114 0 243 20t270.5 62.5t296 110t320.5 163.5q4 -315 -56 -606q-25 -124 -66.5 -255.5t-105 -256.5t-152 -236.5t-207.5 -195.5q-228 42 -365 215q-39 49 -72.5 114t-56.5 148.5t-33 186.5t-2 229.5t35.5 277.5t80.5 329 q61 204 169 366.5t250 287t309 213t346 145t361 82.5t354 26q128 0 246 -13.5t220.5 -39t186.5 -62t143 -83t90.5 -101.5t29.5 -117q-4 -102 -56 -201.5t-138 -196.5t-199.5 -192.5t-239.5 -188.5t-257.5 -184.5t-255 -181.5t-231 -178t-185 -174.5t-118 -171.5t-29.5 -169 q6 -43 30.5 -73.5t64 -49t93 -27t116.5 -8.5q90 0 195 14.5t216 38.5t223.5 54.5t215.5 62.5q243 74 493 169"
         horiz-adv-x="3456"
         unicode="R"
         glyph-name="R" />
      <glyph
         id="glyph1668"
         d="M0 393q147 19 301.5 52t307.5 80t299.5 108t278 136.5t243 165.5t193.5 194.5t130.5 223.5t54.5 253q7 168 -24.5 288.5t-88.5 197.5t-132.5 113.5t-157.5 36.5q-98 0 -193 -48t-167 -138q-48 -60 -77 -135.5t-34 -158.5t15.5 -168.5t72.5 -165.5t136.5 -150.5 t206.5 -122.5q183 -78 294 -144t151.5 -137t12.5 -156.5t-123 -201.5q-72 -88 -175.5 -163.5t-223.5 -130.5t-250 -86.5t-256 -31.5q-79 0 -153.5 13.5t-142.5 42.5q-74 32 -120 75.5t-65 91.5t-12.5 94.5t37.5 83.5t84.5 60t129.5 23q61 0 134 -17t160 -56q88 -40 164 -90 t145.5 -102t135 -101.5t133.5 -88t141.5 -62t157.5 -23.5q69 0 146.5 18t167.5 59t193.5 106.5t223.5 161.5"
         horiz-adv-x="2455"
         unicode="S"
         glyph-name="S" />
      <glyph
         id="glyph1670"
         d="M1428 1648q155 117 305 240q63 53 131.5 112.5t135.5 122t129.5 126t114.5 124.5q14 -161 -7 -445q-9 -121 -26.5 -280.5t-47 -363t-73 -452t-104.5 -548.5q-26 24 -65 43q-33 16 -85 29t-124 13t-164.5 -18.5t-209.5 -66.5q-123 -51 -258.5 -101.5t-268 -99.5 t-256 -97.5t-223.5 -94.5t-169 -90.5t-93 -86.5"
         horiz-adv-x="2421"
         unicode="T"
         glyph-name="T" />
      <glyph
         id="glyph1672"
         d="M1020 1852q-75 -121 -155 -258.5t-159.5 -284t-156 -297.5t-145 -299t-126.5 -288t-100 -264.5t-65.5 -229.5t-23 -182.5t27.5 -123t86 -50.5q8 -1 15.5 -1q76 0 170.5 29t200.5 82.5t219.5 129.5t226.5 169t221.5 202t204.5 228t176 247t136 260M1999 2080 q-1 -150 -21.5 -303.5t-53.5 -305.5t-75 -300.5t-86 -289t-86 -270.5t-74.5 -245t-52.5 -212.5t-20 -173.5q111 60 219 128q46 29 96 62.5t99.5 69.5t96 75t85.5 78"
         horiz-adv-x="2125"
         unicode="U"
         glyph-name="U" />
      <glyph
         id="glyph1674"
         d="M70 1666q38 -9 83 -9q82 0 179.5 26t200.5 70t205.5 102.5t194 123t167 131t123.5 126.5M1284 2364q-202 -467 -372 -892q-48 -121 -97 -246t-95 -249t-88 -243.5t-76.5 -227.5t-60.5 -202.5t-41 -169.5q98 184 354 462q109 119 263.5 269.5t364 335.5t480 404.5 t611.5 474.5"
         horiz-adv-x="2000"
         unicode="V"
         glyph-name="V" />
      <glyph
         id="glyph1676"
         d="M100 1221q140 48 282.5 116t279 147.5t263 165.5t235.5 169.5t196 160t144 136.5q-218 -400 -404 -759q-53 -102 -107 -207t-105 -208t-98.5 -201.5t-88 -186.5t-72 -163t-50.5 -131q-30 -86 -9.5 -125t78.5 -39q57 0 142.5 33.5t188.5 93t217 142t227 179.5t219 205 t192 220M2100 1657q-37 -115 -86 -241.5t-102 -254.5t-107 -253t-103 -236.5t-88.5 -204.5t-63.5 -157q-21 -57 -24.5 -100t9 -72.5t39.5 -44t65 -14.5q54 0 126 28.5t157 86.5q77 52 162.5 123t169.5 168t161.5 224.5t138.5 292t100.5 371t46.5 461.5q1 23 -5 32.5 t-16 9.5q-11 0 -25 -10.5t-26.5 -26.5t-21 -35t-9 -35t9.5 -26.5t36 -10.5q23 0 61 11t95 38q97 47 222.5 93.5t267.5 91.5t294.5 87.5t304 80.5t295.5 71t269 58"
         horiz-adv-x="3075"
         unicode="W"
         glyph-name="W" />
      <glyph
         id="glyph1678"
         d="M702 1698q-78 -100 -148 -151t-115 -51q-30 0 -46.5 23.5t-13.5 72.5t27 123t75 176q47 94 117.5 168.5t151 126.5t164 79.5t156.5 27.5q65 0 117 -23.5t81 -72.5t30 -125t-35 -181q-44 -127 -87.5 -253t-77.5 -247t-54 -236t-17.5 -220.5t32 -199t95.5 -171.5 t172 -138.5t262 -100.5q86 -22 181 -37t196.5 -24.5t208 -13.5t215.5 -4q144 0 288 6.5t282 17t267 23.5t241 27q264 32 504 73M2631 2226q-283 -324 -575 -636q-124 -133 -263 -276.5t-282.5 -284.5t-287 -273.5t-277.5 -242.5t-263.5 -224.5t-250 -226.5t-229.5 -218.5 t-203 -200.5q-220 -222 -410 -430"
         horiz-adv-x="3971"
         unicode="X"
         glyph-name="X" />
      <glyph
         id="glyph1680"
         d="M574 2226q-68 -163 -130.5 -338t-115 -350t-93.5 -344t-65.5 -320.5t-31 -279.5t10 -221t58 -144.5t112.5 -50.5q94 2 196 65.5t201.5 176.5t192.5 268.5t168.5 342t130 396.5t77.5 432M1285 2018q-5 -184 -12 -402t-23.5 -458.5t-46 -497t-80 -517t-126 -519 t-182.5 -502.5q-69 -157 -139 -268.5t-137.5 -183t-130.5 -104.5t-117 -33q-72 0 -125 54t-77.5 151.5t-16 231.5t58.5 295q59 187 158 335.5t228 265t281 203.5t316 150.5t333.5 106t333.5 70.5"
         horiz-adv-x="1780"
         unicode="Y"
         glyph-name="Y" />
      <glyph
         id="glyph1682"
         d="M464 1614q-52 -13 -96 -13q-73 0 -105.5 37t-21.5 99t66 143.5t157 170.5q65 56 128.5 106t123 88t114 60.5t99.5 22.5q37 0 67.5 -16.5t53 -53.5t35.5 -96t15 -144q2 -63 -15.5 -141t-49.5 -166t-76 -184t-96.5 -195.5t-110.5 -199.5t-117 -196q-208 -338 -475 -705 q110 120 219 214q46 40 96.5 78.5t101 68.5t99 48.5t90.5 18.5q35 0 64.5 -15t51 -49.5t33 -90t11.5 -136.5q-1 -107 -23 -221.5t-59.5 -228.5t-86 -224t-101.5 -208.5t-106.5 -181.5t-101.5 -143t-86 -94t-60 -34q-14 0 -20 14.5t-3 45.5t17 79.5t39 116.5 q54 141 124.5 263.5t149.5 227t162 190.5t162 154q185 160 385 269"
         horiz-adv-x="1318"
         unicode="Z"
         glyph-name="Z" />
      <glyph
         id="glyph1684"
         d="M1029 2681l-618 -288q58 -280 46 -639q-5 -153 -25.5 -338.5t-64.5 -401t-116.5 -458t-180.5 -509.5q111 34 231 62q51 11 109 22t120.5 19.5t127 14t127.5 5.5q47 0 92 -3"
         horiz-adv-x="1095"
         unicode="["
         glyph-name="bracketleft" />
      <glyph
         id="glyph1686"
         d="M130 2492q165 -313 307 -616q40 -86 81 -177.5t80.5 -184.5t76 -185.5t68 -181.5t56 -172t40.5 -157q24 -110 70.5 -200.5t105.5 -163t126.5 -128.5t134.5 -98q157 -97 341 -148"
         horiz-adv-x="1697"
         unicode="\"
         glyph-name="backslash" />
      <glyph
         id="glyph1688"
         d="M615 2605q22 1 44 1.5t44 0.5q106 0 204.5 -7.5t174.5 -16.5q90 -11 168 -24q12 -252 11 -504q-1 -108 -4.5 -226t-11 -237t-21 -234.5t-33.5 -218.5q-41 -207 -67 -377t-42 -294q-18 -145 -28 -261q-6 0 -13 1q-51 0 -145 -7t-219 -31.5t-275.5 -72.5t-313.5 -131  "
         horiz-adv-x="1378"
         unicode="]"
         glyph-name="bracketright" />
      <glyph
         id="glyph1690"
         d="M616 425q-87 -102 -169 -181t-154 -132.5t-131.5 -81t-102.5 -27.5q-45 0 -69 30"
         horiz-adv-x="617"
         unicode="^"
         glyph-name="asciicircum" />
      <glyph
         id="glyph1692"
         d="M0 -202q288 28 583 50q126 10 265 19t282.5 16t285.5 11.5t272 4.5q112 0 212.5 -4t182.5 -12.5t143 -22t94 -33.5"
         horiz-adv-x="2545"
         unicode="_"
         glyph-name="underscore" />
      <glyph
         id="glyph1694"
         horiz-adv-x="23961"
         unicode="`"
         glyph-name="grave" />
      <glyph
         id="glyph1696"
         d="M574 757q-30 68 -71.5 99.5t-89.5 31.5q-40 0 -83 -21t-86 -61t-84.5 -98t-77.5 -131q-43 -88 -75 -167t-44 -138t0 -93.5t55 -34.5q28 0 69.5 15.5t99.5 50.5q65 38 117 84.5t91.5 96t69 99t50 93.5t32.5 81t19 60M363 351q10 -36 24.5 -68t37 -56.5t54 -38.5t73.5 -14 q36 0 81 12t101 38t123 67.5t147 101.5"
         horiz-adv-x="1004"
         unicode="a"
         glyph-name="a" />
      <glyph
         id="glyph1698"
         d="M-8 366q175 203 308 368.5t232 301t168 245.5t116 201t75.5 168t47.5 147q40 153 56.5 282t13 222t-25 145.5t-57.5 52.5q-31 0 -70.5 -42t-87.5 -135q-39 -76 -93 -195t-116 -264t-129 -310t-132.5 -334t-127 -334.5t-111.5 -312.5t-86 -268t-52 -201 q-16 -82 -16 -139.5t14 -94t40.5 -53t63.5 -16.5q35 0 78 14t92 39.5t103 61t111 79.5q66 51 124 120t105 143.5t82 147t54.5 130t23 93t-13.5 35.5q-18 0 -56 -44q-48 -56 -51 -113.5t32.5 -104t106 -76t169.5 -29.5q80 0 175 22.5t204 74.5"
         horiz-adv-x="1362"
         unicode="b"
         glyph-name="b" />
      <glyph
         id="glyph1700"
         d="M484 703q-14 32 -29.5 61.5t-33 51.5t-37.5 35t-43 13q-21 0 -46 -13t-53.5 -41.5t-61.5 -75t-71 -114.5q-63 -112 -102 -206t-45.5 -161t22.5 -104.5t102 -37.5q75 0 194 41q153 53 292 97t247 76q125 37 234 68"
         horiz-adv-x="1053"
         unicode="c"
         glyph-name="c" />
      <glyph
         id="glyph1702"
         d="M501 630q-32 45 -69.5 64.5t-77.5 19.5q-51 0 -103.5 -28t-99 -72.5t-84 -98t-59.5 -104.5q-17 -37 -16.5 -67.5t14.5 -51.5t40.5 -32.5t63.5 -11.5q64 0 153 38.5t190 124.5q72 61 137.5 152t122.5 205.5t103.5 248.5t79.5 281t52 303.5t20 315.5q0 63 -5 118t-14 95.5 t-22.5 64t-29.5 23.5q-13 0 -28 -16.5t-30.5 -52.5t-32.5 -93.5t-34 -138.5q-17 -82 -42 -190.5t-53 -231t-56.5 -253.5t-52.5 -259t-42 -246.5t-24.5 -216t0 -168.5t31.5 -103q46 -59 97.5 -95t123.5 -36q44 0 96.5 15t117.5 48t143.5 85t173.5 127"
         horiz-adv-x="1285"
         unicode="d"
         glyph-name="d" />
      <glyph
         id="glyph1704"
         d="M1 393q125 66 222.5 119t157.5 99t75.5 88.5t-25.5 87.5q-20 22 -50.5 34t-66.5 12q-38 0 -79 -14.5t-79 -45.5t-71 -80.5t-54.5 -120t-28.5 -163t6 -210.5q8 -74 53.5 -104.5t113.5 -30.5q51 0 112 14t125 37.5t129.5 53t125.5 60.5q141 72 287 164"
         horiz-adv-x="954"
         unicode="e"
         glyph-name="e" />
      <glyph
         id="glyph1706"
         d="M119 663q225 219 409 428t326 395t241 341.5t152.5 268t61 175.5t-33.5 63q-19 0 -48 -14t-70 -45q-100 -76 -208 -203.5t-217.5 -289.5t-217 -350t-208 -384t-190 -391t-162.5 -372t-149 -347.5t-144.5 -323.5t-125 -283t-91 -226t-41.5 -152t22 -62q2 0 2.5 -0.5 t2.5 -0.5q33 0 104 65.5t162 187.5t192.5 295.5t195.5 389.5t171 469.5t119 535.5q-44 -200 -45 -356q0 -67 9.5 -131t34.5 -114.5t67 -81t108 -30.5q42 0 95.5 14.5t119.5 47t144.5 84.5t171.5 127"
         horiz-adv-x="1079"
         unicode="f"
         glyph-name="f" />
      <glyph
         id="glyph1708"
         d="M778 863q-8 29 -34 46.5t-70 17.5q-45 0 -106.5 -22t-138 -73.5t-167.5 -136t-193 -209.5q-67 -81 -96 -143t-27.5 -104t30 -63t77.5 -21q63 0 151.5 35t188.5 107t204 181.5t196 257.5q-49 -138 -100 -313q-44 -149 -96 -356.5t-101 -461.5q-32 -167 -62 -327 t-60 -303.5t-60 -264t-62.5 -208.5t-67.5 -137t-74 -49q-30 3 -37 68.5t9 176.5t54.5 258t99 312.5t142.5 340.5t185 341.5t226.5 316t266.5 263.5"
         horiz-adv-x="1050"
         unicode="g"
         glyph-name="g" />
      <glyph
         id="glyph1710"
         d="M185 2014q-28 -412 -67 -783q-11 -105 -24 -214.5t-27.5 -217t-31 -210t-35 -195t-39 -172.5t-42.5 -141q53 190 112 339q25 63 53.5 124t59.5 108.5t63 76.5t63 29q21 0 41 -14t39.5 -45t38 -80t35.5 -119q30 -123 61 -207.5t62.5 -136t63.5 -74t65 -22.5q44 0 88.5 33 t90 82.5t91.5 108t93 109.5"
         horiz-adv-x="1039"
         unicode="h"
         glyph-name="h" />
      <glyph
         id="glyph1712"
         d="M156 703q-96 -150 -140 -263.5t-41.5 -190.5t47 -116t125.5 -39q111 0 279 73.5t381 225.5M285 1781q-21 -15 -30 -29t-7.5 -26t11.5 -21.5t26 -16.5q4 -2 10 -2q13 0 21 13t11 29.5t1 32t-9 20.5"
         horiz-adv-x="807"
         unicode="i"
         glyph-name="i" />
      <glyph
         id="glyph1714"
         d="M242 1201q-40 -111 -82 -248t-85.5 -290t-87 -316.5t-86 -327.5t-83 -324.5t-78.5 -306.5t-72.5 -273t-64.5 -225q-31 -104 -64 -182.5t-64 -131.5t-59 -80t-50 -27q-40 0 -53 88t17 269q21 128 71.5 268.5t129 284.5t185.5 286.5t242.5 274t299 247.5t355.5 206  M642 2180q-21 -15 -30 -29t-7.5 -26t11.5 -21.5t26 -16.5q4 -2 10 -2q13 0 21 13t11 29.5t1 32t-9 20.5"
         unicode="j"
         glyph-name="j" />
      <glyph
         id="glyph1716"
         d="M313 622q52 115 97.5 209t83 178.5t66.5 165.5t50 168t32.5 187t13.5 223t-6 274.5t-27 342.5q-161 -272 -294 -614q-57 -146 -113 -321.5t-103.5 -377.5t-82 -427.5t-47.5 -471.5q127 203 281 403q66 86 144.5 179t167.5 186.5t186.5 183t202.5 167.5q33 -65 34 -152 q0 -37 -6.5 -82t-24 -98t-48.5 -113.5t-79 -128.5q-70 -99 -132 -158t-113 -90.5t-90.5 -41t-63.5 -9.5q-16 0 -27 3q-5 1 -9 2q68 -92 152 -164q36 -31 78.5 -60.5t90.5 -53t101 -37.5t110 -14q56 0 115.5 16t121 53t124.5 96.5t126 147.5"
         horiz-adv-x="1425"
         unicode="k"
         glyph-name="k" />
      <glyph
         id="glyph1718"
         d="M37 425q149 171 259.5 348t190 361.5t131.5 378t84 398.5q29 184 33 272.5t-21 88.5q-31 0 -108 -133.5t-206 -396.5q-58 -118 -112.5 -243.5t-101 -251t-84.5 -248.5t-62.5 -237t-35 -216t-2.5 -185q6 -66 23 -120.5t44.5 -93.5t65.5 -60t87 -21q87 0 208.5 76.5 t275.5 250.5"
         horiz-adv-x="706"
         unicode="l"
         glyph-name="l" />
      <glyph
         id="glyph1720"
         d="M0 393q76 68 136 124t107 95.5t82 61t61 21.5q30 0 50.5 -29.5t35.5 -95.5q21 -91 35.5 -164.5t24.5 -126.5q10 -63 17 -112q94 140 183 250q38 47 79.5 92t81.5 80t77.5 56.5t67.5 21.5q29 0 50 -22.5t32 -74.5q23 -109 36 -185.5t21 -124.5q9 -57 13 -93 q105 56 215 135q47 34 99.5 76t107.5 92t111 109t108 126q-25 -142 -11 -254q6 -48 21 -93.5t42.5 -81t71 -57.5t106.5 -22q82 0 201 45t285 151"
         horiz-adv-x="2547"
         unicode="m"
         glyph-name="m" />
      <glyph
         id="glyph1722"
         d="M0 393q65 106 127 186.5t118 135t104.5 82t85.5 27.5q38 0 64 -29.5t36 -89.5q14 -89 10 -153t-15 -106q-13 -50 -34 -83q75 135 146 241q30 45 62 88t63 77t58.5 54.5t49.5 20.5t36 -23.5t17 -79.5q6 -100 34.5 -194t79.5 -166.5t124.5 -116.5t170.5 -44q88 0 192.5 40 t229.5 133"
         horiz-adv-x="1759"
         unicode="n"
         glyph-name="n" />
      <glyph
         id="glyph1724"
         d="M342 764q-7 4 -16 4q-28 0 -70 -34t-89 -89t-93 -125.5t-82 -144.5t-57 -144.5t-17.5 -125.5t37 -89t106.5 -34q14 0 28.5 1.5t30.5 3.5q104 17 196 63.5t167.5 111.5t132.5 142.5t93 155.5t48.5 151.5t-2.5 130.5t-58.5 91t-119.5 34q-65 0 -157 -30 q-91 -30 -127.5 -83.5t-28 -115.5t57.5 -126.5t129.5 -116.5t188 -85t231.5 -33q104 0 215.5 26.5t228.5 89.5"
         horiz-adv-x="1315"
         unicode="o"
         glyph-name="o" />
      <glyph
         id="glyph1726"
         d="M-428 -1824q40 261 77.5 480t74 411t72 363t71 335.5t71 329.5t71.5 345q26 128 73 249t108.5 228t133.5 196t148 153.5t151.5 100t144.5 35.5q83 0 150 -58t105 -186q27 -90 12 -167.5t-59.5 -145.5t-113 -126.5t-148.5 -109.5t-165.5 -95t-164 -83t-145 -74t-107.5 -67 t-51.5 -62.5t21.5 -60.5q20 -19 52 -27t74 -8q52 0 114.5 11t130 29.5t136.5 42t133 48.5q150 57 306 130"
         horiz-adv-x="1048"
         unicode="p"
         glyph-name="p" />
      <glyph
         id="glyph1728"
         d="M649 700q-24 29 -55.5 41.5t-68.5 12.5q-50 0 -106.5 -21.5t-115 -58t-116.5 -86t-109.5 -105t-94.5 -114.5t-72 -116q-32 -62 -24 -90.5t45 -28.5q29 0 74 18t99.5 51.5t115 81.5t121.5 108.5t118.5 132.5t106.5 153q-140 -386 -265 -757q-54 -158 -109.5 -328.5 t-106.5 -338t-94.5 -324t-73.5 -286.5q-26 -110 -12.5 -159t54.5 -49q38 0 95.5 37t125 100t141.5 147t145.5 179.5t135.5 196t112 196t76 181.5t27 151q-3 166 -23 290.5t-54.5 224.5t-83 184.5t-107.5 169.5q62 -119 138 -212q32 -40 70.5 -78.5t82 -68.5t91.5 -48 t100 -18q46 0 94 16.5t97.5 55t100.5 100.5t103 152"
         horiz-adv-x="1426"
         unicode="q"
         glyph-name="q" />
      <glyph
         id="glyph1730"
         d="M0 393q59 93 110 182t95 158.5t83 111.5t73 42q28 0 53.5 -31t49.5 -102q20 -59 30 -119t16.5 -116t12.5 -104.5t17.5 -84.5t33 -57t57.5 -21q44 0 113.5 33t176.5 108"
         horiz-adv-x="921"
         unicode="r"
         glyph-name="r" />
      <glyph
         id="glyph1732"
         d="M0 393q209 177 335 299t170 199q48 -127 72 -258q10 -56 16 -118t3.5 -126t-15.5 -128t-40 -123q-6 -1 -15 -2q-13 -3 -40 -3t-64 5t-81 21t-92.5 44.5t-99.5 74.5M1325 393q-94 -49 -214 -96q-103 -41 -246.5 -84t-323.5 -75"
         horiz-adv-x="1325"
         unicode="s"
         glyph-name="s" />
      <glyph
         id="glyph1734"
         d="M-560 1038q65 47 177.5 87t258.5 73t319.5 60t360 47.5t379 36t377 26t354.5 16.5t312 8M-2 429q73 103 126 222t89.5 244t58.5 250t31 240t7.5 214.5t-11.5 172.5t-26.5 115t-37.5 42q-20 0 -43 -45t-46 -147q-27 -118 -51 -250t-44 -266.5t-33.5 -267.5t-19.5 -253.5 t-3 -224t17.5 -179t41.5 -118.5t68 -43q27 0 61 21q74 46 129 88.5t93 75.5q44 39 75 73"
         horiz-adv-x="480"
         unicode="t"
         glyph-name="t" />
      <glyph
         id="glyph1736"
         d="M179 801q-43 -88 -83 -175t-71.5 -166.5t-51.5 -148t-22.5 -118.5t14.5 -78.5t60 -28.5q27 0 65 12.5t89 39.5q147 78 257.5 161.5t185.5 154.5q88 82 151 161M975 964q-54 -70 -101 -152.5t-81.5 -168t-52.5 -170t-13.5 -158.5t34 -133.5t91.5 -95.5q26 -15 54 -21.5 t59 -6.5q48 0 100 14.5t104.5 38t103 54t95.5 61.5q107 73 211 167"
         horiz-adv-x="1579"
         unicode="u"
         glyph-name="u" />
      <glyph
         id="glyph1738"
         d="M133 964q19 -43 14 -103t-24 -129.5t-48 -144t-57 -147.5t-51 -140.5t-31.5 -122t3 -93t52.5 -53.5q22 -8 45 -8q42 0 90 22.5t95.5 62t92.5 93t82 115.5t64 129.5t38 135t3.5 132.5t-38.5 122q51 -130 118 -232q29 -43 64 -85t76 -74.5t88 -52.5t99 -20q51 0 105 22  "
         horiz-adv-x="1012"
         unicode="v"
         glyph-name="v" />
      <glyph
         id="glyph1740"
         d="M328 767q-47 -25 -96.5 -71t-96 -103t-88 -121.5t-72.5 -128.5t-50 -122t-21 -102.5t16 -71t60 -26.5q26 0 57 10q62 19 113 45.5t92.5 57t74 63.5t56.5 64q57 74 89 155q-21 -124 -13 -221q4 -42 14 -81.5t30 -71t51.5 -50.5t77.5 -19q8 0 15 0.5t15 1.5q71 9 138.5 39 t125 76t100 106t63.5 128.5t16.5 143t-41.5 149.5q64 -90 139 -161q32 -30 69 -59t78 -51.5t85 -36.5t89 -14q54 0 107.5 22t106.5 76"
         horiz-adv-x="1728"
         unicode="w"
         glyph-name="w" />
      <glyph
         id="glyph1742"
         d="M0 393q73 54 168.5 115.5t199.5 122.5t210 117t200 99t169 68.5t118 25.5q39 0 45.5 -24.5t-30.5 -81.5q-39 -60 -121 -146.5t-194 -194t-247.5 -233.5t-282.5 -266.5t-299 -292t-296.5 -309t-275.5 -319.5t-236 -322M2337 1287q-30 33 -106 33q-54 0 -126.5 -16 t-156.5 -45t-176 -69t-185 -88t-184.5 -102t-174.5 -110q-101 -69 -199.5 -150.5t-179 -165.5t-135 -165t-68.5 -148.5t21 -117.5t134 -72q57 -12 126 -12q81 0 174.5 14.5t190.5 38t194 53.5t185 61q209 73 420 167"
         horiz-adv-x="2091"
         unicode="x"
         glyph-name="x" />
      <glyph
         id="glyph1744"
         d="M135 605q-46 -67 -86 -130.5t-69.5 -119.5t-46.5 -102.5t-17 -80.5t19 -52.5t61 -18.5q31 0 75 11t104 34q76 30 144 72t128 91.5t111 102.5t93 104q98 119 173 251q-56 -138 -119 -316q-54 -152 -121.5 -365.5t-139.5 -479.5q-14 -52 -36.5 -133.5t-53 -182.5 t-68.5 -216.5t-82 -235.5t-94 -240t-105 -230t-114.5 -205t-122.5 -164.5t-129 -109.5t-134 -40q-70 0 -120.5 45t-74.5 123.5t-19 184t44 226.5t116.5 252t197.5 259q99 105 217.5 210.5t247 209.5t262 204.5t261 196t244.5 184.5t213.5 169.5t166.5 151t104 128.5"
         horiz-adv-x="1365"
         unicode="y"
         glyph-name="y" />
      <glyph
         id="glyph1746"
         d="M0 393q54 66 104.5 112.5t96.5 75.5t86.5 42t74.5 13q38 0 66 -14t46 -38t24 -56.5t-2 -69.5q-10 -48 8.5 -74.5t68.5 -26.5q77 0 230 68t394 219q63 -116 76 -299q6 -78 1 -178.5t-27 -224.5t-64.5 -273t-112.5 -324q-57 -142 -109 -238.5t-98.5 -156t-87.5 -85 t-76 -25.5q-34 0 -62.5 21t-49.5 56t-35.5 80.5t-20.5 93.5t-4 95.5t12 86.5q13 49 72 103t149 113t204.5 122.5t238.5 133t251 144.5t242 155.5t212 167.5t161 181"
         horiz-adv-x="2069"
         unicode="z"
         glyph-name="z" />
      <glyph
         id="glyph1748"
         d="M1343 2637q-112 -17 -228 -57.5t-226 -96.5t-211 -124t-183 -141.5t-141.5 -148.5t-88 -145t-20.5 -131.5t60.5 -107t154 -71.5t260.5 -26t33.5 1q-111 -50 -228 -112q-49 -27 -105 -58.5t-113.5 -68t-116 -77.5t-113.5 -85q-229 -355 -285 -634 q-16 -79 -17 -157t20 -149t67.5 -131t125.5 -104t194 -69t273 -25q100 0 216.5 11t254.5 34"
         horiz-adv-x="1501"
         unicode="{"
         glyph-name="braceleft" />
      <glyph
         id="glyph1750"
         d="M90 2656q26 -544 53 -1018q8 -134 16 -271.5t16.5 -270.5t18 -257t18.5 -231t17.5 -194t17.5 -146q13 -91 33 -149.5t43.5 -92t49 -46.5t49.5 -13q23 0 43.5 8t35.5 17q18 12 33 26"
         horiz-adv-x="547"
         unicode="|"
         glyph-name="bar" />
      <glyph
         id="glyph1752"
         d="M100 2627q65 -12 152.5 -30t184 -43t193.5 -57t180 -71.5t144.5 -86t86 -100.5t5.5 -116t-97.5 -132t-223 -148t-370.5 -165l773 39q-144 -96 -274 -171q-55 -32 -113 -63t-112 -55t-100 -39t-79 -15q146 -179 195 -401q21 -94 22 -207.5t-31 -242t-104.5 -271.5 t-199.5 -297"
         horiz-adv-x="1219"
         unicode="}"
         glyph-name="braceright" />
      <glyph
         id="glyph1754"
         horiz-adv-x="33"
         unicode="~"
         glyph-name="asciitilde" />
      <glyph
         id="glyph1756"
         d="M420 180q191 402 405 784q92 163 197 338t220 344.5t236 326t244 282.5q71 -449 159 -856q38 -174 83 -355t97 -350t109.5 -314.5t119.5 -248.5M587 885q269 42 521 83q107 18 221 36.5t223.5 37.5t208.5 36t176 32M1245 2889q-21 -15 -30 -29t-7.5 -26t11.5 -21.5 t26 -16.5q4 -2 10 -2q13 0 21 13t11 29.5t1 32t-9 20.5M2165 2889q-21 -15 -30 -29t-7.5 -26t11.5 -21.5t26 -16.5q4 -2 10 -2q13 0 21 13t11 29.5t1 32t-9 20.5"
         horiz-adv-x="2733"
         unicode="Ä"
         glyph-name="Adieresis" />
      <glyph
         id="glyph1758"
         d="M764 974q36 -3 77 -3q64 0 136 7t145.5 19.5t146 29t138 34.5t121.5 36.5t96 36.5M110 175q40 20 71 42.5t56.5 54.5t47 76.5t42.5 107t43.5 146t50.5 194.5q21 83 52 174.5t68.5 183.5t78.5 182.5t80 172.5q93 192 197 380q177 -234 333 -462q66 -97 135 -202.5 t131 -210.5t114.5 -204.5t85.5 -184.5t69 -152t71 -118t69.5 -88t64.5 -63q72 -60 142 -79M923 2249q-21 -15 -30 -29t-7.5 -26t11.5 -21.5t26 -16.5q4 -2 10 -2q13 0 21 13t11 29.5t1 32t-9 20.5"
         horiz-adv-x="2206"
         unicode="Å"
         glyph-name="Aring" />
      <glyph
         id="glyph1760"
         d="M1023 409q124 -147 151 -276t-42.5 -246t-237 -223.5t-433.5 -207.5M1463 2376q-11 1 -23 1q-138 0 -266.5 -40.5t-246 -111.5t-221.5 -167t-192 -206.5t-158 -231.5t-119 -241t-76 -235t-28 -213.5t24.5 -176.5t81.5 -125q48 -40 111 -57.5t138 -17.5 q94 0 201.5 23.5t219 62.5t223.5 88.5t214 101.5q239 121 482 276"
         horiz-adv-x="1939"
         unicode="Ç"
         glyph-name="Ccedilla" />
      <glyph
         id="glyph1762"
         d="M1666 2987q-215 -64 -406 -157q-81 -39 -165 -88.5t-160.5 -109.5t-140.5 -130t-105 -150M1434 2315q-98 -31 -263 -55q-70 -10 -162.5 -20.5t-209.5 -18t-259 -12.5t-312 -5t-70.5 1q39 -435 80 -823q12 -110 24 -224t25 -225t26 -217t26.5 -200.5t26 -174.5 t24.5 -140q86 28 188 50q88 19 205 34.5t252 15.5q106 0 217 -13t223 -45M1104 1594q-5 0 -12 1q-37 0 -98.5 -2.5t-138 -10.5t-163 -23t-174 -41t-170.5 -64t-152 -92"
         horiz-adv-x="1832"
         unicode="É"
         glyph-name="Eacute" />
      <glyph
         id="glyph1764"
         d="M493 2034q58 75 114.5 129t109.5 88.5t101.5 51t89.5 16.5q69 0 114 -40t58 -110q5 -30 20 -49.5t36.5 -31.5t48 -17t56.5 -5q49 0 100.5 10.5t93.5 22.5q50 15 97 33M1727 2303q-40 -387 -108 -762q-29 -160 -67.5 -332.5t-87 -343t-108 -331.5t-130.5 -296 q-93 151 -191 296q-42 62 -88.5 128.5t-96 132t-100 126.5t-98.5 111q-48 51 -93.5 123t-87 155t-78.5 172.5t-69 175.5q-74 202 -136 425q60 -379 75 -742q6 -155 3 -321t-21.5 -328.5t-55.5 -313t-99 -274.5"
         horiz-adv-x="1785"
         unicode="Ñ"
         glyph-name="Ntilde" />
      <glyph
         id="glyph1766"
         d="M1690 2324q-117 0 -235.5 -29t-232 -81.5t-219 -125.5t-198 -161.5t-169 -189t-131.5 -207.5t-85 -217.5t-30 -219.5q0 -145 37.5 -270.5t106 -229t166.5 -184t219 -136t263 -84t298 -28.5q157 0 299.5 48.5t266 133t223.5 199t171 247.5t109.5 278.5t38.5 290.5 q0 212 -49.5 386t-153 300t-263.5 198.5t-381 80.5M1234 2883q-21 -15 -30 -29t-7.5 -26t11.5 -21.5t26 -16.5q4 -2 10 -2q13 0 21 13t11 29.5t1 32t-9 20.5M2110 2883q-21 -15 -30 -29t-7.5 -26t11.5 -21.5t26 -16.5q4 -2 10 -2q13 0 21 13t11 29.5t1 32t-9 20.5"
         horiz-adv-x="2983"
         unicode="Ö"
         glyph-name="Odieresis" />
      <glyph
         id="glyph1768"
         d="M219 2286q-13 -146 -24.5 -313.5t-14 -342t8.5 -349.5t43.5 -337t91 -303t150 -248.5t221.5 -173.5t305 -77q47 -3 91 -3q213 0 367.5 68.5t262 198t172.5 316.5t99.5 423.5t43 519.5t2.5 604M784 2809q-21 -15 -30 -29t-7.5 -26t11.5 -21.5t26 -16.5q4 -2 10 -2 q13 0 21 13t11 29.5t1 32t-9 20.5M1684 2809q-21 -15 -30 -29t-7.5 -26t11.5 -21.5t26 -16.5q4 -2 10 -2q13 0 21 13t11 29.5t1 32t-9 20.5"
         horiz-adv-x="2254"
         unicode="Ü"
         glyph-name="Udieresis" />
      <glyph
         id="glyph1770"
         d="M1240 2450q-59 -45 -117.5 -92t-114 -92.5t-106 -89t-94.5 -82.5q-103 -91 -195 -176M1154 390q-175 -132 -337.5 -190.5t-306.5 -58.5q-134 0 -245.5 46t-191 126.5t-122.5 188.5t-41 232q3 149 62 278.5t166 226.5t257 152.5t333 55.5q103 0 213.5 -18.5t229.5 -59.5 q-65 -256 -72 -499q-3 -103 7 -214t40 -218t84 -205t139 -177"
         horiz-adv-x="1365"
         unicode="á"
         glyph-name="aacute" />
      <glyph
         id="glyph1772"
         d="M312 2424q126 -97 236 -197q47 -43 94.5 -90.5t89.5 -96.5t76 -97.5t53 -93.5M1144 390q-175 -132 -337.5 -190.5t-306.5 -58.5q-134 0 -245.5 46t-191 126.5t-122.5 188.5t-41 232q3 149 62 278.5t166 226.5t257 152.5t333 55.5q103 0 213.5 -18.5t229.5 -59.5 q-65 -256 -72 -499q-3 -103 7 -214t40 -218t84 -205t139 -177"
         horiz-adv-x="1362"
         unicode="à"
         glyph-name="agrave" />
      <glyph
         id="glyph1774"
         d="M1144 390q-175 -132 -337.5 -190.5t-306.5 -58.5q-134 0 -245.5 46t-191 126.5t-122.5 188.5t-41 232q3 149 62 278.5t166 226.5t257 152.5t333 55.5q103 0 213.5 -18.5t229.5 -59.5q-65 -256 -72 -499q-3 -103 7 -214t40 -218t84 -205t139 -177M72 1888l535 501 l656 -508"
         horiz-adv-x="1362"
         unicode="â"
         glyph-name="acircumflex" />
      <glyph
         id="glyph1776"
         d="M1098 460q-174 -159 -337 -230t-306 -71q-135 0 -246.5 55.5t-191 152.5t-122.5 228t-41 281q3 180 62 337t166 274t257 184.5t333 67.5q103 0 213.5 -23t229.5 -72q-65 -310 -72 -603q-3 -125 7 -259t40 -263.5t84 -248.5t139 -214M224 2363q-21 -15 -30 -29t-7.5 -26 t11.5 -21.5t26 -16.5q4 -2 10 -2q13 0 21 13t11 29.5t1 32t-9 20.5M1124 2363q-21 -15 -30 -29t-7.5 -26t11.5 -21.5t26 -16.5q4 -2 10 -2q13 0 21 13t11 29.5t1 32t-9 20.5"
         horiz-adv-x="1318"
         unicode="ä"
         glyph-name="adieresis" />
      <glyph
         id="glyph1778"
         d="M1124 424q-174 -145 -337.5 -209.5t-306.5 -64.5q-134 0 -245.5 50.5t-191 138.5t-122.5 207t-41 255q2 109 29 209.5t77.5 188t122 158.5t161.5 122t197.5 79t229.5 28q103 0 213.5 -21t230.5 -66q-65 -282 -72 -548q-3 -114 7 -235.5t40 -239t84 -225.5t139 -195  M-30 2073q32 83 76 144.5t95 101.5t108 59.5t114 19.5q101 0 193.5 -57.5t155.5 -168.5q45 -80 107.5 -115t131.5 -35t138 31t125.5 83.5t95 123t45.5 149.5"
         horiz-adv-x="1339"
         unicode="ã"
         glyph-name="atilde" />
      <glyph
         id="glyph1780"
         d="M1144 390q-175 -132 -337.5 -190.5t-306.5 -58.5q-134 0 -245.5 46t-191 126.5t-122.5 188.5t-41 232q3 149 62 278.5t166 226.5t257 152.5t333 55.5q103 0 213.5 -18.5t229.5 -59.5q-65 -256 -72 -499q-3 -103 7 -214t40 -218t84 -205t139 -177M717 2419 q100 -1 187.5 -25t152.5 -64t102.5 -93.5t37.5 -114.5t-38.5 -115.5t-105 -94.5t-155.5 -63.5t-191 -23.5q-101 0 -190 23.5t-155.5 63.5t-105 94.5t-38.5 115.5q0 60 37 113.5t101.5 93.5t151 64t185.5 26"
         horiz-adv-x="1361"
         unicode="å"
         glyph-name="aring" />
      <glyph
         id="glyph1782"
         d="M1072 1499q-113 106 -234.5 165t-246.5 59q-81 0 -161 -27.5t-157.5 -86t-150 -149.5t-138.5 -218q-56 -107 -81.5 -227t-20 -236.5t43.5 -223t108.5 -187.5t175 -129t243.5 -48q130 0 288.5 47t350.5 155M49 -399q88 -68 179.5 -99t176.5 -31q80 0 146.5 25.5 t109.5 72.5t57 113t-12.5 146t-99 172.5t-201.5 192.5"
         horiz-adv-x="1092"
         unicode="ç"
         glyph-name="ccedilla" />
      <glyph
         id="glyph1784"
         d="M1174 2450q-59 -45 -117.5 -92t-114 -92.5t-106 -89t-94.5 -82.5q-103 -91 -194 -176M-103 599q271 98 509 194q101 41 205 85t197 88t169.5 85t122.5 76q62 47 73 92t-14.5 85.5t-80.5 75t-124.5 60.5t-147 42t-147.5 20q-5 0 -11 0.5t-12 0.5q-72 0 -155.5 -22.5 t-167 -64.5t-161 -102.5t-138.5 -136.5t-99.5 -167t-43.5 -194t28.5 -216t117.5 -235q47 -68 104.5 -114.5t123 -75t136.5 -41t145 -12.5q77 0 155 11.5t153 31t145.5 44t132.5 49.5q144 59 277 135"
         horiz-adv-x="1389"
         unicode="é"
         glyph-name="eacute" />
      <glyph
         id="glyph1786"
         d="M239 2424q126 -97 236 -197q47 -43 94.5 -90.5t89.5 -96.5t76 -97.5t53 -93.5M-103 599q271 98 509 194q101 41 205 85t197 88t169.5 85t122.5 76q62 47 73 92t-14.5 85.5t-80.5 75t-124.5 60.5t-147 42t-147.5 20q-5 0 -11 0.5t-12 0.5q-72 0 -155.5 -22.5t-167 -64.5 t-161 -102.5t-138.5 -136.5t-99.5 -167t-43.5 -194t28.5 -216t117.5 -235q47 -68 105 -114.5t123 -75t136.5 -41t145.5 -12.5q78 0 156.5 11.5t154 31t146.5 44t133 49.5q145 59 279 135"
         horiz-adv-x="1396"
         unicode="è"
         glyph-name="egrave" />
      <glyph
         id="glyph1788"
         d="M82 1888l535 501l656 -508M-99 599q271 98 509 194q101 41 205 85t197 88t169.5 85t122.5 76q62 47 73 92t-14.5 85.5t-80.5 75t-124.5 60.5t-147 42t-147.5 20q-5 0 -11 0.5t-12 0.5q-72 0 -155.5 -22.5t-167 -64.5t-161 -102.5t-138.5 -136.5t-99.5 -167t-43.5 -194 t28.5 -216t117.5 -235q47 -68 104.5 -114.5t123 -75t136.5 -41t145 -12.5q77 0 155 11.5t153 31t145.5 44t132.5 49.5q144 59 277 135"
         horiz-adv-x="1393"
         unicode="ê"
         glyph-name="ecircumflex" />
      <glyph
         id="glyph1790"
         d="M-116 649q271 109 509 214q101 45 205 94t197 97.5t169.5 94t122.5 84.5q62 52 73 101.5t-14.5 94t-80.5 82.5t-124.5 67t-147 47t-147.5 22q-5 0 -11 0.5t-12 0.5q-72 0 -155.5 -24.5t-166.5 -71t-161 -113.5t-138.5 -151t-99.5 -184.5t-44 -214t28.5 -239t117.5 -259.5 q48 -77 108 -129.5t127.5 -85t141 -46.5t149.5 -14q77 0 153.5 12t150.5 31.5t142.5 44.5t128.5 51q141 60 269 138M224 2363q-21 -15 -30 -29t-7.5 -26t11.5 -21.5t26 -16.5q4 -2 10 -2q13 0 21 13t11 29.5t1 32t-9 20.5M1124 2363q-21 -15 -30 -29t-7.5 -26 t11.5 -21.5t26 -16.5q4 -2 10 -2q13 0 21 13t11 29.5t1 32t-9 20.5"
         horiz-adv-x="1375"
         unicode="ë"
         glyph-name="edieresis" />
      <glyph
         id="glyph1792"
         d="M697 2392q-119 -91 -217.5 -175.5t-169.5 -151.5q-84 -78 -150 -147M413 1521q-23 -250 -38 -500q-6 -107 -11 -224.5t-7 -236t0 -234.5t9 -220"
         horiz-adv-x="733"
         unicode="í"
         glyph-name="iacute" />
      <glyph
         id="glyph1794"
         d="M476 1521q-23 -250 -38 -500q-6 -107 -11 -224.5t-7 -236t0 -234.5t9 -220M90 2399q87 -59 177 -138q38 -33 80.5 -74.5t86.5 -90t88 -104.5t84 -119"
         horiz-adv-x="839"
         unicode="ì"
         glyph-name="igrave" />
      <glyph
         id="glyph1796"
         d="M-130 1888l535 501l656 -508M459 1521q-23 -250 -38 -500q-6 -107 -11 -224.5t-7 -236t0 -234.5t9 -220"
         horiz-adv-x="882"
         unicode="î"
         glyph-name="icircumflex" />
      <glyph
         id="glyph1798"
         d="M516 1757q-23 -291 -38 -584q-6 -124 -11 -261t-7 -276t0 -274t9 -256M-53 2363q-21 -15 -30 -29t-7.5 -26t11.5 -21.5t26 -16.5q4 -2 10 -2q13 0 21 13t11 29.5t1 32t-9 20.5M847 2363q-21 -15 -30 -29t-7.5 -26t11.5 -21.5t26 -16.5q4 -2 10 -2q13 0 21 13 t11 29.5t1 32t-9 20.5"
         horiz-adv-x="969"
         unicode="ï"
         glyph-name="idieresis" />
      <glyph
         id="glyph1800"
         d="M280 2073q32 83 75.5 144.5t95 101.5t108 59.5t114.5 19.5q101 0 193.5 -57.5t155.5 -168.5q45 -80 107.5 -115t131.5 -35t138 31t125.5 83.5t95 123t45.5 149.5M333 1693q8 -60 10.5 -142t1 -179t-6 -204t-10 -218t-10.5 -221t-7 -212t-1 -193t8 -162M1544 87 q-24 115 -35 240t-17 252t-9.5 251.5t-12.5 238t-27 212t-52.5 172.5t-88.5 120.5t-135 56.5q-21 3 -41 3q-78 0 -153.5 -33.5t-145.5 -90.5t-134 -132.5t-119.5 -160.5t-101.5 -174t-80 -172.5t-55 -156.5t-26 -126"
         horiz-adv-x="1802"
         unicode="ñ"
         glyph-name="ntilde" />
      <glyph
         id="glyph1802"
         d="M1099 2392q-120 -91 -218 -175.5t-170 -151.5q-84 -78 -150 -147M551 1463q125 -1 234 -52t189.5 -138t127 -204.5t46.5 -252.5q0 -90 -22.5 -177t-63.5 -164.5t-99.5 -143t-131 -113t-157.5 -74.5t-178 -27q-126 0 -236 50t-192 137.5t-129 205.5t-47 254 q0 93 22.5 179.5t63.5 163t98 140.5t127 110.5t150 73.5t167 31"
         horiz-adv-x="1216"
         unicode="ó"
         glyph-name="oacute" />
      <glyph
         id="glyph1804"
         d="M339 2399q88 -59 178 -138q38 -33 80.5 -74.5t86.5 -90t88 -104.5t84 -119M551 1463q125 -1 234 -52t189.5 -138t127 -204.5t46.5 -252.5q0 -90 -22.5 -177t-63.5 -164.5t-99.5 -143t-131 -113t-157.5 -74.5t-178 -27q-126 0 -236 50t-192 137.5t-129 205.5t-47 254 q0 93 22.5 179.5t63.5 163t98 140.5t127 110.5t150 73.5t167 31"
         horiz-adv-x="1188"
         unicode="ò"
         glyph-name="ograve" />
      <glyph
         id="glyph1806"
         d="M6 1888l536 501l655 -508M551 1463q125 -1 234 -52t189.5 -138t127 -204.5t46.5 -252.5q0 -90 -22.5 -177t-63.5 -164.5t-99.5 -143t-131 -113t-157.5 -74.5t-178 -27q-126 0 -236 50t-192 137.5t-129 205.5t-47 254q0 93 22.5 179.5t63.5 163t98 140.5t127 110.5 t150 73.5t167 31"
         horiz-adv-x="1207"
         unicode="ô"
         glyph-name="ocircumflex" />
      <glyph
         id="glyph1808"
         d="M496 1730q84 0 162 -27.5t145.5 -77t122.5 -120t94.5 -156.5t61 -186t21.5 -208q0 -111 -22.5 -215t-63.5 -196t-99 -168t-128 -132t-151 -89t-168 -37q-7 0 -13 -0.5t-13 -0.5q-84 0 -161.5 27.5t-144.5 77t-122.5 120t-94.5 156.5t-60.5 186t-21.5 208q0 112 22.5 216 t63.5 195.5t99 168t128 132.5t150.5 89t167.5 37M187 2363q-21 -15 -30 -29t-7.5 -26t11.5 -21.5t26 -16.5q4 -2 10 -2q13 0 21 13t11 29.5t1 32t-9 20.5M1087 2363q-21 -15 -30 -29t-7.5 -26t11.5 -21.5t26 -16.5q4 -2 10 -2q13 0 21 13t11 29.5t1 32t-9 20.5"
         horiz-adv-x="1207"
         unicode="ö"
         glyph-name="odieresis" />
      <glyph
         id="glyph1810"
         d="M-68 2073q31 83 75 144.5t95 101.5t108 59.5t114 19.5q50 0 99.5 -14.5t94.5 -43t85 -71t71 -97.5q45 -80 107.5 -115t131.5 -35t138 31t125.5 83.5t94.5 123t45 149.5M546 1569q84 0 162 -25t145.5 -70.5t122.5 -109.5t94.5 -142t61 -169t21.5 -189 q0 -101 -22.5 -195.5t-63.5 -177.5t-99 -152.5t-128 -120t-151 -80.5t-168 -34q-6 0 -12.5 -0.5t-12.5 -0.5q-84 0 -162 25t-145 70.5t-122.5 109.5t-94.5 142t-60.5 169t-21.5 189q0 101 22.5 195.5t63.5 177.5t99 152.5t128 120.5t150.5 81t167.5 34"
         horiz-adv-x="1243"
         unicode="õ"
         glyph-name="otilde" />
      <glyph
         id="glyph1812"
         d="M1069 2392q-119 -91 -217.5 -175.5t-169.5 -151.5q-84 -78 -150 -147M-8 1557q-35 -159 -57 -321t-25 -312t16 -281.5t65.5 -229t123.5 -153.5t190 -56q171 0 314 23t248 51q123 32 222 73M1135 1577q-22 -268 -32 -536q-4 -114 -6 -239t0 -251t9.5 -248.5t21.5 -230.5 "
         horiz-adv-x="1286"
         unicode="ú"
         glyph-name="uacute" />
      <glyph
         id="glyph1814"
         d="M309 2399q88 -59 178 -138q38 -33 80.5 -74.5t86.5 -90t88 -104.5t84 -119M-8 1557q-35 -159 -57 -321t-25 -312t16 -281.5t65.5 -229t123.5 -153.5t190 -56q171 0 314 23t248 51q123 32 222 73M1135 1577q-22 -268 -32 -536q-4 -114 -6 -239t0 -251t9.5 -248.5 t21.5 -230.5"
         horiz-adv-x="1326"
         unicode="ù"
         glyph-name="ugrave" />
      <glyph
         id="glyph1816"
         d="M-68 1888l535 501l656 -508M-10 1557q-35 -159 -57 -321t-25 -312t16 -281.5t65.5 -229t123.5 -153.5t190 -56q171 0 314 23t248 51q123 32 222 73M1133 1577q-22 -268 -32 -536q-4 -114 -6 -239t0 -251t9.5 -248.5t21.5 -230.5"
         horiz-adv-x="1317"
         unicode="û"
         glyph-name="ucircumflex" />
      <glyph
         id="glyph1818"
         d="M-38 1756q-35 -180 -57 -363.5t-25 -354t16 -319.5t65.5 -259.5t123.5 -174t190 -63.5q85 0 164 7t150 19t133.5 27t114.5 30q123 37 222 83M1105 1780q-22 -304 -32 -608q-4 -129 -6 -271t0 -285.5t9.5 -282t21.5 -261.5M87 2363q-21 -15 -30 -29t-7.5 -26t11.5 -21.5 t26 -16.5q4 -2 10 -2q13 0 21 13t11 29.5t1 32t-9 20.5M987 2363q-21 -15 -30 -29t-7.5 -26t11.5 -21.5t26 -16.5q4 -2 10 -2q13 0 21 13t11 29.5t1 32t-9 20.5"
         horiz-adv-x="1309"
         unicode="ü"
         glyph-name="udieresis" />
      <glyph
         id="glyph1820"
         d="M51 274q162 66 315.5 129t282 126.5t222.5 128t137.5 134t28 145t-106.5 160.5q-26 25 -60 36t-73 11q-60 0 -130.5 -24.5t-143.5 -67.5t-144.5 -101.5t-135 -125.5t-115.5 -140.5t-84.5 -146.5t-42.5 -142t10 -129t74 -106.5t148 -74.5q91 -26 200 -38t233 -12 q153 0 320.5 15.5t338 40.5t337 57t317.5 66q354 78 702 178"
         horiz-adv-x="2681"
         unicode="†"
         glyph-name="dagger" />
      <glyph
         id="glyph1822"
         d="M579 2424q14 2 28 2q78 0 142 -19t109.5 -51.5t70.5 -76t25 -93.5q0 -57 -28.5 -103.5t-76 -83t-107.5 -63t-123.5 -44t-124 -26t-108.5 -8.5q-73 0 -131 15.5t-98.5 43t-62.5 66.5t-22 86q0 57 31 113t87.5 103.5t137 82.5t179.5 50"
         horiz-adv-x="1073"
         unicode="°"
         glyph-name="degree" />
      <glyph
         id="glyph1824"
         d="M796 1968q-9 -478 -26 -891q-5 -117 -10.5 -237t-12.5 -235t-15 -222t-17.5 -198.5t-20.5 -165t-23 -121.5M999 1334q-120 -5 -239 -34.5t-226 -78.5t-196 -115.5t-150.5 -147t-89.5 -172.5t-12 -191q7 -44 35 -74.5t74 -50t107 -28t134 -8.5q87 0 187.5 11t207.5 30 t217.5 44t217.5 53t207.5 57.5t187 57.5t156.5 53t116 43"
         horiz-adv-x="2050"
         unicode="¢"
         glyph-name="cent" />
      <glyph
         id="glyph1826"
         d="M110 1375q39 -7 85.5 -9.5t99.5 -2.5q111 0 245 9.5t281 21t301 21t303 9.5q109 0 212 -6.5t198 -23.5M2151 2053q-20 45 -55.5 91t-84.5 89t-110 80.5t-131.5 65.5t-150 44t-164.5 16q-122 0 -253 -38t-265 -128q-135 -90 -206.5 -190.5t-98 -208t-18 -220t34 -227 t59 -229.5t56 -227t25 -219.5t-33.5 -207.5t-120 -190t-234 -168q71 26 158 47q75 18 177 32.5t224 14.5q128 0 271 -23t293 -83q66 -27 130.5 -39t126.5 -12q90 0 171 22.5t149.5 60t122 86t87.5 100t47 102.5t0 93"
         horiz-adv-x="2475"
         unicode="£"
         glyph-name="sterling" />
      <glyph
         id="glyph1828"
         d="M0 393q57 65 141 131t182.5 130.5t205 125t209.5 114.5q240 126 509 243q-181 -279 -297 -499q-33 -62 -62 -123.5t-50 -116.5t-33 -102.5t-11 -82.5t17 -54.5t50 -19.5q28 0 69 14t97 44.5t128 79t162 116.5"
         horiz-adv-x="1317"
         unicode="§"
         glyph-name="section" />
      <glyph
         id="glyph1830"
         d="M359 1562q-70 0 -132 -23t-108 -63t-72.5 -93.5t-26.5 -114.5t26.5 -114.5t72.5 -93.5t108 -63t132 -23q71 0 132.5 23t108 63t73 93.5t26.5 114.5q0 55 -21.5 104t-59.5 87.5t-90 64t-112 34.5"
         horiz-adv-x="724"
         unicode="•"
         glyph-name="bullet" />
      <glyph
         id="glyph1832"
         horiz-adv-x="1307"
         unicode="¶"
         glyph-name="paragraph" />
      <glyph
         id="glyph1834"
         d="M213 143q0 78 -1.5 185t-2 233.5t1.5 268t9.5 287t20.5 290t35.5 278t55 251t77.5 208.5t104.5 151t135.5 78q37 9 73 13t71 4q83 0 158 -22t135.5 -61.5t102.5 -94t59.5 -120.5t7 -141t-57 -155t-131 -162t-215.5 -163q142 -89 254 -205q47 -49 92.5 -109.5t81 -130 t57.5 -149t22 -166.5q0 -114 -34.5 -197t-92 -138t-134 -81.5t-160.5 -26.5q-91 0 -184 30t-176 89"
         horiz-adv-x="1508"
         unicode="ß"
         glyph-name="germandbls" />
      <glyph
         id="glyph1836"
         d="M1696 1654q-94 165 -196 299t-208.5 229.5t-216 147t-220.5 51.5q-125 0 -250.5 -72.5t-246.5 -229.5q-84 -108 -142.5 -248.5t-90 -297t-35.5 -320.5t22 -320.5t82 -296.5t144 -248t209 -176t277 -79q26 -2 52 -3t52 -1q194 0 366.5 50.5t315 137t251 202t174 246.5 t84 270.5t-17.5 272.5q-28 105 -81 188.5t-120.5 148.5t-144 113.5t-151.5 83.5q-178 81 -384 115M429 346q-2 89 -1 191.5t3.5 210t6.5 214.5t8 205q11 230 25 463M1574 62q-283 135 -515 273q-99 59 -197.5 123.5t-181 130.5t-141.5 130.5t-80 123.5q214 91 370 221 q67 55 127.5 124t101.5 151.5t57 179t-7 206.5q-22 105 -71.5 151.5t-113.5 46.5q-46 0 -96 -21.5t-99.5 -59.5t-95.5 -92t-83.5 -118t-64.5 -137.5t-38 -151.5"
         horiz-adv-x="2229"
         unicode="®"
         glyph-name="registered" />
      <glyph
         id="glyph1838"
         d="M120 2021q101 57 234 105t286.5 83.5t321.5 55t339 19.5q165 0 326.5 -20.5t308.5 -65.5t274 -117t223 -174q130 -139 186.5 -293t49 -312t-73.5 -314t-181.5 -298t-275 -264t-353.5 -213q-137 -64 -262.5 -95t-238.5 -31q-182 0 -323 76.5t-227 218t-111 342.5t24 450 q64 326 161.5 571t221 408.5t268.5 244.5t302 78M1522 1651q-91 -14 -172.5 -62.5t-149 -121.5t-118 -165t-78.5 -193t-31.5 -206.5t23.5 -205.5q20 -74 67 -105.5t111 -31.5t139 25t150 62.5t145 80.5q120 74 242 168"
         horiz-adv-x="2774"
         unicode="©"
         glyph-name="copyright" />
      <glyph
         id="glyph1840"
         d="M150 2376q93 -4 199 -6q92 -3 210 -5t249 -2q87 0 175 1t172 4t162 8t144 12M743 2328q3 -200 15 -391q5 -82 12 -170t17.5 -174t24.5 -166.5t32 -146.5M1359 1328q28 51 60.5 126.5t66 164.5t67.5 186t65 190q74 219 148 464q57 -188 111 -382q23 -83 47.5 -175 t48.5 -187.5t46 -190.5t40 -184q115 223 209 433q40 89 79.5 184t72.5 186.5t56.5 174.5t31.5 148q52 -239 112 -462q26 -96 56.5 -197.5t64 -199t70 -186t74.5 -158.5"
         horiz-adv-x="3041"
         unicode="™"
         glyph-name="trademark" />
      <glyph
         id="glyph1842"
         d="M375 2483q-83 -100 -152 -206q-29 -45 -58.5 -96t-54.5 -104.5t-43.5 -108t-26.5 -107.5"
         horiz-adv-x="459"
         unicode="´"
         glyph-name="acute" />
      <glyph
         id="glyph1844"
         d="M87 2473q-21 -15 -30 -29t-7.5 -26t11.5 -21.5t26 -16.5q4 -2 10 -2q13 0 21 13t11 29.5t1 32t-9 20.5M830 2473q-21 -15 -30 -29t-7.5 -26t11.5 -21.5t26 -16.5q4 -2 10 -2q13 0 21 13t11 29.5t1 32t-9 20.5"
         horiz-adv-x="972"
         unicode="¨"
         glyph-name="dieresis" />
      <glyph
         id="glyph1846"
         d="M220 683q-67 -75 -118.5 -139t-82 -115.5t-36.5 -91t18 -66t81.5 -40t154.5 -13.5q73 0 133.5 13t109.5 34t88 48.5t68 55.5q69 66 109 150q-61 -341 -144 -662q-36 -137 -80 -283t-96 -287t-112 -269t-128 -230q-134 -201 -247.5 -303.5t-193.5 -102.5q-41 0 -71.5 29 t-47.5 87.5t-19.5 148t11.5 210.5q15 128 69.5 258t145 256.5t214 245.5t276.5 223.5t333 191.5t382.5 149.5t425.5 97t463 34.5q168 0 343 -18"
         horiz-adv-x="2267"
         unicode="≠"
         glyph-name="notequal" />
      <glyph
         id="glyph1848"
         d="M160 232q278 441 563 822q81 108 168.5 218t178 215.5t183.5 204t185 182.5t181.5 150.5t174.5 109.5M826 1100l2133 148M3066 2063q-61 31 -144 55q-72 21 -176 38t-241 17q-144 0 -319.5 -26.5t-385.5 -95.5q-18 -401 -27 -735q-3 -95 -5 -190.5t-3.5 -185.5 t-1.5 -171t1 -147.5t4 -114.5t8 -73q8 -38 16.5 -74t26.5 -67.5t51.5 -58.5t92 -46t147 -29.5t217.5 -10.5q112 0 255.5 8.5t329.5 27.5"
         horiz-adv-x="3182"
         unicode="Æ"
         glyph-name="AE" />
      <glyph
         id="glyph1850"
         d="M2493 2342q-627 -475 -1137 -908q-145 -123 -289.5 -250.5t-279 -253.5t-253 -247.5t-212 -232t-156.5 -206.5t-86 -172M1643 2068q-60 8 -118.5 12t-115.5 4q-154 0 -295 -28t-258 -82.5t-205 -135t-136 -185t-51 -233t50 -279.5q30 -85 90 -144.5t142.5 -96.5 t184.5 -53.5t215 -16.5t233.5 15t241 41t238.5 62t225 78t199.5 88.5t164 93.5t117.5 94t59 89q35 111 2 220t-138 195.5t-284 140t-436 53.5q-150 0 -327 -21"
         horiz-adv-x="2740"
         unicode="Ø"
         glyph-name="Oslash" />
      <glyph
         id="glyph1852"
         d="M591 662q-43 18 -93 18q-68 0 -143.5 -29.5t-148.5 -78t-138 -110t-113 -126t-74 -126.5t-20.5 -110.5t48 -78t130.5 -29.5q39 0 87 6q169 23 350 53t368 78t376.5 119t375.5 177t364 251t342 341q101 121 180 251.5t136 260.5t94.5 256.5t56 239.5t19.5 208.5t-14 165.5 t-45 109t-73 39q-37 0 -82 -30.5t-99 -97.5q-49 -61 -107 -152t-119.5 -202.5t-126 -238.5t-126.5 -261t-119.5 -270.5t-107 -266t-88.5 -247.5t-63.5 -216.5t-32 -171.5t6.5 -113q26 -75 68.5 -107.5t95.5 -32.5q43 0 90.5 19.5t95 53.5t92.5 80.5t83 99.5"
         horiz-adv-x="2117"
         unicode="∞"
         glyph-name="infinity" />
      <glyph
         id="glyph1854"
         d="M1027 2091q5 -199 -7 -406q-5 -88 -14.5 -186.5t-25 -201.5t-37.5 -206t-53 -201M290 1327q293 54 560 102q113 21 231.5 42t229.5 40.5t207 35.5t164 26M80 471q134 60 317 108q78 20 175 39t211 34t245.5 24.5t279.5 9.5q108 0 224 -5.5t241 -18.5"
         horiz-adv-x="1846"
         unicode="±"
         glyph-name="plusminus" />
      <glyph
         id="glyph1856"
         d="M1145 1454l-1047 -537l1102 -546M80 89l1101 18"
         horiz-adv-x="1321"
         glyph-name="lessequal.1" />
      <glyph
         id="glyph1858"
         d="M133 1427l1065 -537l-1138 -510M105 80l1148 -19"
         horiz-adv-x="1321"
         unicode="≥"
         glyph-name="greaterequal" />
      <glyph
         id="glyph1860"
         d="M60 2447q64 -132 120 -246.5t109.5 -208.5t107.5 -167t113.5 -123t127.5 -76t150 -26q62 0 126.5 27.5t129.5 75t128.5 111t123.5 135.5t114 149t100 151t82.5 141t60.5 120M815 1563q-29 -390 -50 -712q-6 -91 -11.5 -183t-10.5 -177.5t-9 -162.5t-6 -139t-2.5 -105.5 t1.5 -63.5M206 1127q308 92 600 169q124 33 256.5 66t261 60.5t245.5 48t211 29.5M142 690q169 109 384 197q92 38 202.5 74.5t238.5 66t272 49t301 22.5"
         horiz-adv-x="1855"
         unicode="¥"
         glyph-name="yen" />
      <glyph
         id="glyph1862"
         d="M110 -576q94 348 154 728q26 162 46.5 347.5t29.5 384t3 405t-33 411.5q-10 -368 16 -657q9 -99 23.5 -195t36.5 -179t52.5 -147.5t71 -100.5t91.5 -36q47 0 101 32q86 51 152 139.5t116.5 197.5t86.5 232t61 243q58 282 75 607q-1 -351 57 -646q25 -126 65 -252 t101 -235t145.5 -190.5t196.5 -119.5"
         horiz-adv-x="1757"
         unicode="µ"
         glyph-name="mu" />
      <glyph
         id="glyph1864"
         d="M110 -576q94 348 154 728q26 162 46.5 347.5t29.5 384t3 405t-33 411.5q-10 -368 16 -657q9 -99 23.5 -195t36.5 -179t52.5 -147.5t71 -100.5t91.5 -36q47 0 101 32q86 51 152 139.5t116.5 197.5t86.5 232t61 243q58 282 75 607q-1 -351 57 -646q25 -126 65 -252 t101 -235t145.5 -190.5t196.5 -119.5"
         horiz-adv-x="1757"
         unicode="μ"
         glyph-name="mu" />
      <glyph
         id="glyph1866"
         d="M174 1591q75 35 142.5 51t129.5 16q110 0 197.5 -48t149 -133.5t95.5 -204.5t37 -261t-27 -302.5t-96 -328.5q-43 -111 -90 -188t-94.5 -125t-95 -69.5t-92.5 -21.5q-60 0 -114.5 33t-98.5 87.5t-74.5 125.5t-44 146.5t-6.5 151t39 139.5q29 58 63.5 97t72 63t78 34 t81.5 10q39 0 78 -8t76 -20.5t71 -29t64 -33.5q70 -41 132 -92"
         horiz-adv-x="1010"
         glyph-name="partialdiff.1" />
      <glyph
         id="glyph1868"
         d="M1273 1381l-39 302l-1156 -16l754 -887l-782 -930l1256 33l121 385"
         horiz-adv-x="1549"
         glyph-name="summation.1" />
      <glyph
         id="glyph1870"
         d="M100 1689l1680 28M392 1650l-6 -1833M1548 1667q-22 -492 -35 -890q-3 -113 -6 -225.5t-5 -216t-2.5 -194.5t1 -162t5 -118t9.5 -61"
         horiz-adv-x="1930"
         unicode="∏"
         glyph-name="product" />
      <glyph
         id="glyph1872"
         d="M50 841q27 68 83.5 112.5t132.5 70.5t165.5 36.5t180.5 10.5q106 0 206.5 -10t179.5 -22q93 -15 175 -33M441 1023q-23 -266 -67 -491q-19 -96 -45 -192t-60 -179t-76 -146.5t-94 -93.5M843 1028q-15 -65 -24 -143t-12.5 -161.5t-1.5 -168.5t9.5 -164t21 -148t32 -120 t42.5 -80.5t53 -29.5q23 0 48.5 19.5t54 61.5t60.5 108.5t66 161.5"
         horiz-adv-x="1196"
         unicode="π"
         glyph-name="pi" />
      <glyph
         id="glyph1874"
         d="M671 543q-118 -3 -235 -23t-224.5 -52t-201 -72.5t-164 -84.5t-113.5 -89t-50 -85t27 -72.5t118 -51.5q88 -20 201 -20q103 0 224 15.5t250.5 46t264 74.5t265 100.5t253 125t228 147.5t190.5 168t140 187q63 112 103 233t60 244t22 244t-11 230.5t-39 205t-62 168 t-79.5 118t-92.5 55.5q-3 1 -10 1q-38 0 -76.5 -59t-74 -160.5t-67 -237.5t-57 -290t-44 -318.5t-26.5 -322.5t-5 -301.5t19 -256t47 -186.5t79 -93q32 -13 66 -13t66 12t61 31.5t55.5 44t48.5 50.5q52 60 96 137"
         horiz-adv-x="1923"
         unicode="∫"
         glyph-name="integral" />
      <glyph
         id="glyph1876"
         d="M1168 2317q-88 28 -175.5 41.5t-174.5 13.5q-94 0 -182.5 -16t-164.5 -48.5t-137 -80t-101 -111t-55.5 -141.5t-0.5 -171q12 -75 44.5 -133.5t80.5 -99t108 -62t126 -21.5q94 0 194.5 45.5t190.5 142.5t161.5 249t107.5 364l83 -859"
         horiz-adv-x="1433"
         unicode="ª"
         glyph-name="ordfeminine" />
      <glyph
         id="glyph1878"
         d="M589 2421q68 -13 122 -55.5t88.5 -105.5t47 -144t-1.5 -171q-16 -100 -61 -187.5t-109 -153t-141.5 -103.5t-159.5 -38q-81 0 -147 38t-108.5 103.5t-59.5 153t-1 187.5t61 187.5t108.5 153t141.5 103.5t159 38"
         horiz-adv-x="895"
         unicode="º"
         glyph-name="ordmasculine" />
      <glyph
         id="glyph1880"
         d="M60 131q38 0 66.5 10.5t48.5 27t33.5 38t21.5 43.5q18 52 17 119q-134 37 -239 118q-60 46 -115.5 115.5t-90 168.5t-34.5 230q0 132 41 225t104.5 155t141.5 98.5t151.5 54.5t133.5 23t89 5q22 0 60 -3t85.5 -13.5t101.5 -29.5t107 -50.5t101.5 -78t85.5 -111 t59 -149t22 -192.5t-18.5 -191.5t-48.5 -145.5t-68.5 -105.5t-79.5 -72.5q-95 -67 -215 -80q-41 -67 -36 -120q2 -23 14.5 -44.5t41 -38.5t75.5 -27.5t118 -10.5q60 0 139 8.5t182 28.5"
         horiz-adv-x="1706"
         unicode="Ω"
         glyph-name="uni03A9" />
      <glyph
         id="glyph1882"
         d="M1167 92q-60 281 -93 563q-14 120 -23.5 252t-9.5 266t11.5 264t39.5 247q-53 15 -115 27q-54 10 -125.5 18t-154.5 8q-78 0 -161.5 -10.5t-165.5 -37t-158.5 -72t-140.5 -115.5t-112 -167.5t-73 -228.5q-31 -161 -25.5 -292.5t39 -235t92 -179.5t136 -125.5t169 -74 t191.5 -24.5q144 0 294.5 48.5t290.5 142.5M1088 696q324 149 592 284q76 39 152 78.5t147 79t135 77.5t115 72t87.5 64t52.5 53q-34 101 -99 180q-28 33 -65 65.5t-86 57.5t-109.5 40.5t-134.5 15.5q-83 0 -182 -22.5t-219 -75.5q-90 -39 -161 -108.5t-123.5 -158.5 t-84.5 -193.5t-43.5 -214.5t-1.5 -221t42 -213.5t86.5 -191t133.5 -154t181.5 -103t230.5 -37.5q84 0 180 18t203 57t226 100.5t249 147.5"
         horiz-adv-x="2592"
         unicode="æ"
         glyph-name="ae" />
      <glyph
         id="glyph1884"
         d="M878 1750q83 -9 158 -42t139 -86t115 -124.5t86 -156t52 -181t13 -200.5q-4 -109 -31.5 -210.5t-73 -189.5t-107.5 -160.5t-136.5 -124t-158.5 -80t-173 -28.5q-90 0 -172 28.5t-152 80t-126.5 124t-95.5 160.5t-58 189.5t-15 210.5t31.5 210.5t73 189.5t107.5 160.5 t136.5 124t158.5 80t174 28.5M1609 1815l-1579 -1716"
         horiz-adv-x="1608"
         unicode="ø"
         glyph-name="oslash" />
      <glyph
         id="glyph1886"
         d="M1039 1106q-67 -56 -150 -110t-170.5 -109t-175 -113.5t-163.5 -123t-135.5 -137.5t-92 -158t-32 -182.5t43.5 -212.5q44 -117 113 -197t154 -129.5t182 -71.5t196 -22q97 0 192 18t181 48t158 70.5t123 85.5M1075 1694q-21 -15 -30 -29t-7.5 -26t11.5 -21.5t26 -16.5 q4 -2 10 -2q13 0 21 13t11 29.5t1 32t-9 20.5"
         horiz-adv-x="1603"
         unicode="¿"
         glyph-name="questiondown" />
      <glyph
         id="glyph1888"
         d="M108 1019q67 -231 104 -491q16 -111 27.5 -239.5t13 -268.5t-9 -288t-38.5 -299M110 1754q-21 -15 -30 -29t-7.5 -26t11.5 -21.5t26 -16.5q4 -2 10 -2q13 0 21 13t11 29.5t1 32t-9 20.5"
         horiz-adv-x="300"
         unicode="¡"
         glyph-name="exclamdown" />
      <glyph
         id="glyph1890"
         d="M70 899q57 2 135.5 8.5t168 17t184.5 23t185 25.5q212 30 444 68l-15 -946"
         horiz-adv-x="1292"
         unicode="¬"
         glyph-name="logicalnot" />
      <glyph
         id="glyph1892"
         d="M1110 2091l-320 -2085q-76 311 -168 556q-26 69 -55 137t-61 130t-66.5 114.5t-71 91t-75 60.5t-78.5 22q-38 0 -76.5 -21.5t-78.5 -69.5"
         horiz-adv-x="1205"
         unicode="√"
         glyph-name="radical" />
      <glyph
         id="glyph1894"
         d="M389 474q78 57 132 108t80.5 89.5t23 61t-42.5 22.5q-30 0 -81 -15t-127 -48q-69 -30 -134 -70.5t-117.5 -84t-87 -85.5t-42.5 -75.5t15.5 -54t87.5 -20.5q60 0 157.5 20.5t241.5 68.5q45 -239 18 -530q-12 -124 -40.5 -272t-82 -315t-136.5 -351.5t-203 -382.5 q-73 -120 -143 -204.5t-135 -138t-125 -77.5t-113 -24q-81 0 -145.5 48.5t-108 129t-64 184t-14 214t42.5 219.5t105 199q100 130 256.5 253.5t388.5 240t548.5 225.5t736 210.5t951 195t1193.5 178.5"
         horiz-adv-x="3424"
         unicode="≈"
         glyph-name="approxequal" />
      <glyph
         id="glyph1896"
         d="M389 474q78 57 132 108t80.5 89.5t23 61t-42.5 22.5q-30 0 -81 -15t-127 -48q-69 -30 -134 -70.5t-117.5 -84t-87 -85.5t-42.5 -75.5t15.5 -54t87.5 -20.5q60 0 157.5 20.5t241.5 68.5q45 -239 18 -530q-12 -124 -40.5 -272t-82 -315t-136.5 -351.5t-203 -382.5 q-73 -120 -143 -204.5t-135 -138t-125 -77.5t-113 -24q-81 0 -145.5 48.5t-108 129t-64 184t-14 214t42.5 219.5t105 199q100 130 256.5 253.5t388.5 240t548.5 225.5t736 210.5t951 195t1193.5 178.5"
         horiz-adv-x="3424"
         unicode="⋲"
         glyph-name="approxequal" />
      <glyph
         id="glyph1898"
         d="M854 1928q-106 -68 -204.5 -137.5t-174.5 -142t-122.5 -148.5t-50.5 -157.5t42 -168.5t155 -182q164 -142 251.5 -260.5t92 -220t-77 -190t-254.5 -170.5q-71 -33 -130.5 -49t-107.5 -16q-95 0 -142.5 55t-39 150.5t75.5 224t202 275.5q84 92 176.5 183t185.5 176.5 t184 164t173 146.5q193 160 382 301"
         horiz-adv-x="1342"
         unicode="Δ"
         glyph-name="Delta" />
      <glyph
         id="glyph1900"
         d="M854 1928q-106 -68 -204.5 -137.5t-174.5 -142t-122.5 -148.5t-50.5 -157.5t42 -168.5t155 -182q164 -142 251.5 -260.5t92 -220t-77 -190t-254.5 -170.5q-71 -33 -130.5 -49t-107.5 -16q-95 0 -142.5 55t-39 150.5t75.5 224t202 275.5q84 92 176.5 183t185.5 176.5 t184 164t173 146.5q193 160 382 301"
         horiz-adv-x="1342"
         unicode="∆"
         glyph-name="Delta" />
      <glyph
         id="glyph1902"
         d="M975 1774q-44 -72 -103.5 -148t-126.5 -151.5t-138 -147.5t-138 -136q-158 -150 -329 -294q139 -78 279 -191q59 -48 124.5 -109t131.5 -134.5t130.5 -160t122.5 -186.5M1793 1774q-44 -72 -103.5 -148t-126.5 -151.5t-138 -147.5t-139 -136q-158 -150 -329 -294 q139 -78 279 -191q59 -48 124.5 -109t131.5 -134.5t130.5 -160t122.5 -186.5"
         horiz-adv-x="2003"
         unicode="«"
         glyph-name="guillemotleft" />
      <glyph
         id="glyph1904"
         d="M993 1774q45 -72 104.5 -148t126.5 -151.5t138 -147.5t138 -136q158 -150 329 -294q-139 -78 -278 -191q-60 -48 -125.5 -109t-131.5 -134.5t-130.5 -160t-122.5 -186.5M176 1774q45 -72 104.5 -148t126 -151.5t137.5 -147.5t138 -136q158 -150 329 -294 q-139 -78 -278 -191q-60 -48 -125.5 -109t-131.5 -134.5t-130.5 -160t-122.5 -186.5"
         horiz-adv-x="2018"
         unicode="»"
         glyph-name="guillemotright" />
      <glyph
         id="glyph1906"
         d="M1049 166q-21 -15 -30 -29t-7.5 -26t11.5 -21.5t26 -16.5q4 -2 10 -2q13 0 21 13t11 29.5t1 32t-9 20.5M121 166q-21 -15 -30 -29t-7.5 -26t11.5 -21.5t26 -16.5q4 -2 10 -2q13 0 21 13t11 29.5t1 32t-9 20.5M2242 166q-21 -15 -30 -29t-7.5 -26t11.5 -21.5 t26 -16.5q4 -2 10 -2q13 0 21 13t11 29.5t1 32t-9 20.5"
         horiz-adv-x="2580"
         unicode="…"
         glyph-name="ellipsis" />
      <glyph
         id="glyph1908"
         d="M435 2744q62 -27 122 -60q26 -14 53 -31t54 -35.5t52 -39.5t46 -43M100 95q127 221 239 461q48 102 97 218.5t93.5 241t81.5 253t61 255.5t48 228.5t48 181t47 139t43 102.5q47 101 92 144q72 -338 180 -709q46 -158 104.5 -338.5t130 -373.5t156 -394.5t182.5 -401.5  M1111 834q-86 0 -178.5 -11.5t-183.5 -34t-177 -56.5t-158 -80"
         horiz-adv-x="1808"
         unicode="À"
         glyph-name="Agrave" />
      <glyph
         id="glyph1910"
         d="M288 2507q62 89 127 158t131 116.5t130 72t122 24.5q83 0 149 -51t108 -160q20 -53 49.5 -89.5t65 -59t76.5 -32.5t85 -10q64 0 130.5 17.5t128 43.5t114.5 57t90 59M100 130q43 92 99 215t118.5 266.5t128 301.5t127.5 317.5t116.5 315.5t95.5 296.5t65 259t24 203.5 q200 -259 398 -599q85 -145 177.5 -321.5t186 -382.5t184 -440.5t169.5 -494.5M532 1036l997 139"
         horiz-adv-x="2055"
         unicode="Ã"
         glyph-name="Atilde" />
      <glyph
         id="glyph1912"
         d="M385 2416q23 92 67 159t99.5 110.5t119 64t124.5 20.5q48 0 93 -12.5t82 -36t64.5 -58t40.5 -79.5q18 -60 47.5 -99.5t66 -62.5t78 -32t82.5 -9q45 0 86 7.5t73 17.5q37 10 69 24M894 2012q2 122 -21.5 175t-64.5 53q-27 0 -60 -20t-70.5 -55t-78 -83.5t-82.5 -104.5 q-29 -40 -70.5 -114t-87.5 -172.5t-91.5 -215.5t-83.5 -242t-63 -252.5t-30 -247t15 -226t72.5 -189t142 -136t224.5 -66.5q57 -6 113 -6q165 0 322.5 45t295.5 126t248.5 193.5t180.5 248t91.5 289.5t-17.5 317q-34 142 -94 253t-135 194.5t-159.5 142t-167.5 95t-159 53 t-134 16.5q-6 0 -12 -0.5t-11 -0.5"
         horiz-adv-x="1909"
         unicode="Õ"
         glyph-name="Otilde" />
      <glyph
         id="glyph1914"
         d="M1225 2011q116 -4 219.5 -39.5t189 -97t151.5 -146t108 -186.5t57.5 -218.5t-0.5 -242.5q-16 -128 -61.5 -247t-115 -222.5t-159.5 -188.5t-194.5 -145.5t-220 -93.5t-235.5 -33t-227.5 33t-196.5 93.5t-158 145.5t-113 188.5t-60.5 222t-0.5 247.5t61.5 247.5t115 222 t159.5 188.5t194.5 145.5t220 94t235.5 33.5M1961 2165q-6 -384 -10 -724q-1 -145 -2.5 -294t-2 -284.5t-0.5 -248.5t1 -185q2 -89 31.5 -147.5t87.5 -92.5t144 -47.5t199 -13.5q138 0 314 14t395 30M3271 2068q-115 41 -253 65.5t-299 24.5q-169 0 -356 -32t-395 -107  M3139 1224l-1157 -97"
         horiz-adv-x="3447"
         unicode="Œ"
         glyph-name="OE" />
      <glyph
         id="glyph1916"
         d="M1473 717q271 111 509 218q101 46 205 96t197 99.5t169.5 96t122.5 85.5q62 53 72.5 103.5t-15 96t-80 84.5t-124 68t-147 47.5t-147.5 22.5q-5 0 -11 0.5t-11 0.5q-72 0 -155.5 -25t-167 -72.5t-161.5 -115.5t-139 -154t-99.5 -188t-44 -218t28.5 -243.5t118 -264.5 q48 -78 107.5 -131.5t126.5 -86.5t140 -47.5t148 -14.5q76 0 152.5 12.5t150 32.5t142 46t128.5 53q141 63 269 143M842 1688q126 0 236 -56.5t192 -156t129 -234t47 -289.5q0 -106 -22.5 -205t-63.5 -186t-98 -159.5t-127 -125.5t-150 -84t-167 -35q-7 0 -13 -0.5 t-13 -0.5q-126 0 -235.5 57t-191 156.5t-128.5 234t-47 289.5q0 106 22.5 204.5t63.5 185.5t98 159.5t127 125.5t150 84.5t167 35.5"
         horiz-adv-x="3157"
         unicode="œ"
         glyph-name="oe" />
      <glyph
         id="glyph1918"
         d="M70 1223q146 20 311 36q70 6 151.5 12.5t170 11.5t182.5 8t190 3q101 0 201.5 -4t197 -13.5t186 -24.5t167.5 -38"
         horiz-adv-x="1926"
         unicode="–"
         glyph-name="endash" />
      <glyph
         id="glyph1920"
         d="M60 1184q173 -18 376 -18q201 0 422 14t447 35t450 45.5t432 45.5t393 35t332 14q98 0 176.5 -7.5t134 -24t86.5 -43.5t33 -66"
         horiz-adv-x="3429"
         unicode="—"
         glyph-name="emdash" />
      <glyph
         id="glyph1922"
         d="M251 2450q-64 -69 -100 -131t-40.5 -132t23 -154t91.5 -197M875 2476q-91 -55 -152 -115.5t-90 -130.5t-25 -150.5t44 -175.5"
         horiz-adv-x="1019"
         unicode="“"
         glyph-name="quotedblleft" />
      <glyph
         id="glyph1924"
         d="M130 2272q55 -65 100 -117t76.5 -98t46.5 -91t9.5 -96t-34.5 -112.5t-86 -141.5M726 2451q17 -48 35.5 -87t34 -78.5t25 -84.5t9 -105.5t-14 -142t-45.5 -192.5"
         horiz-adv-x="1019"
         unicode="”"
         glyph-name="quotedblright" />
      <glyph
         id="glyph1926"
         d="M657 2466q-114 -29 -191 -89t-118 -155t-47 -226.5t21 -304.5"
         horiz-adv-x="459"
         unicode="‘"
         glyph-name="quoteleft" />
      <glyph
         id="glyph1928"
         d="M300 2442q34 -40 64 -76.5t50.5 -78t28.5 -93t-2 -121t-41.5 -161.5t-89.5 -216"
         horiz-adv-x="300"
         unicode="’"
         glyph-name="quoteright" />
      <glyph
         id="glyph1930"
         d="M90 985q92 81 195.5 138t220.5 93t249.5 53t283.5 17q98 0 203.5 -6.5t220.5 -19.5M550 1883q-21 -15 -30 -29t-7.5 -26t11.5 -21.5t26 -16.5q4 -2 10 -2q13 0 21 13t11 29.5t1 32t-9 20.5M755 870q-21 -15 -30 -29t-7.5 -26t11.5 -21.5t26 -16.5q4 -2 10 -2 q13 0 21 13t11 29.5t1 32t-9 20.5"
         horiz-adv-x="1555"
         unicode="÷"
         glyph-name="divide" />
      <glyph
         id="glyph1932"
         d="M572 1781l-472 -910l481 -893l420 944l-418 836"
         horiz-adv-x="1110"
         unicode="◊"
         glyph-name="lozenge" />
      <glyph
         id="glyph1934"
         d="M100 1849q150 -238 290 -489q59 -107 122 -227.5t123.5 -246.5t115 -254t96.5 -250M1628 1849q-261 -458 -489 -894q-65 -124 -131.5 -254.5t-131 -262t-125 -261.5t-113.5 -252.5t-96 -235t-73 -208.5M385 2386q-21 -15 -30 -29t-7.5 -26t11.5 -21.5t26 -16.5 q4 -2 10 -2q13 0 21 13t11 29.5t1 32t-9 20.5M1270 2386q-21 -15 -30 -29t-7.5 -26t11.5 -21.5t26 -16.5q4 -2 10 -2q13 0 21 13t11 29.5t1 32t-9 20.5"
         horiz-adv-x="1608"
         unicode="ÿ"
         glyph-name="ydieresis" />
      <glyph
         id="glyph1936"
         d="M99 2279q190 -310 373 -585q78 -117 162.5 -238t167 -231t160 -202t141.5 -152M1936 2304q-262 -481 -501 -908q-68 -121 -138.5 -245.5t-140 -246t-136.5 -236.5t-128 -217t-114 -187.5t-95 -147.5M631 2777q-21 -15 -30 -29t-7.5 -26t11.5 -21.5t26 -16.5q4 -2 10 -2 q13 0 21 13t11 29.5t1 32t-9 20.5M1516 2777q-21 -15 -30 -29t-7.5 -26t11.5 -21.5t26 -16.5q4 -2 10 -2q13 0 21 13t11 29.5t1 32t-9 20.5"
         horiz-adv-x="2063"
         unicode="Ÿ"
         glyph-name="Ydieresis" />
      <glyph
         id="glyph1938"
         d="M746 1781l-1276 -1781"
         horiz-adv-x="308"
         glyph-name="fraction.1" />
      <glyph
         id="glyph1940"
         d="M1012 1719q92 -6 171 -43.5t138 -97.5t92.5 -138t33.5 -166q0 -92 -37 -173.5t-101 -142t-149.5 -95.5t-183.5 -35t-184 35t-150.5 95.5t-101.5 142t-37 173.5q0 93 37 174t101.5 142t150.5 96t184 35M212 2175l437 -566M1276 905l472 -532M1945 2029l-652 -428  M623 974l-523 -575"
         horiz-adv-x="2312"
         unicode="¤"
         glyph-name="currency" />
      <glyph
         id="glyph1942"
         d="M287 708q-90 -89 -167 -174t-135.5 -160.5t-96 -139t-50.5 -109.5t1.5 -72t61.5 -26q58 0 171 46q164 68 285.5 125t201 107.5t118.5 96.5t39 91M570 279q-58 -85 -85 -145t-29.5 -97.5t16.5 -54.5t52 -17q43 0 104 25.5t126 69t127 102t106 123.5t63.5 134t-0.5 134 q351 39 731 75q162 15 345.5 31.5t379 32t397 29.5t399.5 24"
         horiz-adv-x="3297"
         unicode="‹"
         glyph-name="guilsinglleft" />
      <glyph
         id="glyph1944"
         d="M-471 -126q16 58 70 131t134 152.5t179 162t205 159t212.5 144t201 118t170 79.5t120.5 29q38 0 49.5 -23.5t-11.5 -75.5q-29 -67 -61 -143t-57.5 -150t-40.5 -141.5t-11 -119t31.5 -82t86.5 -30.5q42 0 100.5 17t138 54t180 95.5t226.5 142.5M1777 1316 q-293 -272 -600 -557q-130 -121 -276.5 -256t-299.5 -276t-307.5 -283t-301.5 -276q-146 -134 -265.5 -243t-219 -202t-182.5 -173.5t-156 -155.5t-139.5 -149t-133.5 -154t-138.5 -170.5t-153.5 -198.5"
         horiz-adv-x="1452"
         unicode="›"
         glyph-name="guilsinglright" />
      <glyph
         id="glyph1946"
         d="M486 684q-35 50 -73 72t-76 22q-37 0 -74.5 -19t-75 -53.5t-73.5 -82t-70 -104.5q-27 -46 -37 -77t-5.5 -49.5t21 -26t41.5 -7.5q26 0 59 6t69 15t73 19t71 17q55 11 111.5 32.5t106.5 49t89 60t59 66t16 66t-40.5 61t-109 51t-189.5 35.5q68 -12 159 -21 q78 -8 191.5 -15t260.5 -7q180 0 402.5 14.5t488.5 53.5q350 52 614.5 86.5t445.5 55.5q212 25 365 39"
         horiz-adv-x="3304"
         unicode="‡"
         glyph-name="daggerdbl" />
      <glyph
         id="glyph1948"
         d="M210 1344q-21 -15 -30 -29t-7.5 -26t11.5 -21.5t26 -16.5q4 -2 10 -2q13 0 21 13t11 29.5t1 32t-9 20.5"
         horiz-adv-x="424"
         unicode="·"
         glyph-name="periodcentered" />
      <glyph
         id="glyph1950"
         d="M210 1344q-21 -15 -30 -29t-7.5 -26t11.5 -21.5t26 -16.5q4 -2 10 -2q13 0 21 13t11 29.5t1 32t-9 20.5"
         horiz-adv-x="424"
         unicode="∙"
         glyph-name="periodcentered" />
      <glyph
         id="glyph1952"
         d="M196 316q0 -79 -16 -174q-14 -82 -45.5 -192t-94.5 -239"
         horiz-adv-x="265"
         unicode="‚"
         glyph-name="quotesinglbase" />
      <glyph
         id="glyph1954"
         d="M188 355q33 -64 52 -111t24.5 -86.5t-2.5 -75.5t-29 -79t-54.5 -97t-78.5 -129M764 386q68 -52 101 -110.5t29.5 -139.5t-43.5 -193.5t-118 -272.5"
         horiz-adv-x="972"
         unicode="„"
         glyph-name="quotedblbase" />
      <glyph
         id="glyph1956"
         d="M179 900q-38 -85 -85 -219q-40 -115 -96 -297.5t-123 -443.5q-34 -132 -79.5 -288t-97.5 -320.5t-107.5 -330.5t-107.5 -319q-122 -359 -256 -728M81 107q39 137 98 263t129 236t147 200.5t152.5 154.5t145.5 99.5t126 35.5q35 0 62 -15q37 -20 38 -68.5t-26.5 -115.5 t-82 -148t-128 -165t-164.5 -166.5t-192.5 -153t-210.5 -124.5t-219 -81q359 95 810 169q192 32 423.5 62t497 53t562.5 37t620 13"
         horiz-adv-x="2869"
         unicode="‰"
         glyph-name="perthousand" />
      <glyph
         id="glyph1958"
         d="M393 2222q68 169 140 296t132 214q69 101 136 174q75 -50 144 -136q29 -37 60 -85t60.5 -108.5t56 -134.5t46.5 -163M100 185q43 101 96 224t110.5 259.5t117.5 282.5t117 293.5t108.5 292t91.5 278t66.5 251.5t34.5 213q115 -124 210 -287q41 -70 81 -155t73.5 -184 t58 -212t33.5 -238q10 -140 24.5 -272t33 -247.5t40.5 -211.5t47.5 -165t54 -107t59.5 -38q37 0 75 55M695 1040q40 25 93.5 48.5t113.5 45.5t124 41.5t124 36.5q141 39 295 73"
         horiz-adv-x="1709"
         unicode="Â"
         glyph-name="Acircumflex" />
      <glyph
         id="glyph1960"
         d="M588 2344q165 106 304 207q59 43 118.5 89.5t110 92t88.5 88t55 77.5q-8 -118 10 -240q8 -52 22 -109.5t37 -117t56 -119t79 -114.5M351 1366q115 36 240 75q54 17 115 35.5t126.5 38t133.5 40t135 40.5M1622 2328l-1042 -114q-152 -451 -264 -857 q-32 -115 -62.5 -234.5t-57 -236.5t-47 -229.5t-33 -213t-15.5 -187.5t6 -153q229 97 484 174q108 32 232 63t258.5 55.5t275 39.5t281.5 15q60 0 119 -3t118 -10"
         horiz-adv-x="2003"
         unicode="Ê"
         glyph-name="Ecircumflex" />
      <glyph
         id="glyph1962"
         d="M980 2491q113 117 227 214q49 41 102.5 82t107.5 75.5t107 59.5t100 34M516 886q53 -10 116 -18q55 -7 127.5 -12.5t156.5 -5.5q100 0 206 11.5t209 40.5M100 79q50 83 106.5 196.5t114 248t114.5 285t109 307t96.5 314.5t78 306t53 282.5t21.5 244.5 q231 -480 449 -893q62 -117 127 -237t130 -234.5t129 -220.5t124 -196.5t114 -162.5t100 -118"
         horiz-adv-x="2050"
         unicode="Á"
         glyph-name="Aacute" />
      <glyph
         id="glyph1964"
         d="M1893 2287q-162 15 -327 15q-112 0 -222 -5.5t-213.5 -15t-197.5 -21.5t-175 -25q-191 -29 -359 -67q-36 -429 -82 -819q-13 -111 -28 -226t-31.5 -229t-35 -223.5t-38 -209t-40.5 -186.5t-44 -155q332 65 636 116q130 22 266.5 42.5t264.5 37t241 26.5t195 10  M1340 1383q-61 0 -137.5 -10t-159.5 -26t-168.5 -37t-165.5 -42q-187 -51 -385 -116M597 2629q-21 -15 -30 -29t-7.5 -26t11.5 -21.5t26 -16.5q4 -2 10 -2q13 0 21 13t11 29.5t1 32t-9 20.5M1121 2629q-21 -15 -30 -29t-7.5 -26t11.5 -21.5t26 -16.5q4 -2 10 -2 q13 0 21 13t11 29.5t1 32t-9 20.5"
         horiz-adv-x="2027"
         unicode="Ë"
         glyph-name="Edieresis" />
      <glyph
         id="glyph1966"
         d="M100 2325q138 -358 246 -725q46 -156 89.5 -329.5t77.5 -351.5t54.5 -354.5t18.5 -339.5"
         horiz-adv-x="693"
         unicode="È"
         glyph-name="Egrave" />
      <glyph
         id="glyph1968"
         d="M399 2915q-86 -166 -156 -311q-30 -62 -59 -125.5t-53 -121t-40.5 -105t-20.5 -77.5M219 2310q35 -494 57 -927q6 -123 11.5 -248.5t10 -247t7 -235.5t2 -213.5t-3.5 -181t-9 -137.5"
         horiz-adv-x="459"
         unicode="Í"
         glyph-name="Iacute" />
      <glyph
         id="glyph1970"
         d="M100 2340l366 545q19 -154 61 -294q18 -60 42.5 -123t57.5 -122t74.5 -111t93.5 -90M444 2310q-47 -512 -78 -948q-8 -124 -16 -250t-13.5 -246t-9 -230t-3.5 -203.5t3.5 -166t11.5 -116.5l165 75"
         horiz-adv-x="866"
         unicode="Î"
         glyph-name="Icircumflex" />
      <glyph
         id="glyph1972"
         d="M352 2310q27 -373 33 -754q2 -162 0 -341.5t-11 -364t-27 -366.5t-47 -349M144 2817q-21 -15 -30 -29t-7.5 -26t11.5 -21.5t26 -16.5q4 -2 10 -2q13 0 21 13t11 29.5t1 32t-9 20.5M668 2817q-21 -15 -30 -29t-7.5 -26t11.5 -21.5t26 -16.5q4 -2 10 -2q13 0 21 13 t11 29.5t1 32t-9 20.5"
         horiz-adv-x="883"
         unicode="Ï"
         glyph-name="Idieresis" />
      <glyph
         id="glyph1974"
         d="M100 2893q30 -42 65.5 -83.5t73.5 -81t76.5 -75.5t74.5 -68q85 -75 173 -141M130 2340q-20 -535 -1 -993q6 -130 15 -262t23.5 -258t35 -242.5t48 -215.5t62.5 -176t79 -125"
         horiz-adv-x="497"
         unicode="Ì"
         glyph-name="Igrave" />
      <glyph
         id="glyph1976"
         d="M1643 2968q-139 -6 -269 -60q-55 -23 -114 -59t-115 -89.5t-107 -125.5t-90 -167M776 2153q-85 -46 -167 -122.5t-155.5 -174t-136.5 -213t-109.5 -240t-74.5 -254.5t-32 -257t18 -247.5t75 -225.5q44 -87 110 -150.5t148 -104.5t176 -60.5t195 -19.5q94 0 191.5 16 t193 47t187 76t173.5 102t152.5 126t124.5 148q75 110 111 241.5t38.5 272.5t-27 284.5t-85 276.5t-134.5 249.5t-177 202.5t-212 135.5t-239 49.5q-69 0 -140 -16.5t-144 -51.5"
         horiz-adv-x="2094"
         unicode="Ó"
         glyph-name="Oacute" />
      <glyph
         id="glyph1978"
         d="M461 2340q35 59 78 114t89 105t93 94t90 81q103 87 210 159q28 -138 81 -270q23 -56 53.5 -117t70.5 -120.5t89.5 -115t109.5 -102.5M835 2310q-111 -98 -211.5 -219t-185.5 -256t-152 -280.5t-111 -292.5t-63 -292.5t-7 -280t56.5 -255t127.5 -217.5q39 -46 92 -79.5 t117 -56t137.5 -33.5t152.5 -11q105 0 217.5 19t223.5 56t216.5 92t198 126t167.5 158.5t124.5 189.5t69.5 219t3 247q-26 194 -80.5 337t-129.5 244.5t-165.5 166t-188.5 101.5t-198 50.5t-194 13.5q-66 0 -126 -4.5t-114 -11.5"
         horiz-adv-x="2103"
         unicode="Ô"
         glyph-name="Ocircumflex" />
      <glyph
         id="glyph1980"
         d="M774 2930l186 -314M819 2310q-77 -48 -158 -132t-158.5 -194t-147 -241t-123.5 -272t-88.5 -286.5t-41.5 -285t17 -267.5t87 -235q45 -77 109.5 -134t142.5 -94.5t167.5 -56t185.5 -18.5q112 0 228.5 25t229 74.5t217 122.5t192.5 169t155.5 214.5t105.5 257.5 q45 163 30.5 294.5t-71 234t-148 177t-201.5 123t-231 72t-237 23.5q-121 0 -226 -24t-179 -70"
         horiz-adv-x="2088"
         unicode="Ò"
         glyph-name="Ograve" />
      <glyph
         id="glyph1982"
         d="M900 2429q-105 -103 -203 -240q-42 -58 -86 -130t-86.5 -156t-80.5 -180.5t-68 -204.5M160 1996q-22 -100 -36.5 -217.5t-20 -245t-2 -260t16.5 -261t35.5 -249t55.5 -223t76.5 -184t98.5 -131.5q61 -57 150.5 -87t195.5 -30q92 0 190.5 25t196.5 78t190 135.5 t170 198.5t137.5 267t92.5 340q35 203 33 367t-28 291.5t-71 220t-97 152t-104.5 88t-94.5 28.5q-36 0 -59.5 -20t-27.5 -59"
         horiz-adv-x="1838"
         unicode="Ú"
         glyph-name="Uacute" />
      <glyph
         id="glyph1984"
         d="M386 1936q103 194 187 358q36 70 71 140t63.5 130t48.5 105.5t26 66.5q96 -55 167 -145q31 -38 59 -87.5t48.5 -111t29.5 -136t2 -163.5M139 2325q-6 -95 -14.5 -212t-15 -248t-9 -273.5t4 -289.5t25 -294.5t53 -289.5t88 -274.5t130.5 -248.5q49 -75 109.5 -108.5 t129.5 -33.5q90 0 189 54.5t196.5 150t188.5 227t166 285t128 324t75 344t7 344.5t-76 326"
         horiz-adv-x="1707"
         unicode="Û"
         glyph-name="Ucircumflex" />
      <glyph
         id="glyph1986"
         d="M690 2512q75 -88 144 -195q30 -46 61 -101t60.5 -117.5t56 -131.5t45.5 -143M182 2048q-10 -122 -24.5 -261.5t-27.5 -287t-22 -297.5t-8 -293t16 -273.5t49.5 -239t91.5 -189t142 -124.5q80 -40 183 -40q100 0 216 37t235.5 110.5t236.5 183.5t218.5 255t182 325.5 t127 395.5t53 464.5t-39.5 532.5"
         horiz-adv-x="2005"
         unicode="Ù"
         glyph-name="Ugrave" />
      <glyph
         id="glyph1988"
         d="M257 763q-24 -64 -43 -131t-35 -133t-27.5 -128t-20.5 -118q-21 -130 -31 -252"
         horiz-adv-x="389"
         unicode="ı"
         glyph-name="dotlessi" />
      <glyph
         id="glyph1990"
         d="M200 1742l605 620l598 -612"
         horiz-adv-x="1607"
         unicode="ˆ"
         glyph-name="circumflex" />
      <glyph
         id="glyph1992"
         d="M100 2101q72 72 148 127.5t152.5 93.5t151 58t142.5 20q104 0 185 -48.5t125 -153.5q30 -71 66.5 -115.5t75 -69.5t77 -34t71.5 -9q23 0 42.5 3t33.5 7q17 4 30 9"
         horiz-adv-x="1466"
         unicode="˜"
         glyph-name="tilde" />
      <glyph
         id="glyph1994"
         d="M496 150q-44 16 -69.5 36t-36 40t-9 39t12 33.5t26.5 23.5t33 9q19 0 37 -12t30 -40t15 -74t-9 -114q-21 -121 -48 -202.5t-73.5 -133t-119.5 -79t-185 -41.5"
         horiz-adv-x="636"
         unicode="¸"
         glyph-name="cedilla" />
      <glyph
         id="glyph1996"
         d="M100 1271l75 -187l364 231"
         horiz-adv-x="0"
         unicode="ˇ"
         glyph-name="caron" />
      <glyph
         id="glyph1998"
         d="M865 2908l403 -486l531 418M1844 2145q-116 35 -246.5 53.5t-265.5 18.5q-145 0 -285.5 -21.5t-260 -65.5t-209.5 -110.5t-134 -156.5q-43 -88 -48.5 -158t21.5 -125t83.5 -96.5t138 -72t184.5 -52t222 -36.5q179 -22 330.5 -56.5t265.5 -94t186 -151t92 -228.5 q13 -87 -21 -170.5t-103.5 -157.5t-168.5 -136t-216.5 -106.5t-248 -69.5t-261.5 -25q-118 0 -233 22.5t-217.5 71t-189.5 125t-149 184.5"
         horiz-adv-x="2022"
         unicode="Š"
         glyph-name="Scaron" />
      <glyph
         id="glyph2000"
         d="M332 2407l426 -433l523 381M1348 1361q-7 68 -27.5 114.5t-51 74.5t-70 40t-86.5 12q-41 0 -86.5 -8t-93.5 -21t-98 -29.5t-100 -33.5q-53 -18 -111 -48t-112 -67.5t-100.5 -80.5t-76.5 -86.5t-40 -86t9 -79.5t70.5 -66t143.5 -46q185 -34 321.5 -76t225.5 -99 t131.5 -131t39.5 -172q-2 -64 -48 -119.5t-125 -96.5t-185 -65t-228 -24q-131 0 -271.5 31t-278.5 102"
         horiz-adv-x="1433"
         unicode="š"
         glyph-name="scaron" />
      <glyph
         id="glyph2002"
         d="M90 2594q36 -84 54.5 -174t25.5 -180t5 -177t-6 -164.5t-6.5 -143.5t2 -113.5t20 -74.5t47.5 -27M120 1010q10 -61 14 -140.5t4 -167t-2.5 -179.5t-7.5 -178q-11 -203 -31 -419"
         horiz-adv-x="282"
         unicode="¦"
         glyph-name="brokenbar" />
      <glyph
         id="glyph2004"
         d="M100 1159q272 92 535 165q112 31 233.5 60.5t241 52.5t232.5 37t207 14M623 143q-32 174 -31.5 354.5t17.5 361.5t43 360t45 350t23 331.5t-22 304.5M601 2250q83 36 177 54t194 18q91 0 182 -15t178 -44.5t165.5 -74.5t144.5 -104.5t115 -133.5t77 -163 q35 -113 78 -227t84 -225.5t74 -220t47 -210.5t4 -197t-55.5 -180.5t-131.5 -159.5t-223.5 -134.5t-332 -106t-456.5 -73.5"
         horiz-adv-x="2262"
         unicode="Ð"
         glyph-name="Eth" />
      <glyph
         id="glyph2006"
         d="M180 1794q155 86 319 172q70 36 148.5 76t160.5 80t165.5 78.5t162.5 72.5M262 2422q79 -63 166.5 -142t176 -173.5t173.5 -205.5t158.5 -239.5t131 -274.5t91.5 -310q42 -208 20 -375.5t-94.5 -285.5t-187.5 -181.5t-258 -63.5q-108 0 -227 39q-94 31 -161.5 96.5 t-105.5 152.5t-44 190t22 208.5t93 207t169.5 187t250.5 147.5t336 89"
         horiz-adv-x="1350"
         unicode="ð"
         glyph-name="eth" />
      <glyph
         id="glyph2008"
         d="M892 2781q-68 -81 -128 -165q-25 -36 -51.5 -75.5t-50.5 -81t-43.5 -83.5t-32.5 -81M100 2287q90 -149 177 -283q37 -57 76.5 -117t78 -116t74.5 -104t65 -82q146 98 289 217q60 50 126 110t131 127t126 141t113 152M571 1585q30 -266 44 -519q6 -108 9 -223.5t1 -228 t-11.5 -216.5t-27.5 -188l60 -142"
         horiz-adv-x="1491"
         unicode="Ý"
         glyph-name="Yacute" />
      <glyph
         id="glyph2010"
         d="M1206 2429l-546 -485M100 1533q130 -216 261 -430q56 -91 118 -190.5t125 -199t125 -196t118 -180.5M1602 1555q-305 -497 -551 -923q-70 -121 -139.5 -244t-134 -240.5t-121 -226t-101 -200.5t-73.5 -164t-38 -117"
         horiz-adv-x="1723"
         unicode="ý"
         glyph-name="yacute" />
      <glyph
         id="glyph2012"
         d="M713 2362q-12 -197 -33 -421q-9 -96 -20.5 -207t-26 -232.5t-32 -251.5t-38.5 -263q-42 -266 -55.5 -444t-12.5 -285q1 -126 16 -197M593 1645q54 5 106.5 7.5t106.5 2.5q129 0 253.5 -18.5t241.5 -64.5t225 -123t203 -193q-203 -118 -456 -219q-108 -43 -237 -86.5 t-277.5 -81.5t-313.5 -68t-345 -45"
         horiz-adv-x="1839"
         unicode="Þ"
         glyph-name="Thorn" />
      <glyph
         id="glyph2014"
         d="M200 2415q6 -670 13 -1252q2 -165 4 -334t4 -331.5t4 -314.5t4 -283.5t4 -237.5t4 -177M267 1361q165 154 329 228t308 74q88 0 164.5 -27.5t135 -82t97 -134.5t50.5 -185q12 -103 15 -211.5t-12 -211t-53 -193t-107 -159t-174 -108t-255 -39.5q-106 0 -234.5 22 t-285.5 70"
         horiz-adv-x="1516"
         unicode="þ"
         glyph-name="thorn" />
      <glyph
         id="glyph2016"
         d="M205 1555q112 -67 212.5 -126t196 -109.5t189 -92t191.5 -74t203.5 -55.5t225.5 -36M1288 1802q-54 -64 -134 -145.5t-174 -170t-195.5 -180.5t-199.5 -178q-229 -203 -485 -417"
         horiz-adv-x="1501"
         unicode="×"
         glyph-name="multiply" />
      <glyph
         id="glyph2018"
         d="M533 2190q61 45 113 89q22 18 44.5 38t41.5 40t34 38.5t22 33.5q-61 -227 -107 -425q-19 -84 -37.5 -170.5t-32 -164t-21 -140.5t-4.5 -101M100 1428q49 20 109.5 36.5t126 30t132.5 24.5t130 19q147 20 302 32"
         horiz-adv-x="1007"
         unicode="¹"
         glyph-name="uni00B9" />
      <glyph
         id="glyph2020"
         d="M365 2310q80 74 166 108.5t165 34.5q69 0 127.5 -24.5t98.5 -70t56 -110.5t0 -147q-14 -72 -48 -148t-82.5 -148t-108.5 -135.5t-126 -111t-135 -75t-136 -27.5q-37 0 -72.5 9.5t-68.5 29.5q-61 37 -85.5 82.5t-8.5 85.5t74 67t163 27q78 0 181.5 -18t235.5 -60 t292.5 -111t350.5 -170"
         horiz-adv-x="1520"
         unicode="²"
         glyph-name="uni00B2" />
      <glyph
         id="glyph2022"
         d="M197 2407q74 -8 154 -15q69 -5 152.5 -10t164.5 -5t120 -29.5t21.5 -77t-98 -107.5t-237.5 -122l216 -344q-76 -58 -169 -113q-79 -48 -186.5 -98.5t-234.5 -87.5"
         horiz-adv-x="936"
         unicode="³"
         glyph-name="uni00B3" />
      <glyph
         id="glyph2024"
         d="M332 2287q13 -233 9 -449q-1 -92 -6 -189.5t-15.5 -190t-27.5 -175.5t-43 -146M1445 2429q-319 -467 -591 -906q-77 -125 -155.5 -256t-153 -263t-143.5 -261t-127 -249.5t-103 -230t-72 -202.5M1176 1122q48 26 96.5 38t97.5 12q62 0 121 -19t109 -54.5t89 -86.5 t61.5 -114.5t26 -139t-17.5 -159.5q-26 -106 -77 -184.5t-114 -133t-131.5 -89t-129.5 -54t-108.5 -26.5t-67.5 -7t-32.5 10.5t-11.5 27t17 35.5t52 36.5t94 30.5t143 17q55 2 119 4.5t135 2.5q119 0 252 -8t270 -31t272.5 -63.5t258.5 -105.5"
         horiz-adv-x="2660"
         unicode="½"
         glyph-name="onehalf" />
      <glyph
         id="glyph2026"
         d="M1326 2373q-181 -355 -382 -695q-85 -145 -183.5 -300.5t-204.5 -308t-217 -294t-223 -257.5M191 2241l-91 -937M1145 1315q-61 -72 -113 -144q-22 -31 -45 -65.5t-43.5 -69t-36.5 -69t-25 -65.5q129 32 283 79q131 41 304.5 102t371.5 146M1525 1733 q-54 -153 -98 -303t-82.5 -289t-75 -264t-76.5 -227q-20 -51 -37.5 -105t-32.5 -108t-28 -105.5t-23 -97.5q-23 -108 -40 -211"
         horiz-adv-x="1944"
         unicode="¼"
         glyph-name="onequarter" />
      <glyph
         id="glyph2028"
         d="M100 2279q28 5 63.5 7.5t76.5 2.5q63 0 132 -6t133.5 -19t118 -32t84.5 -45.5t33.5 -60t-34.5 -75t-120 -90t-224 -105.5q227 -64 302 -143q22 -22 30.5 -47t-1.5 -53t-42.5 -58t-93.5 -62t-154 -66t-224 -69M2200 2413q-257 -456 -528 -891q-77 -124 -161 -254.5 t-172.5 -262.5t-180 -262.5t-184 -254t-184.5 -237t-181 -212.5M2007 1213l-219 -408l809 183M2393 1615q-74 -271 -137 -517q-27 -105 -54 -215t-50.5 -213t-42 -192.5t-27.5 -154.5"
         horiz-adv-x="2757"
         unicode="¾"
         glyph-name="threequarters" />
      <glyph
         id="glyph2030"
         glyph-name="_232" />
      <glyph
         id="glyph2032"
         glyph-name="_233" />
      <glyph
         id="glyph2034"
         d="M100 2333q84 -2 183 -3q85 -2 198 -3t242 -1q126 0 261 1.5t265 5.5t249 10t215 16"
         horiz-adv-x="1838"
         unicode="¯"
         glyph-name="macron" />
      <glyph
         id="glyph2036"
         d="M100 2333q84 -2 183 -3q85 -2 198 -3t242 -1q126 0 261 1.5t265 5.5t249 10t215 16"
         horiz-adv-x="1838"
         unicode="ˉ"
         glyph-name="macron" />
      <glyph
         id="glyph2038"
         d="M520 589q-11 23 -33 33t-51 10q-42 0 -95 -19t-109.5 -49.5t-111 -70t-99 -80.5t-75 -80.5t-37.5 -70t13.5 -49.5t76.5 -19q23 0 51 3q108 13 186.5 21t135.5 8q64 0 101.5 -13t56.5 -45t23 -85.5t1 -134.5q-2 -58 -11.5 -144t-26 -190t-40.5 -221t-55 -237t-69.5 -237 t-84 -222t-98.5 -193t-113 -148q-66 -66 -129 -97t-120 -31q-74 0 -129 49t-81.5 136t-18 207.5t62.5 263.5q49 129 174.5 278t332.5 301.5t498.5 299.5t672 272t852 218.5t1039.5 139.5"
         horiz-adv-x="3210"
         unicode="Ă"
         glyph-name="Abreve" />
      <glyph
         id="glyph2040"
         d="M1016 669q133 100 219.5 196.5t134 186t60.5 170.5t-1 150t-51.5 125t-90 95.5t-116.5 60.5t-132 21q-49 0 -98 -11.5t-96 -37.5q-113 -61 -187.5 -124.5t-121 -129.5t-70.5 -136t-36 -144.5t-17.5 -153.5t-16 -164.5t-30.5 -177t-60.5 -190.5t-107.5 -206t-171 -223 q133 35 280 63q63 12 135 23t149.5 19.5t159 14t163.5 5.5q144 0 279 -20.5t245 -71.5M0 795l904 72"
         horiz-adv-x="1529"
         unicode="₤"
         glyph-name="lira" />
      <glyph
         id="glyph2042"
         glyph-name="glyph233" />
      <glyph
         id="glyph2044"
         glyph-name="glyph234" />
      <glyph
         id="glyph2046"
         horiz-adv-x="1541"
         unicode=" "
         glyph-name="uni00A0" />
      <glyph
         id="glyph2048"
         glyph-name="glyph239" />
      <glyph
         id="glyph2050"
         glyph-name="glyph240" />
      <glyph
         id="glyph2052"
         glyph-name="ch739" />
      <glyph
         id="glyph2054"
         glyph-name="onefitted" />
      <glyph
         id="glyph2056"
         glyph-name="glyph231" />
      <glyph
         id="glyph2058"
         glyph-name="glyph232" />
      <glyph
         id="glyph2060"
         glyph-name="ch291" />
      <glyph
         id="glyph2062"
         glyph-name="ch744" />
      <glyph
         id="glyph2064"
         d="M1386 2437q-195 -89 -343.5 -224t-250 -330.5t-155.5 -458.5t-62 -610q-4 -203 20 -346t77 -233t136 -131.5t196 -41.5q80 0 175.5 19t206.5 54t238 85t270 113M133 1355q44 10 120.5 19.5t172 18.5t203.5 16.5t214 14.5q248 16 536 30M100 979q115 5 230 11.5 t224.5 14t211.5 15.5t190 15q209 17 397 36"
         horiz-adv-x="2020"
         unicode="€"
         glyph-name="Euro" />
      <glyph
         id="glyph2066"
         glyph-name="glyph248" />
      <glyph
         id="glyph2068"
         glyph-name="ch746" />
      <glyph
         id="glyph2070"
         glyph-name="ch747" />
      <glyph
         id="glyph2072"
         glyph-name="glyph4" />
      <glyph
         id="glyph2074"
         glyph-name="glyph5" />
      <glyph
         id="glyph2076"
         d="M600 359q-39 -45 -82 -93t-88 -94t-91 -86.5t-90 -71t-85 -48.5t-77 -18q-52 0 -87 42"
         horiz-adv-x="617"
         unicode="░"
         glyph-name="ltshade" />
      <glyph
         id="glyph2078"
         d="M700 359q-39 -45 -82 -93t-88 -94t-91 -86.5t-90 -71t-85 -48.5t-77 -18q-52 0 -87 42"
         horiz-adv-x="800"
         unicode="▒"
         glyph-name="shade" />
      <glyph
         id="glyph2080"
         d="M100 132q27 -55 93.5 -92t166.5 -37q67 0 147 21t171 69.5t191 127.5t207 194"
         horiz-adv-x="1100"
         unicode="▓"
         glyph-name="dkshade" />
      <glyph
         id="glyph2082"
         horiz-adv-x="8"
         unicode="│"
         glyph-name="SF110000" />
      <glyph
         id="glyph2084"
         horiz-adv-x="8"
         unicode="┤"
         glyph-name="SF090000" />
      <glyph
         id="glyph2086"
         d="M100 -103q37 53 96.5 130.5t131.5 167.5t151.5 187.5t156.5 191.5q181 220 387 464q-48 -264 -57 -471q-3 -88 1.5 -172.5t23.5 -151t53.5 -107t91.5 -40.5q33 0 75 16.5t93 52t112.5 92t133.5 136.5"
         horiz-adv-x="1550"
         unicode="╡"
         glyph-name="SF190000" />
      <glyph
         id="glyph2088"
         d="M123 568q38 26 83 62t93 77t97 84.5t94 85.5q107 97 218 204q44 -186 35 -354q-4 -72 -19.5 -147t-49 -145t-88.5 -130.5t-138 -103.5M1555 393q-63 -46 -148.5 -102t-186 -104.5t-212 -81t-227.5 -32.5q-88 0 -177 23.5t-174.5 78t-166 143.5t-152.5 220l-181 -452  "
         horiz-adv-x="1555"
         unicode="╢"
         glyph-name="SF200000" />
      <glyph
         id="glyph2090"
         d="M0 393l651 495q30 -110 50 -219q8 -47 15 -98t11 -102.5t3.5 -101.5t-7.5 -94q-8 -51 -33 -89t-61 -63.5t-79 -38t-87 -12.5q-65 0 -122 26t-88 80q-27 47 -42.5 81.5t-16 57.5t17 34t57.5 11q54 0 159 -21q57 -11 157.5 -25.5t231 -27t283.5 -21.5t315 -9q128 0 257.5 7 t253.5 22.5t239.5 42t215.5 65.5"
         horiz-adv-x="2380"
         unicode="╖"
         glyph-name="SF210000" />
      <glyph
         id="glyph2092"
         d="M468 737q38 -36 67.5 -79t45.5 -88.5t15 -92t-24 -90t-72 -82t-129 -68.5q-54 -20 -102 -29.5t-90 -9.5q-71 0 -118 25t-63 68.5t3 101t81 121.5q41 43 74.5 76t66 58.5t68.5 43.5t81.5 30t104.5 19.5t138 10.5q51 2 115 4t134 2q97 0 196 -4.5t181.5 -17t138 -34 t64.5 -55.5M1300 381q42 80 91 156.5t98 136t94.5 96t79.5 36.5q35 0 54.5 -44t16.5 -145q-2 -65 1 -134.5t14 -136t31.5 -126t54 -104t81.5 -70.5t113 -26q54 0 120.5 20t148 64.5t178 115.5t210.5 173"
         horiz-adv-x="2685"
         unicode="╕"
         glyph-name="SF220000" />
      <glyph
         id="glyph2094"
         d="M434 966q-81 -62 -150.5 -134t-125 -148t-96 -152.5t-63.5 -147t-28 -132t11 -108t53 -75t98 -31.5q8 -1 14.5 -1q80 0 164 23t161 64.5t141.5 100.5t106.5 130t55 152.5t-12 169.5q-15 51 -35.5 90.5t-44 70t-48.5 52t-49 36.5q-56 35 -118 46q11 -3 27 -6 q14 -2 35 -4t50 -2q55 0 139.5 10t202.5 40t272 84.5t347 142.5q-132 -297 -183 -529q-15 -66 -23.5 -131t-7 -124t14.5 -109.5t41 -87t73.5 -57.5t110.5 -21q95 0 237.5 50t343.5 165"
         horiz-adv-x="2163"
         unicode="╣"
         glyph-name="SF230000" />
      <glyph
         id="glyph2096"
         d="M311 731q38 27 81 40t85 13q53 0 99.5 -21t73.5 -61.5t29.5 -101t-31.5 -140.5q-20 -46 -55.5 -87.5t-80.5 -76.5t-97.5 -63t-106.5 -47.5t-106 -30t-97 -10.5q-40 0 -72.5 9t-53 28.5t-26 49.5t7.5 71q24 77 66 130t93.5 86t107.5 47.5t108 14.5q42 0 79 -8.5t64 -22.5 t88 -14t147 12.5t186 33.5t207 48t209 55q241 65 507 148q-57 -111 -133 -206q-32 -40 -72 -81.5t-87 -78t-100.5 -65.5t-113.5 -45q-51 -13 -87 -13q-47 0 -63.5 17t-2 37.5t60.5 37.5t124 17q58 0 132 -12t168 -42q135 -43 237 -59.5t177 -16.5q73 0 122 11t79 24 q35 15 56 35"
         horiz-adv-x="2319"
         unicode="║"
         glyph-name="SF240000" />
      <glyph
         id="glyph2098"
         d="M443 888q-96 -45 -177 -118t-142.5 -157t-100.5 -170.5t-52.5 -160t1 -125t61.5 -65.5q18 -5 39 -5q42 0 98 16.5t119 46t128.5 69t126 86t113 97.5t89 102.5t53 101.5t5.5 95q-12 49 -34 84t-48 58t-54 34t-52 11q-22 0 -37.5 -9.5t-19 -27t6.5 -43.5t40 -59 q20 -23 61.5 -33t98.5 -10q70 0 158.5 13t185.5 35t198 49.5t196 56.5q222 68 458 154M1707 926q-68 -47 -129.5 -105t-114 -122t-93.5 -129.5t-68 -127t-37.5 -116t-1.5 -94.5t39 -63.5t84 -23.5q30 0 64 7q72 15 154.5 39.5t167 56t167.5 69.5t156 80t132.5 87t97.5 91 t50 91.5t-9 88.5q-23 45 -63.5 63t-91.5 18q-37 0 -77.5 -8t-82 -20.5t-82 -29t-77.5 -33.5q-86 -41 -171 -92"
         horiz-adv-x="2436"
         unicode="╗"
         glyph-name="SF250000" />
      <glyph
         id="glyph2100"
         d="M27 397q29 -13 59 -13q55 0 109.5 40.5t109 111t108.5 166t107 205t104 228.5t100 237q32 78 64 167.5t61.5 182.5t55 185.5t45.5 177.5t32.5 158.5t16.5 127t-2.5 84.5t-25.5 31q-17 0 -46.5 -30t-72.5 -98q-45 -71 -104 -182.5t-127 -254t-143 -312.5t-152 -357.5 t-154 -388t-149 -405t-136.5 -407.5t-117.5 -396.5t-91.5 -372t-57.5 -332.5q-25 -198 -30.5 -338t7 -229.5t41.5 -130.5t74 -41q43 0 99 34t124 97t147.5 152t169.5 199q92 112 144.5 232t74.5 240t18.5 237.5t-21.5 226t-46.5 204t-56.5 172.5t-50.5 131t-30.5 79 q-17 59 -34.5 83.5t-31.5 24.5q-17 0 -28 -27.5t-11.5 -68.5t11 -88.5t40 -88.5t76.5 -68.5t119 -27.5q45 0 100 13t121.5 42.5t144.5 77.5t169 117M2243 392q-191 -133 -336 -236.5t-253 -174t-182.5 -107.5t-125.5 -37q-53 0 -84 40t-51 125q-18 78 -17.5 147t14 120.5 t36 81.5t47.5 30q29 0 57.5 -46t44.5 -151q11 -72 17 -165.5t2 -202.5t-20 -230t-48 -247.5t-82.5 -256t-123.5 -254.5t-170.5 -243t-224.5 -222q-44 153 -47 388q-1 100 6.5 227.5t29.5 284t60 343.5t98 405t121.5 429.5t121 409t115.5 377.5t105 334q115 363 222 679 q53 -497 15 -915q-11 -119 -31.5 -238.5t-53.5 -233t-79.5 -216.5t-110 -188.5t-145 -149t-184.5 -98.5"
         horiz-adv-x="2242"
         unicode="╝"
         glyph-name="SF260000" />
      <glyph
         id="glyph2102"
         d="M633 816q-27 53 -60 75.5t-71 22.5q-39 0 -81 -20.5t-84.5 -53.5t-84.5 -75.5t-81 -86t-73.5 -85t-62.5 -72.5q-26 -29 -37.5 -56.5t-8 -48.5t21.5 -34t51 -13q36 0 90 18.5t125.5 61.5t160.5 114t195 175q-27 -90 -36 -191q-3 -43 -3 -93t6.5 -104t20.5 -111.5 t38 -116.5q33 -78 54.5 -173.5t24 -199t-19 -211.5t-74.5 -211.5t-143 -197t-224 -169.5q-161 -91 -304.5 -134t-252.5 -43q-83 0 -140.5 24.5t-80 71t-6 115t81.5 157.5q54 73 141 154.5t197 168.5t237 178t259.5 184t265.5 185.5t254 183t226 176.5t181 166M1535 677 q-37 -1 -72.5 -27t-68 -67t-60 -92.5t-47.5 -105.5t-31.5 -105.5t-11 -91.5t13.5 -64.5t41 -24.5q17 0 39 9.5t50 30.5q55 41 96 84t70 85t48 83t31 77q27 85 24 166q-33 -436 -71 -831q-10 -112 -22 -228.5t-24.5 -231t-25.5 -225t-27 -210t-28 -186t-28 -153.5 q-21 -101 -59 -179.5t-85 -132t-99 -81t-102 -27.5t-94 28t-75 86.5t-45.5 147t-4.5 210.5t48.5 252t99 261.5t139.5 262t170 253.5t190 235.5t199.5 208.5t199 172t187.5 127"
         horiz-adv-x="2100"
         unicode="╜"
         glyph-name="SF270000" />
      <glyph
         id="glyph2104"
         d="M38 568q121 134 217 290.5t169 321.5t124.5 331.5t84 320t46.5 286.5t13 231t-16.5 154.5t-42.5 56.5q-20 0 -45 -32.5t-55 -103.5q-36 -85 -80 -205t-91.5 -263t-95 -302.5t-91 -323t-79.5 -324.5t-59.5 -307.5t-32.5 -272t1.5 -217.5t44 -144t94.5 -52q55 0 128 44 q159 93 316 197t303.5 223.5t279 257t241.5 298t191 347t127 403.5q33 157 44 293t5 248.5t-25 200t-46 147.5t-59.5 91.5t-63.5 31.5q-36 0 -66.5 -41.5t-48.5 -129.5q-13 -64 -27 -162t-28 -221t-27.5 -264.5t-25.5 -292t-22.5 -305t-18.5 -301.5t-13 -283t-6.5 -249 t1.5 -199t11 -134q10 -60 25 -110.5t37 -88t53 -58.5t72 -21q42 0 96 24.5t123 79.5t153 142t186 212"
         horiz-adv-x="2059"
         unicode="╛"
         glyph-name="SF280000" />
      <glyph
         id="glyph2106"
         d="M0 393q49 36 96 52.5t91 16.5q49 0 92 -17t79 -45.5t62.5 -66.5t41.5 -79.5t17.5 -84t-11.5 -80.5M399 -110q17 64 50.5 135.5t77.5 142t95.5 135t105 113.5t105 78.5t95.5 29.5q28 0 52 -13.5t42 -42.5t30 -75.5t15 -112.5q4 -62 -2.5 -116.5t-15.5 -96.5 q-11 -49 -25 -90q100 158 188 283q38 53 76.5 104t73 91t63 64t46.5 24q15 0 20.5 -18.5t0.5 -62.5q-11 -83 -10.5 -146t15.5 -105t46 -63.5t81 -21.5q53 0 127 23t175 70q147 69 266.5 134t204.5 117q100 60 179 114M2524 618q65 -13 113 -56t67.5 -106t5.5 -142t-73 -164 q152 164 284 294q56 55 113.5 107.5t109 94t93 66.5t65.5 25q22 0 26.5 -25t-15.5 -85q-33 -98 -57 -169.5t-38 -118t-16 -69t10 -22.5q14 0 49 30.5t96 88.5q54 52 106.5 102.5t96.5 90t77.5 64t51.5 24.5t16.5 -28.5t-27.5 -96.5q-24 -63 -39 -120t-12 -99.5t28 -68 t80 -25.5q66 0 182.5 42.5t296.5 140.5"
         horiz-adv-x="4214"
         unicode="┐"
         glyph-name="SF030000" />
      <glyph
         id="glyph2108"
         d="M0 393q106 65 180.5 95.5t116.5 30.5q77 0 41.5 -98t-191.5 -279q135 160 253 285q50 54 101.5 105t97.5 91t84 64.5t60 24.5t26.5 -27.5t-15.5 -91.5q-40 -136 -62 -240.5t-14 -176t52 -108.5t135 -37q82 0 174 22t187.5 59t191 85.5t184.5 102.5t167 109.5t139 105.5 q50 -27 98 -62q20 -15 42 -33.5t43.5 -40t41.5 -46.5t36 -53M2116 3q7 57 47 125t100 137.5t133 134.5t144.5 115.5t135.5 81t106 30.5t55 -36.5t-18 -119.5q-29 -78 -34.5 -135t8.5 -94.5t45.5 -55.5t76.5 -18q41 0 92.5 15t109 43.5t121 70.5t128.5 96"
         horiz-adv-x="3366"
         unicode="└"
         glyph-name="SF020000" />
      <glyph
         id="glyph2110"
         d="M84 642q-41 -123 -86.5 -261t-93.5 -284.5t-98.5 -298.5t-102.5 -303.5t-104.5 -299.5t-104.5 -287q-71 -188 -125.5 -273t-85.5 -85q-19 0 -27.5 28.5t-4.5 82t21 129t49 170.5q22 64 58.5 153.5t85.5 195t108.5 223t126.5 237.5t140 238.5t149.5 225.5t154 199 t153.5 159.5t149.5 105.5t140.5 38q51 0 96 -23q27 -14 30.5 -38.5t-12.5 -57.5t-48.5 -72t-75.5 -82t-95 -88t-108 -90q-196 -158 -472 -344q3 0 7 -1q42 0 142.5 9.5t252.5 47t353.5 112.5t445.5 205M414 -1587q202 582 400 1079q56 141 115.5 284.5t120.5 280.5 t121.5 263t119 232.5t113 189.5t103.5 134q41 43 77 62t67 19q43 0 74 -32.5t48.5 -85.5t21 -121t-10 -139t-45 -139t-82 -121t-121.5 -85.5t-165 -32.5q-78 0 -168 25q34 -23 82 -40q42 -16 103 -28.5t142 -12.5q66 0 145.5 11.5t172 39.5t197.5 76t223 121"
         horiz-adv-x="2268"
         unicode="┴"
         glyph-name="SF070000" />
      <glyph
         id="glyph2112"
         d="M0 394q53 69 107 135.5t106 126.5t101 111t91 88.5t76.5 58.5t56.5 21q31 0 37 -43.5t-20 -142.5q-31 -117 -51 -205t-21.5 -147t18 -88.5t67.5 -29.5q65 0 204 62q87 39 171.5 82t160.5 88t140.5 91.5t112 92.5t74 90.5t26.5 85.5q0 43 -13 43q-8 0 -19.5 -19 t-20.5 -49.5t-14 -69.5t-0.5 -78.5t20 -76t47.5 -63.5q21 -17 54 -25t75 -8q47 0 103 8.5t115 22.5t118.5 32t114.5 36q128 44 261 99q-129 -165 -208 -295q-33 -55 -59 -108t-34.5 -94.5t4.5 -67t57 -25.5q30 0 77 14t113.5 45t154 80.5t199.5 120.5"
         horiz-adv-x="2601"
         unicode="┬"
         glyph-name="SF060000" />
      <glyph
         id="glyph2114"
         d="M0 395q147 95 249 175t166 140q76 70 123 127q-9 -147 -41 -271q-14 -53 -34.5 -106t-49 -98.5t-66.5 -80t-87 -51.5q-48 -16 -88 -16q-52 0 -84.5 21t-45 46t-4.5 46t38 21q17 0 41.5 -9t56.5 -31q39 -26 85.5 -37.5t96.5 -11.5q39 0 79.5 6t79.5 15.5t76 21.5t69 24 q76 29 146 67q63 30 121.5 65.5t110.5 74t97.5 78t83.5 76.5q89 86 160 176q58 -126 86 -239q12 -48 18 -98.5t2 -97.5t-20.5 -87t-50.5 -68q-36 -28 -105 -40t-150 -12q-65 0 -131 6t-122.5 14.5t-96.5 18.5t-53.5 18.5t5.5 14.5t82 6q33 0 79.5 -1.5t109.5 -6.5 q81 -6 154 -8.5t139 -2.5q196 0 331.5 17.5t219.5 39.5q99 24 160 56"
         horiz-adv-x="2036"
         unicode="├"
         glyph-name="SF080000" />
      <glyph
         id="glyph2116"
         d="M-1021 1266q-2 33 65.5 88.5t209.5 123.5t363 143.5t526.5 149.5t698.5 141.5t880 118.5t1071.5 81.5t1272.5 30.5q48 0 95.5 -0.5t96.5 -0.5M198 1034q87 165 147.5 300t95.5 231t47 148.5t1 52.5q-8 0 -27.5 -30.5t-49.5 -95.5t-70.5 -166t-91.5 -242 q-93 -258 -156 -466t-89.5 -355t-11 -226t79.5 -79q38 0 92 27.5t127 85.5q110 86 220.5 194t215 232t200.5 261t175.5 279.5t140.5 288t95 287.5q29 121 43 225t15 180.5t-11.5 120t-35.5 43.5q-18 0 -41 -27t-51.5 -86t-61.5 -152t-71 -224q-36 -126 -74.5 -261t-73 -270 t-63 -266t-43 -248t-13 -216.5t25.5 -171.5t74 -112.5t132 -40.5q71 0 167 33t223 105"
         horiz-adv-x="1479"
         unicode="─"
         glyph-name="SF100000" />
      <glyph
         id="glyph2118"
         d="M566 730q-5 99 -19.5 148t-50.5 49q-35 0 -95.5 -49.5t-157.5 -151.5q-57 -60 -112 -131t-98 -142.5t-68.5 -138.5t-24.5 -118.5t34.5 -82.5t109.5 -31q61 0 146 22q82 21 146 61t113.5 92t84.5 111.5t58 118.5t35.5 113.5t17 96t1 66.5t-11.5 25q-6 0 -13.5 -12.5 t-15.5 -41.5q-14 -46 -33 -110t-34 -133.5t-20.5 -138t8.5 -122.5t51.5 -87.5t109.5 -33.5q45 0 104.5 15t136 49t171.5 87.5t211 129.5"
         horiz-adv-x="1349"
         unicode="┼"
         glyph-name="SF050000" />
      <glyph
         id="glyph2120"
         d="M450 518q5 61 -15 90t-59 29q-48 0 -119 -38t-159 -110q-45 -36 -85.5 -80.5t-71 -89.5t-49 -87t-20 -74.5t16.5 -52.5t59 -20q48 0 129 31q65 25 116 54t90.5 59.5t68.5 61.5t49 59q48 66 66 134q-35 -79 -47 -141q-4 -27 -4 -52.5t8 -45.5t26 -32t49 -12q26 0 63 10 t86.5 32.5t112.5 59.5t142 90"
         horiz-adv-x="904"
         unicode="╞"
         glyph-name="SF360000" />
      <glyph
         id="glyph2122"
         d="M343 775q-141 -130 -241 -248t-150 -208t-48 -143t65 -53q50 0 138 38q65 29 122 75.5t104 103.5t83 120.5t59.5 125.5t33 118.5t4 99t-28 68t-62.5 25.5t-13 -2q-47 -9 -82 -47.5t-55 -95.5t-25 -127t7 -142t41.5 -139.5t78.5 -119.5t117.5 -83t158.5 -29t169 14.5 t146.5 32.5t123 45.5t100.5 51.5q105 60 178 137"
         horiz-adv-x="1355"
         unicode="╟"
         glyph-name="SF370000" />
      <glyph
         id="glyph2124"
         d="M49 408q35 25 82 72.5t100.5 112t112.5 145t118 172t115.5 192t107 205.5t91.5 213t68 214q37 144 61.5 262t31 202.5t-6 130.5t-50.5 46q-36 0 -97 -46t-150 -145q-55 -61 -116 -156t-122 -212.5t-119 -251.5t-107.5 -274.5t-88 -281t-60 -271t-23.5 -245t21.5 -202 t75 -142.5t136.5 -67q63 -9 122 -9q107 0 196.5 25.5t160.5 68.5t122.5 98.5t82 115.5t39.5 120.5t-4 112.5q37 -84 98 -150q26 -28 59 -55.5t75 -48.5t92.5 -34t110.5 -13q66 0 144 18.5t169 62.5"
         horiz-adv-x="1697"
         unicode="╚"
         glyph-name="SF380000" />
      <glyph
         id="glyph2126"
         d="M556 642q13 48 -1.5 72t-51.5 24q-52 0 -142 -47.5t-208 -147.5q-100 -85 -157 -155t-64 -124.5t38 -95.5t148 -70q37 -10 86 -10q58 0 125.5 13t139 34.5t143 49t137.5 56.5q155 67 314 152"
         horiz-adv-x="1063"
         unicode="╔"
         glyph-name="SF390000" />
      <glyph
         id="glyph2128"
         d="M475 630q-20 60 -50.5 86.5t-67.5 26.5q-43 0 -91.5 -30t-97 -79.5t-93 -113t-79.5 -130.5q-46 -87 -34.5 -153t66 -110.5t144.5 -67t202 -22.5q109 0 231.5 21.5t246.5 66t243 111.5t219 157"
         horiz-adv-x="1314"
         unicode="╩"
         glyph-name="SF400000" />
      <glyph
         id="glyph2130"
         d="M726 747q-38 63 -93 93t-119 30q-57 0 -118.5 -23t-121 -66.5t-113 -106.5t-95.5 -143q-49 -93 -79 -174t-37 -141.5t12 -95.5t68 -35q34 0 83 18.5t116 59.5q129 79 256 223t236 346.5t193 460.5t128 565q24 171 37.5 312.5t18 242t0.5 156t-14 55.5q-7 0 -18 -37.5 t-24 -118t-28 -205.5t-31 -300q-23 -264 -39 -471.5t-23 -370t-5 -284.5t14.5 -216.5t35.5 -166.5t58 -133q88 -153 211 -153q86 0 181.5 79.5t193.5 245.5"
         horiz-adv-x="1610"
         unicode="╦"
         glyph-name="SF410000" />
      <glyph
         id="glyph2132"
         d="M660 578q-48 79 -100 112t-108 33q-60 0 -121.5 -32t-121 -81.5t-114 -108t-101.5 -111.5q-37 -41 -71.5 -88.5t-61 -94.5t-42.5 -90.5t-15 -77t22 -53.5t68 -20q34 0 83 12.5t116 38.5q114 45 226.5 113.5t216.5 152.5t195 180.5t162 198.5t118.5 205t63.5 201 q24 147 11.5 312.5t-58 333.5t-122.5 329t-182 299q15 -184 18 -379q1 -83 -0.5 -176.5t-7.5 -192t-16.5 -199.5t-28.5 -198q-21 -119 -33 -241.5t-9 -236.5t24 -213.5t65 -174t113.5 -117t170.5 -42.5q105 0 246 52t324 169"
         horiz-adv-x="1590"
         unicode="╠"
         glyph-name="SF420000" />
      <glyph
         id="glyph2134"
         d="M78 313q171 201 238 302.5t37 101.5q-39 0 -218 -158q-83 -74 -120 -140t-37 -121.5t33 -99.5t89 -75t130.5 -47.5t158.5 -16.5q88 0 180.5 19t179 59.5t162 104t129.5 151.5"
         horiz-adv-x="1040"
         unicode="═"
         glyph-name="SF430000" />
      <glyph
         id="glyph2136"
         d="M17 317q139 72 239 128t166 101.5t101 82t42.5 68t-10 61.5t-54.5 61q-18 15 -46 15q-37 0 -85 -24.5t-99 -66t-100.5 -95t-90 -111.5t-67 -115.5t-32 -107t15 -86.5t74.5 -54q82 -25 185 -39t216 -14q107 0 218 14.5t215 47t196 84t162 126.5"
         horiz-adv-x="1263"
         unicode="╬"
         glyph-name="SF440000" />
      <glyph
         id="glyph2138"
         d="M-11 333q237 83 380.5 152t206 129t50 112.5t-87.5 102.5q-19 13 -39.5 18.5t-43.5 5.5q-53 0 -111.5 -30.5t-114 -81.5t-104.5 -116.5t-83.5 -135t-51 -138t-7 -125.5t49 -97t116.5 -52q51 -8 104.5 -12t109.5 -4q105 0 214.5 12.5t216 35t206.5 53.5t186.5 68 t155.5 78.5t115 84.5"
         horiz-adv-x="1457"
         unicode="╧"
         glyph-name="SF450000" />
      <glyph
         id="glyph2140"
         d="M145 647q243 243 395.5 492t225 497.5t72 493.5t-62.5 482q-177 -450 -349 -933q-74 -206 -154 -439.5t-160 -481t-155.5 -502.5t-140.5 -504q-49 -188 -58 -341.5t13.5 -274.5t70.5 -210t113.5 -147t142.5 -86.5t157 -28.5q92 0 180.5 36.5t159.5 107t117.5 175 t53.5 239.5q8 135 -9 262t-50 242.5t-80 218t-100 189t-109 155.5t-108 117t-95.5 73.5t-72.5 25.5q-37 0 -43 -41q-4 -34 12.5 -92.5t53.5 -126t94 -136.5t134 -125.5t172.5 -92t209.5 -35.5q92 0 196.5 27.5t220 91t242.5 166t265 252.5"
         horiz-adv-x="1699"
         unicode="╨"
         glyph-name="SF460000" />
      <glyph
         id="glyph2142"
         d="M264 830q160 165 284.5 309.5t215.5 280t149.5 268.5t86.5 274t26 296.5t-31 335.5q-11 68 -24 116t-26.5 78.5t-28.5 44.5t-31 14q-24 0 -49.5 -28.5t-52 -78t-53.5 -116.5t-54.5 -143.5t-54 -159t-52 -163.5t-49.5 -156.5t-46 -138.5q-29 -84 -71.5 -215.5t-94 -293.5 t-110.5 -346.5t-121.5 -375t-126.5 -379t-126 -358.5t-119.5 -312.5t-107.5 -242.5q-49 -97 -84 -198t-55.5 -195.5t-25.5 -178.5t6 -146.5t39.5 -99t75.5 -36.5q51 0 125.5 50.5t173.5 164.5q123 141 232.5 269.5t196.5 251.5t148.5 245.5t89.5 252.5t18.5 272t-64.5 304 q-40 120 -89.5 210.5t-100.5 151t-100.5 91t-89.5 30.5q-42 0 -70.5 -32.5t-36 -97.5t10 -164t66.5 -231q21 -55 56 -93.5t81 -62.5t102 -34.5t118 -10.5q80 0 167.5 15t176 39t175.5 55t165 64q185 75 366 172"
         horiz-adv-x="1470"
         unicode="╤"
         glyph-name="SF470000" />
      <glyph
         id="glyph2144"
         d="M877 844q-13 50 -47 72t-82 22q-51 0 -114 -21.5t-131.5 -59t-138.5 -87.5t-134.5 -107.5t-120 -119.5t-94 -122.5t-57.5 -117t-10 -103.5q8 -43 39 -62t79 -19q53 0 122 19.5t146.5 51.5t158.5 73t157 84q180 100 374 227M1073 697q-84 -177 -164 -381 q-34 -87 -70 -188.5t-71.5 -214t-68 -233.5t-58.5 -246q-29 -142 -73.5 -294t-98.5 -297t-113.5 -274.5t-119 -227t-116 -154.5t-103.5 -57q-51 0 -85 73q-39 83 -69 185.5t-35 219t24.5 245t110 265.5t221.5 280t359 288q164 108 292 196t226 158.5t169 124t120 92.5 q115 91 152 136"
         horiz-adv-x="1502"
         unicode="╥"
         glyph-name="SF480000" />
      <glyph
         id="glyph2146"
         d="M1033 819q-55 85 -120 123t-139 38q-78 0 -165 -39.5t-179.5 -110t-189 -167t-194.5 -211.5q-72 -84 -99.5 -148t-18.5 -108t51 -66.5t110 -22.5q69 0 160.5 23.5t198.5 72t227 123t244 175.5M1025 697q-52 -151 -101 -344q-42 -166 -88 -398t-80 -521 q-18 -157 -46 -305.5t-61.5 -279.5t-70.5 -240t-73.5 -188t-70.5 -122.5t-61 -43.5q-38 0 -57 86q-18 81 -18 187.5t21.5 228t65 253t111.5 264t161 260.5t213 242q182 172 320.5 289t235.5 191q112 85 195 137"
         horiz-adv-x="1621"
         unicode="╙"
         glyph-name="SF490000" />
      <glyph
         id="glyph2148"
         d="M153 876q70 107 132 196t114 169.5t93 157.5t69.5 160t44 177.5t16 210t-14.5 257.5t-47 319q-54 -112 -106 -264q-45 -130 -93.5 -317t-85.5 -430q-18 -121 -44 -246.5t-56 -248.5t-62 -239.5t-62 -220.5q-72 -243 -151 -472q133 231 274 426q60 83 127.5 166.5 t138.5 155.5t142.5 126.5t140.5 79.5q17 6 27 6q23 0 28 -23t-2.5 -62.5t-25 -92t-39.5 -111.5t-45 -121.5t-42 -121.5t-30.5 -111.5t-10.5 -92t18 -62.5t55 -23q11 0 23.5 1.5t27.5 6.5q88 26 154 54t111 52q53 28 91 55"
         horiz-adv-x="1063"
         unicode="╘"
         glyph-name="SF500000" />
      <glyph
         id="glyph2150"
         d="M262 1081q136 198 224 367t132 316t46.5 276.5t-32.5 247.5q-31 107 -58.5 157t-51.5 50q-29 0 -51.5 -72t-36.5 -207q-6 -61 -17.5 -159.5t-29 -222.5t-42 -268t-57.5 -295t-75.5 -303.5t-95 -294.5t-116.5 -267.5t-141 -221.5M183 731q61 32 108 32q55 0 86.5 -41.5 t48 -108t21.5 -150t7 -167.5q2 -98 43 -153.5t111 -55.5q38 0 82.5 17.5t94.5 55t105 95.5t113 139"
         horiz-adv-x="1003"
         unicode="╒"
         glyph-name="SF510000" />
      <glyph
         id="glyph2152"
         d="M222 870q-50 -75 -95 -155.5t-77 -157.5t-47.5 -145.5t-7 -120t46 -81.5t111.5 -30q88 0 233 49.5t362 163.5M480 1714q-21 -15 -30 -29t-7.5 -26t11.5 -21.5t26 -16.5q4 -2 10 -2q13 0 21 13t11 29.5t1 32t-9 20.5"
         horiz-adv-x="748"
         unicode="╓"
         glyph-name="SF520000" />
      <glyph
         id="glyph2154"
         d="M31 847q-16 -69 -27.5 -152.5t-11 -168t17 -164t56.5 -141.5t107.5 -99t170.5 -37q65 0 145 17t177.5 54t213 95.5t250.5 142.5M-31 1667q-21 -15 -30 -29t-7.5 -26t11.5 -21.5t26 -16.5q4 -2 10 -2q13 0 21 13t11 29.5t1 32t-9 20.5"
         horiz-adv-x="1130"
         unicode="╫"
         glyph-name="SF530000" />
      <glyph
         id="glyph2156"
         d="M112 682q-26 -53 -50.5 -107.5t-41.5 -105.5t-23 -95t5 -77t43 -52t90 -19q39 0 91.5 9.5t119.5 29.5t150.5 51.5t184.5 76.5M379 1827q-21 -15 -30 -29t-7.5 -26t11.5 -21.5t26 -16.5q4 -2 10 -2q13 0 21 13t11 29.5t1 32t-9 20.5"
         horiz-adv-x="681"
         unicode="╪"
         glyph-name="SF540000" />
      <glyph
         id="glyph2158"
         d="M94 631q-84 -204 -140.5 -372.5t-97 -313.5t-70 -273t-60 -251t-67 -246.5t-90.5 -260.5q-47 -118 -88 -219.5t-74.5 -176.5t-59 -117.5t-41.5 -42.5q-12 0 -18 26t-5.5 81.5t7.5 143.5t22 213q11 98 42.5 195.5t77.5 192.5t104.5 187.5t124.5 179.5t137.5 168.5 t142.5 155.5q251 259 560 492M206 1481q-21 -15 -30 -29t-7.5 -26t11.5 -21.5t26 -16.5q4 -2 10 -2q13 0 21 13t11 29.5t1 32t-9 20.5"
         horiz-adv-x="501"
         unicode="┘"
         glyph-name="SF040000" />
      <glyph
         id="glyph2160"
         d="M8 608q93 131 165 241.5t126.5 209.5t92.5 189.5t63 182.5t38 189t17 208q5 139 -5 260.5t-32 211.5t-54 142t-70 52q-40 0 -85 -64t-90 -208q-33 -105 -61 -235t-50 -274.5t-38 -299t-25.5 -307.5t-11.5 -300t4 -277t20 -238.5t36 -184.5q76 72 150 170q32 42 66 94 t68 113.5t66.5 132.5t60.5 151t61.5 162t69.5 158t73 142.5t72.5 115.5t67.5 77.5t57 28.5t42.5 -32t23.5 -104q7 -72 -1.5 -139t-27 -128.5t-44 -116.5t-53.5 -101q-66 -109 -153 -199M499 750q98 -111 210 -198q48 -37 103.5 -72.5t116.5 -63.5t126 -45t131 -17 q47 0 93 9t92 30"
         horiz-adv-x="1371"
         unicode="┌"
         glyph-name="SF010000" />
      <glyph
         id="glyph2162"
         d="M7 562q78 102 147 223.5t127 252t104.5 264.5t81 259.5t55.5 237t27.5 197.5t-1.5 141t-33 68q-6 2 -8 2q-21 0 -51.5 -44.5t-65.5 -122.5t-73.5 -183.5t-77 -228.5t-74.5 -257t-66.5 -269t-53.5 -264.5t-34.5 -243t-10.5 -205.5t19 -152q14 -48 37.5 -82t54.5 -55 t67.5 -30.5t77.5 -9.5q59 0 123.5 17t129.5 44.5t127.5 62.5t116.5 72t97.5 73t69.5 64"
         horiz-adv-x="920"
         unicode="█"
         glyph-name="block" />
      <glyph
         id="glyph2164"
         d="M28 368q160 191 295 383.5t236 373t163.5 341.5t77 289.5t-23.5 217t-138 124.5q-11 4 -26 4q-44 0 -93 -48t-98.5 -131.5t-99 -196.5t-94.5 -243t-85.5 -271.5t-71.5 -281.5q-26 -118 -44 -231.5t-23.5 -215t3 -186.5t35 -147t73 -96.5t116.5 -34.5q53 0 119.5 21 t148.5 66.5t180.5 116.5t215.5 171"
         horiz-adv-x="894"
         unicode="▄"
         glyph-name="dnblock" />
      <glyph
         id="glyph2166"
         d="M0 393q36 36 66.5 55.5t55.5 19.5q47 0 69 -75t14 -242q49 100 97 178q27 45 56.5 86t56.5 66.5t50 25.5q15 0 26 -13.5t18 -45t8 -81.5t-4 -124q32 67 69 119q16 23 34 44t38.5 38t42 27t43.5 10q29 0 58 -20.5t58 -69.5q19 -33 44.5 -56t56 -37t64 -20t69.5 -6 q72 0 144.5 19t131.5 42q69 26 133 60"
         horiz-adv-x="1499"
         unicode="▌"
         glyph-name="lfblock" />
      <glyph
         id="glyph2168"
         d="M0 393q58 60 115 108q24 20 50 39.5t51.5 34.5t49.5 24.5t44 9.5q31 0 49.5 -27t16.5 -94t-29.5 -179t-89.5 -283q111 155 210 277q42 52 85.5 101.5t83 88.5t73 62.5t54.5 23.5q14 0 22.5 -11.5t9 -37.5t-6.5 -67.5t-24 -100.5q-22 -76 -29.5 -129t-3 -86t19 -48 t37.5 -15q32 0 77 25.5t95.5 67t102.5 94t99 105.5t85 102t59 84q14 -94 51 -168q15 -31 37 -61.5t52 -54t68 -38t86 -14.5q71 0 164.5 37.5t214.5 129.5"
         horiz-adv-x="1978"
         unicode="▐"
         glyph-name="rtblock" />
      <glyph
         id="glyph2170"
         d="M0 393q34 29 69 58.5t67.5 53.5t60.5 39.5t49 15.5q22 0 33.5 -20t9 -66.5t-21 -124t-56.5 -192.5q117 102 224 183q46 34 94 67t93 58.5t84 41t67 15.5q29 0 44 -19.5t10 -65.5q-6 -57 3 -98t31.5 -68t56 -40t75.5 -13q41 0 88 11.5t98 34t104.5 55t107.5 74.5  "
         horiz-adv-x="1391"
         unicode="▀"
         glyph-name="upblock" />
      <glyph
         id="glyph2172"
         d="M0 393q64 83 123.5 155.5t110 126.5t90.5 85t66 31t36 -33.5t1 -108t-37.5 -194t-81.5 -292.5q63 108 122 193q25 36 51 70.5t51.5 61.5t48 43.5t39.5 16.5q21 0 31.5 -32t4.5 -108q-6 -75 4.5 -128.5t34 -88t57.5 -51t76 -16.5q47 0 100 19t107.5 54t108 84.5 t100.5 111.5"
         horiz-adv-x="1244"
         unicode="☺"
         glyph-name="smileface" />
      <glyph
         id="glyph2174"
         d="M0 393q41 39 85 73t85.5 59.5t78.5 40t64 14.5q29 0 44 -19t10 -61.5t-32.5 -111.5t-83.5 -168l394 462q-10 -146 17 -261q12 -49 32.5 -96t54 -84t81 -59.5t113.5 -22.5q46 0 101.5 12.5t121.5 40.5t143.5 72.5t167.5 108.5"
         horiz-adv-x="1477"
         unicode="☻"
         glyph-name="invsmileface" />
      <glyph
         id="glyph2176"
         d="M227 596q-5 42 9.5 75t40.5 56t60 35t68 12q42 0 77.5 -19t51.5 -60t5.5 -105t-61.5 -153q-56 -99 -132 -176t-156.5 -129.5t-156 -80t-130.5 -27.5q-35 0 -59 12t-32 36t2 61t43 87q61 94 135 166.5t152 122t155 75.5t143 26q48 0 88 -14.5t68 -44.5q26 -28 58.5 -49.5 t68 -38t72.5 -28t71 -19.5q81 -18 167 -23"
         horiz-adv-x="1035"
         unicode="♥"
         glyph-name="heart" />
      <glyph
         id="glyph2178"
         d="M343 705q20 -31 38.5 -72t29 -88.5t8 -100t-26 -108t-71 -112.5t-127.5 -112q-74 -52 -127.5 -75t-89.5 -23q-40 0 -57.5 26.5t-16 73.5t22 110.5t57.5 137.5q59 118 127.5 176t140.5 58q60 0 121 -39.5t119 -119.5q49 -67 103.5 -92t106.5 -25q43 0 80 11.5t66 25.5 q33 16 61 36"
         horiz-adv-x="908"
         unicode="♦"
         glyph-name="diamond" />
      <glyph
         id="glyph2180"
         d="M19 516q-70 -491 -137 -910q-19 -119 -38.5 -240t-39.5 -236t-39.5 -221.5t-38 -196t-35.5 -159.5t-31 -113q52 506 141 967q25 131 55.5 266.5t67 270t78 263t90 246t103 219t115.5 181.5q75 97 137.5 139t113.5 42q50 0 87.5 -35.5t61.5 -94.5t34 -136t5.5 -159.5 t-25 -165t-57 -153.5t-90 -124t-124.5 -77q-109 -37 -78 -37q21 0 112 19.5t257 62.5q38 10 77 26t77 36.5t74.5 42.5t68.5 44q76 51 148 110"
         horiz-adv-x="1188"
         unicode="♣"
         glyph-name="club" />
      <glyph
         id="glyph2182"
         d="M77 813q-5 -70 -27 -183.5t-54.5 -257.5t-73.5 -311t-83.5 -344t-84.5 -356t-78 -347t-62.5 -317.5t-38.5 -267.5M71 511q85 141 173.5 253.5t178.5 191t179.5 120.5t176.5 42q85 0 164.5 -42t154.5 -132q47 -57 52 -106.5t-20.5 -93.5t-77 -84t-117 -77t-140 -72 t-147.5 -70.5t-138.5 -71.5t-112 -74.5t-69.5 -81t-11 -90.5q8 -32 36 -46t72 -14q47 0 108 14.5t129 37.5t139 52.5t138 60.5q158 73 327 165"
         horiz-adv-x="1266"
         unicode="♠"
         glyph-name="spade" />
      <glyph
         id="glyph2184"
         d="M0 393q27 35 55 77t55 86t52.5 89t48.5 86q53 96 103 196q31 -66 85 -117q23 -22 53 -43.5t68 -38t84 -26.5t101 -10q44 0 92.5 7t103.5 23q-59 -172 -77 -307q-7 -58 -6 -113t16.5 -98.5t48 -70t88.5 -26.5q40 0 92.5 15.5t120 49.5t151 88.5t185.5 132.5"
         horiz-adv-x="1520"
         unicode="◘"
         glyph-name="invbullet" />
      <glyph
         id="glyph2186"
         d="M0 393q65 79 116 160q22 34 42.5 72t36.5 77t25 77.5t8 73.5q80 -17 131 -56q21 -17 38.5 -40.5t25.5 -55t3.5 -72t-27.5 -90.5q-19 -43 -37.5 -89.5t-31.5 -91t-20 -84.5t-3 -70.5t20 -48t48 -17.5q26 0 64.5 13.5t91 44t120.5 79t153 118.5"
         horiz-adv-x="804"
         unicode="○"
         glyph-name="circle" />
      <glyph
         id="glyph2188"
         d="M0 393l730 557q-45 -168 -103 -319q-25 -64 -55 -131.5t-65.5 -129.5t-75 -115.5t-83.5 -91.5q-32 -28 -59.5 -39.5t-50.5 -11.5q-40 0 -65 26.5t-34 58.5t-2 58.5t32 26.5q14 0 34.5 -11.5t47.5 -39.5q110 -113 284 -113q140 0 316.5 69.5t391.5 205.5"
         horiz-adv-x="1243"
         unicode="◙"
         glyph-name="invcircle" />
      <glyph
         id="glyph2190"
         d="M69 403q107 69 183.5 125t127 102.5t77 84.5t35 72t0.5 64.5t-27 61.5q86 -152 118 -281q14 -55 17 -110t-12.5 -103t-53.5 -85t-107 -55q-63 -16 -127 -16q-58 0 -110 11.5t-91.5 29.5t-65 38t-31.5 38t9.5 29.5t58.5 11.5q38 0 100 -11.5t152 -39.5 q136 -42 238.5 -58.5t180.5 -16.5q87 0 143 15.5t89 33.5q38 22 58 49"
         horiz-adv-x="1031"
         unicode="♂"
         glyph-name="male" />
      <glyph
         id="glyph2192"
         d="M0 393l419 502q27 -62 35 -139q3 -33 2.5 -72t-7.5 -84t-22 -95.5t-41 -104.5q-34 -71 -70.5 -130t-69.5 -102t-59 -66.5t-38 -23.5q-14 0 -8 30t40 96q36 71 78 99t90 28q41 0 85.5 -16t92.5 -39t100 -50t107 -50q92 -38 180 -38q116 0 213 65.5t173 189.5"
         horiz-adv-x="1300"
         unicode="♀"
         glyph-name="female" />
      <glyph
         id="glyph2194"
         d="M-942 1022q59 58 195 119.5t364 124t556 124t772 118.5t1011.5 107t1274.5 91M65 607q101 116 194 242.5t175 254.5t152 252t125.5 236t95 207.5t60.5 165t23 108.5t-19 39q-17 0 -51 -31t-87 -99q-75 -97 -155 -224.5t-157.5 -271.5t-149 -297.5t-128.5 -300.5 t-95.5 -281t-51.5 -240t4 -176.5t72 -90.5q26 -10 53 -14t54 -4q51 0 102.5 13.5t101 35.5t96 50t87.5 57q95 68 182 155"
         horiz-adv-x="748"
         unicode="♪"
         glyph-name="musicalnote" />
      <glyph
         id="glyph2196"
         d="M-880 1137q65 54 183 106.5t280 101.5t362 94t428.5 83.5t481.5 70t519.5 53.5t542.5 34t551 12t89.5 -1M11 761q57 110 97.5 230t67.5 241.5t41.5 240.5t19.5 226.5t1.5 199t-12.5 158t-22 104.5t-27 38q-13 0 -26 -37t-24 -118q-12 -85 -27.5 -191.5t-32 -226 t-32 -247.5t-28 -256.5t-19 -253t-5 -237t13.5 -209t37 -168t64.5 -114.5t97.5 -49q32 -3 61 -3q66 0 126 13t113.5 34.5t100 49t85.5 55.5q91 67 162 152"
         horiz-adv-x="844"
         unicode="♫"
         glyph-name="musicalnotedbl" />
      <glyph
         id="glyph2198"
         d="M-696 1282q168 138 394 246q129 61 297.5 117t375 90t448.5 32q182 -1 393.5 -7.5t434.5 -16.5t446.5 -22.5t429.5 -25.5q484 -29 978 -66M12 899q65 202 113 383.5t80 335.5t49 277.5t21 210t-4 133t-26 46.5q-21 0 -54.5 -67.5t-77.5 -212.5q-25 -82 -48.5 -187.5 t-43 -224.5t-34.5 -248.5t-23 -259.5t-7.5 -256t11.5 -240t34 -210t60.5 -166.5t90 -110t123.5 -39.5q47 0 101.5 18.5t117.5 58.5t135.5 102.5t154.5 150.5"
         horiz-adv-x="784"
         unicode="☼"
         glyph-name="sun" />
      <glyph
         id="glyph2200"
         d="M129 692q-70 -130 -108.5 -236t-46.5 -181t12 -115.5t65 -40.5q50 0 124 50q90 61 144.5 126t83.5 119q35 63 49 124q-34 -86 -39 -154q-3 -29 0.5 -56.5t16.5 -49.5t37 -35t63 -13q29 0 68 8.5t88.5 28t111 50.5t136.5 76"
         horiz-adv-x="934"
         unicode="►"
         glyph-name="triagrt" />
      <glyph
         id="glyph2202"
         d="M96 638q-71 -147 -99 -254.5t-17 -178t59.5 -105t130.5 -34.5t156 25t138.5 69t117.5 103.5t92 129t62.5 146t28.5 153.5q-32 -143 -26 -256q2 -48 13 -94t35 -82t63 -58t98 -22q40 0 89.5 11.5t110 37t133 66t157.5 98.5"
         horiz-adv-x="1438"
         unicode="◄"
         glyph-name="triaglf" />
      <glyph
         id="glyph2204"
         d="M75 768q-24 -90 -43 -180t-29.5 -173t-9.5 -154.5t16.5 -124.5t47.5 -83.5t84 -30.5t9.5 1q43 5 76.5 34.5t58 75t42 102.5t28.5 116q27 137 33 310q72 -60 136 -115q27 -23 56 -47t55 -46.5t49 -41.5t38 -33q39 -35 84 -48t90 -13q51 0 97 12t82 26q42 17 79 38  "
         horiz-adv-x="1164"
         unicode="↕"
         glyph-name="arrowupdn" />
      <glyph
         id="glyph2206"
         d="M133 1011q-25 -77 -50.5 -161.5t-45 -166t-30.5 -154.5t-6 -128.5t28 -88t71 -32.5q32 0 76 16q56 21 102.5 54.5t84.5 75t68 87.5t52 91q54 105 85 225q-39 -176 -47 -314q-3 -59 0 -115.5t16.5 -100.5t40 -71t69.5 -27q57 0 112.5 26.5t101 71.5t78.5 105t46 125.5 t2 133.5t-52 130q86 -121 187 -216q43 -41 94 -80t108 -69.5t118.5 -49t126.5 -18.5q39 0 79 8t82 25"
         horiz-adv-x="1730"
         unicode="‼"
         glyph-name="exclamdbl" />
      <glyph
         id="glyph2208"
         d="M167 901q-88 -224 -141 -407q-23 -78 -40 -154.5t-22.5 -139.5t4.5 -107t41 -57q17 -6 37 -6q38 0 87 18t104 47t112.5 67t112.5 77q128 91 266 208M910 858q-99 -184 -153 -330q-23 -62 -38.5 -122t-15.5 -108t19 -78.5t65 -33.5q48 0 110 22.5t130.5 63t139 96.5 t134 121.5t115.5 139.5t85 150t41.5 152.5t-15.5 147.5q63 -225 157 -402q40 -76 91 -148.5t113 -129t135.5 -91t158.5 -34.5q72 0 151 28t167 91"
         horiz-adv-x="2511"
         unicode="▬"
         glyph-name="filledrect" />
      <glyph
         id="glyph2210"
         d="M1656 1724q-546 -412 -1063 -834q-147 -120 -302 -250t-310.5 -264.5t-309 -273t-298 -275t-276.5 -270.5t-245 -260M1894 393q-236 -154 -418.5 -224.5t-309.5 -70.5q-106 0 -172.5 44t-92.5 124t-11.5 191t71.5 244q45 105 66.5 177.5t23.5 117.5t-14.5 64.5 t-47.5 19.5q-32 0 -77.5 -18t-101.5 -47.5t-120.5 -68.5t-134.5 -81"
         horiz-adv-x="1894"
         unicode="↨"
         glyph-name="arrowupdnbse" />
      <glyph
         id="glyph2212"
         d="M196 894q-89 -170 -137.5 -297.5t-60.5 -212.5t10 -127.5t73 -42.5q80 0 222 101q63 45 121 97t109 106t95.5 108t80.5 103q86 116 153 233q-5 -239 -11 -537q-4 -256 -8.5 -607.5t-8.5 -777.5q-2 -238 -27.5 -410.5t-65.5 -284.5t-91 -166t-105 -54q-42 0 -83.5 31.5 t-78.5 93t-67.5 151t-51.5 205.5q-31 176 -11 349.5t82 339t161.5 321t226.5 295t277.5 261.5t314.5 221"
         horiz-adv-x="1315"
         unicode="↑"
         glyph-name="arrowup" />
      <glyph
         id="glyph2214"
         d="M230 836q-85 -150 -147 -269.5t-94 -203t-30.5 -127.5t42.5 -44q37 0 107 37t180 115q178 127 292 236t180 189q77 95 117 173q-9 -358 -58 -679q-21 -137 -52.5 -280t-77 -275t-106 -245t-140.5 -191q-71 -69 -144 -123.5t-141.5 -91.5t-131 -56.5t-112.5 -19.5 q-62 0 -101.5 31.5t-45 97.5t28 168.5t116.5 244.5q70 121 155 199.5t179.5 129t195 81t203 55t204 51t196.5 69.5t181.5 110.5t158.5 174.5"
         horiz-adv-x="1385"
         unicode="↓"
         glyph-name="arrowdown" />
      <glyph
         id="glyph2216"
         d="M0 393q81 105 162 180.5t156 123.5t140.5 71t114.5 23q64 0 93.5 -36.5t9.5 -102.5q2 -1 6 -2q6 -3 18 -3q15 0 40.5 7t63.5 29t90 63t120 109q50 -286 83 -579q14 -125 26 -263.5t17.5 -281t4 -284.5t-14.5 -272q-13 -137 -54.5 -237t-98.5 -164.5t-123.5 -95.5 t-129.5 -31q-57 0 -106.5 24t-83 70.5t-46.5 114.5t4 155q24 123 81.5 235t145.5 220t205.5 214.5t261.5 219t314 234t363 259.5"
         horiz-adv-x="1863"
         unicode="→"
         glyph-name="arrowright" />
      <glyph
         id="glyph2218"
         d="M0 393q36 66 82.5 127t99 113t109 95t113 73t110.5 46.5t102 16.5q62 0 109 -30t71 -95.5t20 -170t-44 -253.5q118 188 223 337q45 63 91.5 123.5t89.5 107.5t79.5 76t60.5 29q23 0 33.5 -29.5t4 -97.5t-32.5 -178.5t-76 -271.5q83 213 167 380q36 71 75.5 139t80 121.5 t80 86t75.5 32.5q26 0 48.5 -19t42 -61t34.5 -109t25 -164q17 -168 58.5 -277t98 -172.5t123.5 -89t136 -25.5q76 0 147 22t127 48q65 31 123 70"
         horiz-adv-x="2686"
         unicode="←"
         glyph-name="arrowleft" />
      <glyph
         id="glyph2220"
         d="M0 393q114 132 239.5 242t250.5 190t242 124.5t213 44.5q57 0 104.5 -17t83 -53.5t57.5 -93t28 -134.5M1043 209q18 136 65 260t111.5 230t140.5 192t151 146.5t142.5 93.5t115.5 33q27 0 46.5 -11.5t29 -35t7.5 -60t-18 -86.5q-30 -97 -45 -199t-13.5 -198.5t19 -182 t52 -149.5t86 -101.5t120.5 -37.5q86 0 200.5 67.5t256.5 222.5"
         horiz-adv-x="2509"
         unicode="∟"
         glyph-name="orthogonal" />
      <glyph
         id="glyph2222"
         d="M-490 1020q65 53 143.5 92t163.5 67t174 46t177.5 28.5t172.5 14.5t159 4q74 0 135 -2.5t106 -6.5q52 -4 94 -9M553 1899q-53 -113 -114.5 -245.5t-123 -272t-119 -280t-101 -270t-70.5 -241.5t-27 -195t30 -130.5t99 -47.5q7 0 14.5 0.5t15.5 1.5q80 11 178 49.5 t205.5 100t220 143.5t220 179.5t206 208.5t179 230.5t138 245t82.5 252.5q34 170 47 261t-1 91t-57 -97.5t-121 -305t-193.5 -532.5t-274.5 -781M1118 624q54 59 90.5 84.5t61.5 25.5q27 0 41 -27.5t21 -73.5t10 -105.5t7.5 -123t13.5 -126.5t28.5 -116.5t52 -92 t84.5 -53.5q45 -13 96 -13q60 0 122 17t121.5 44.5t116 62.5t105.5 71q116 86 224 195"
         horiz-adv-x="2313"
         unicode="↔"
         glyph-name="arrowboth" />
      <glyph
         id="glyph2224"
         d="M518 2082q-113 -239 -205 -469.5t-159 -437t-106.5 -381t-47.5 -301t18.5 -197.5t90.5 -71q36 0 81 22q71 34 162.5 97.5t195 148t213 186.5t216.5 214t206 229.5t180.5 234t140.5 227t86 208.5q33 117 43 214t4 166.5t-25.5 108t-45.5 38.5q-18 0 -37.5 -18.5t-39 -58 t-38.5 -100.5t-35 -147q-20 -107 -46.5 -236.5t-57 -268t-62.5 -280.5t-62 -274q-71 -309 -148 -631q70 211 134 377q27 71 55.5 138.5t54.5 120.5t48.5 85.5t38.5 32.5q10 0 17 -16t9 -50.5t0 -90t-10 -134.5q-18 -172 -12.5 -289t29 -188t63.5 -101.5t91 -30.5 q45 0 97 19.5t108 52t115 75t118 87.5M-254 1184q159 152 306 255t292.5 165.5t294 89.5t310.5 27q46 0 92.5 -1.5t94.5 -5.5"
         horiz-adv-x="1996"
         unicode="▲"
         glyph-name="triagup" />
      <glyph
         id="glyph2226"
         d="M-610 1386q191 87 423 150.5t493 107.5t545 71.5t578.5 43t593.5 21.5t589 7M75 614q96 123 172.5 266.5t135 295t99 303.5t65 292t33.5 261.5t4.5 211t-21.5 141t-46 51.5q-25 0 -58.5 -45t-74.5 -145q-32 -80 -54.5 -142.5t-37.5 -114.5t-25 -97.5t-18 -91t-16 -95.5 t-19.5 -110t-28.5 -134.5t-42 -170.5q-19 -73 -39.5 -157.5t-39 -172.5t-33.5 -177t-23.5 -170t-9 -151.5t10 -122.5t33.5 -81.5t61 -29.5q49 0 125 54t185 178q114 129 204.5 232t161 184t122 141.5t88.5 104.5q86 103 119 149M1610 3105q-19 -224 -67 -454.5t-116 -459.5 t-152.5 -453.5t-176.5 -438.5t-188 -413t-188 -378q130 64 264 147q76 47 163 107t175 131.5t171 154.5q-22 -228 10 -406q14 -76 40.5 -149.5t72.5 -130.5t113.5 -92t161.5 -35q90 0 206 36.5t265 121.5"
         horiz-adv-x="2362"
         unicode="▼"
         glyph-name="triagdn" />
      <glyph
         id="glyph2228"
         d="M-739 1425q64 45 200 80q77 20 193.5 38.5t280.5 30t381 11.5q155 0 339.5 -7t402 -23.5t469.5 -43.5t543 -67M-44 537q21 201 35.5 400.5t22.5 389t11 364.5t1 326.5t-8 276.5t-15 214t-20.5 137.5t-24.5 48.5q-9 0 -19 -27t-20 -84.5t-20 -146.5t-20 -214 q-16 -202 -31.5 -397.5t-24 -377t-5 -346.5t27 -306.5t70.5 -256t126 -195.5t193.5 -124.5t273.5 -43.5q105 0 228 20t271 62"
         horiz-adv-x="1014"
         unicode="≡"
         glyph-name="equivalence" />
      <glyph
         id="glyph2230"
         d="M-260 772q104 162 235 302.5t279.5 256t310 206t327.5 152t331.5 94t321.5 32.5q190 0 358 -50q165 -49 256 -135t117.5 -194t-7 -232t-117.5 -248.5t-214.5 -244t-297.5 -218.5q-207 -123 -377 -185.5t-294 -62.5q-88 0 -148.5 33t-88.5 100t-20.5 168.5t54.5 238.5 q41 116 87 220t93.5 195t95.5 168t91 140q102 147 205 257"
         horiz-adv-x="2300"
         unicode="₧"
         glyph-name="peseta" />
      <glyph
         id="glyph2232"
         d="M911 2362q-28 -163 -91 -341t-144 -363t-170.5 -371.5t-170.5 -367.5t-144 -351t-91 -321"
         horiz-adv-x="767"
         unicode="℅"
         glyph-name="uni2105" />
      <glyph
         id="glyph2234"
         d="M1037 2179q119 -71 198 -176.5t118 -232.5t38.5 -270.5t-40 -292t-118.5 -296t-196 -282.5q-70 -81 -148.5 -136.5t-160.5 -90t-164 -49.5t-158 -15q-77 0 -145 13.5t-121 36.5t-88.5 53t-46.5 63t5 67.5t65 65.5q45 28 108 41.5t141 13.5q118 0 265 -28.5t310.5 -82 t336.5 -129.5t344 -170.5t332.5 -206t301.5 -234.5"
         horiz-adv-x="2108"
         unicode="№"
         glyph-name="uni2116" />
      <glyph
         id="glyph2236"
         d="M723 2091q38 3 76.5 4t76.5 1q119 0 231 -13t202.5 -39.5t152.5 -66.5t82.5 -93t-8 -120t-119 -147.5t-251 -174t-403.5 -201.5q448 -96 555 -248q30 -43 31 -94t-41.5 -110.5t-135 -128t-249 -146t-384 -164.5t-539.5 -183"
         horiz-adv-x="1758"
         unicode="⅔"
         glyph-name="twothirds" />
      <glyph
         id="glyph2238"
         d="M784 1726q-115 -91 -205 -171t-160 -149t-120.5 -127t-85.5 -105q-84 -109 -113 -188q35 -4 83 -8q41 -3 98.5 -5.5t132.5 -2.5q120 0 276.5 10t341.5 38.5t393.5 80t431.5 134.5M1563 2418q-182 -450 -392 -876q-60 -121 -127 -248.5t-139.5 -255.5t-150 -254 t-158.5 -244.5t-166 -227t-171 -200.5"
         horiz-adv-x="1675"
         unicode="⅛"
         glyph-name="oneeighth" />
      <glyph
         id="glyph2240"
         d="M2676 2076q-389 -35 -754 -87q-155 -22 -320.5 -49.5t-324 -61.5t-302 -74t-255.5 -86q-33 -80 -72 -159q-17 -33 -36.5 -69.5t-41.5 -73t-46 -71.5t-50 -65q220 -72 390 -165q72 -39 140.5 -87t120 -103.5t81 -117.5t23.5 -131q-6 -67 -42.5 -122t-96 -98t-136.5 -74.5 t-164 -52t-178.5 -30.5t-179.5 -10q-96 0 -181 11t-151 34"
         horiz-adv-x="2308"
         unicode="⅜"
         glyph-name="threeeighths" />
      <glyph
         id="glyph2242"
         d="M881 2076q-128 -107 -241 -234.5t-205 -263t-162 -272.5t-112.5 -263t-55.5 -235t8 -189t78.5 -124.5t156.5 -41.5q182 6 309.5 36.5t205 72.5t106.5 89t13 87t-74.5 66.5t-156.5 26.5q-101 0 -242.5 -35.5t-319.5 -119.5"
         horiz-adv-x="1127"
         unicode="⅝"
         glyph-name="fiveeighths" />
      <glyph
         id="glyph2244"
         d="M141 1535q86 163 211 291q53 55 120 107t147.5 93t175 66t202.5 25q84 0 177 -18q33 -91 -4 -231q-16 -60 -48.5 -137t-88.5 -171.5t-140.5 -207.5t-203.5 -246t-207.5 -248t-152.5 -213t-105.5 -179t-66.5 -146q-60 -152 -56 -256"
         horiz-adv-x="1067"
         unicode="⅞"
         glyph-name="seveneighths" />
      <glyph
         id="glyph2246"
         d="M940 1972q-51 56 -107.5 81.5t-118.5 25.5q-74 0 -150.5 -34t-150.5 -93.5t-142.5 -140t-125.5 -173.5q-35 -57 -42.5 -97.5t7 -66.5t48 -38t80.5 -12q62 0 141.5 20t163.5 56.5t166.5 87.5t150.5 114M200 -8l785 1949"
         horiz-adv-x="1042"
         unicode="⁄"
         glyph-name="fraction" />
      <glyph
         id="glyph2248"
         d="M940 1972q-51 56 -107.5 81.5t-118.5 25.5q-74 0 -150.5 -34t-150.5 -93.5t-142.5 -140t-125.5 -173.5q-35 -57 -42.5 -97.5t7 -66.5t48 -38t80.5 -12q62 0 141.5 20t163.5 56.5t166.5 87.5t150.5 114M200 -8l785 1949"
         horiz-adv-x="1042"
         unicode="∕"
         glyph-name="fraction" />
      <glyph
         id="glyph2250"
         d="M-305 746q125 67 293 121q96 30 220.5 58t276.5 45t330 17q138 0 289 -13t319 -43M-400 287q42 44 124.5 88t207.5 78.5t293.5 56t382.5 21.5q221 0 489 -27t590 -91"
         horiz-adv-x="33"
         unicode="‴"
         glyph-name="uni2034" />
      <glyph
         id="glyph2252"
         d="M95 1565q358 -308 688 -623q141 -134 289 -283t288 -301.5t263.5 -303.5t215.5 -290M1960 1644q-497 -482 -917 -883q-119 -114 -239.5 -228.5t-235 -222t-219 -204t-192 -175t-153.5 -135.5t-104 -85"
         horiz-adv-x="16"
         unicode="₢"
         glyph-name="uni20A2" />
      <glyph
         id="glyph2254"
         d="M-500 482q723 67 1406 120q194 15 398.5 29.5t409.5 27.5t406.5 24.5t391 20t362 13t319.5 4.5q162 0 285 -6"
         horiz-adv-x="8"
         unicode="₥"
         glyph-name="uni20A5" />
      <glyph
         id="glyph2256"
         d="M13 1025q72 30 177 46t245 16q180 0 418.5 -29t538.5 -92t662.5 -162.5t790.5 -240.5t922.5 -325.5t1058.5 -418.5M4301 519q-257 -7 -553.5 -13.5t-617 -17t-657 -26.5t-674 -42.5t-667.5 -65.5t-638 -95t-585 -131t-509 -173"
         horiz-adv-x="25"
         unicode="₠"
         glyph-name="uni20A0" />
      <glyph
         id="glyph2258"
         d="M150 1307q21 3 51 3q118 0 352 -42t550.5 -114t698.5 -168t797 -205t846.5 -224.5t846 -226t795.5 -210t695.5 -176.5t546 -125.5t346.5 -57.5M5946 1113q-47 40 -152 57t-257 17q-126 0 -279.5 -10.5t-327 -29t-363 -43.5t-387 -53.5t-400.5 -60t-402 -62.5 q-210 -33 -447 -74.5t-488 -90t-509 -103.5t-509 -115t-488.5 -123.5t-447.5 -129.5t-385.5 -133.5t-303.5 -135.5"
         horiz-adv-x="25"
         unicode="₡"
         glyph-name="colonmonetary" />
      <glyph
         id="glyph2260"
         d="M39 365q200 44 349.5 96.5t250 106t151 103.5t54 88.5t-41 62t-135.5 23.5q-32 0 -69.5 -3t-81.5 -10q-96 -15 -180.5 -57t-151 -101t-112 -128.5t-62.5 -140t-3 -136.5t66 -117t145.5 -82t235.5 -31q93 0 208 15q190 26 396 53.5t413.5 55.5t410 55.5t384.5 52.5 q428 58 846 115"
         horiz-adv-x="3105"
         unicode="∑"
         glyph-name="summation" />
      <glyph
         id="glyph2262"
         d="M80 360q118 31 201 81.5t133.5 108.5t70 117t11 107t-43 78t-92.5 30q-39 0 -86 -16q-59 -20 -109.5 -59.5t-88.5 -91t-60.5 -110.5t-25.5 -117.5t16 -112.5t65 -95.5t120.5 -66.5t182.5 -25q26 0 54.5 2t59.5 5q133 15 297.5 31t343 33t362.5 33t355 31q403 35 826 70  "
         horiz-adv-x="2672"
         unicode="≤"
         glyph-name="lessequal" />
      <glyph
         id="glyph2264"
         d="M1 393q55 99 107 176t98.5 130.5t86 81.5t69.5 28q35 0 55 -40.5t20 -127.5q0 -117 -18 -199.5t-40 -136.5q-26 -62 -58 -102q42 103 86 184q19 35 40.5 68t43.5 58.5t44.5 41.5t43.5 16q17 0 33 -11.5t30.5 -38t26.5 -68.5t21 -104q11 -68 28.5 -115t40.5 -75.5t51 -41 t58 -12.5q33 0 67.5 12.5t69 32.5t67.5 46t63 53q70 63 137 144"
         horiz-adv-x="1273"
         unicode="℗"
         glyph-name="uni2117" />
      <glyph
         id="glyph2266"
         d="M0 -67q179 33 368.5 132.5t384 277t389.5 439.5t385 619q16 -342 -17 -615q-9 -78 -23.5 -154.5t-35.5 -147t-49.5 -131.5t-66 -107t-84 -75t-104.5 -34q-60 -6 -109 -6q-100 0 -156.5 18t-76 39t-5 39t54.5 18q29 0 68.5 -11t88.5 -40q38 -21 83.5 -30.5t96.5 -9.5 q78 0 164 18t169.5 44.5t159.5 57.5q132 52 260 119"
         horiz-adv-x="1944"
         unicode="Ω"
         glyph-name="Omega" />
      <glyph
         id="glyph2268"
         d="M0 393q55 69 118.5 140.5t128 129.5t126.5 94.5t115 36.5q31 0 57.5 -14t47.5 -46q31 -47 61 -111.5t50.5 -133.5t28.5 -136t-4.5 -120t-49 -86t-104.5 -33q-55 0 -112.5 6t-108.5 14.5t-91 19t-61 19t-18 14.5t38 6q26 0 70.5 -4t111.5 -12q33 -5 68 -6.5t72 -1.5 q87 0 180.5 9.5t187.5 25.5t185.5 36t173.5 41q192 49 380 112"
         horiz-adv-x="1651"
         unicode="℮"
         glyph-name="estimated" />
      <glyph
         id="glyph2270"
         d="M566 667q-9 16 -39 16q-32 0 -82 -16t-107.5 -42.5t-116 -60.5t-108 -69.5t-85 -69.5t-45 -60.5t11 -42.5t82.5 -16q15 0 32 1t37 3q90 10 159 15.5t121 5.5q60 0 99.5 -8.5t63.5 -28t35 -51.5t13 -79.5t-3 -111t-13 -146.5q-7 -80 -17 -182t-25.5 -216t-38.5 -235.5 t-56.5 -242t-80 -235t-109 -213.5t-142.5 -178.5t-181 -129.5q-50 -25 -92.5 -36.5t-78.5 -11.5q-65 0 -109 34.5t-67.5 94.5t-26.5 142t14 177.5t53.5 199.5t93 208.5t131.5 205.5t169 190q107 101 263 192t346.5 171.5t409 150t451.5 128t472.5 105t472.5 81t452.5 56.5 t411.5 31"
         horiz-adv-x="3337"
         unicode="⅍"
         glyph-name="uni214D" />
      <glyph
         id="glyph2272"
         d="M115 469q33 60 52 101t27 67t6.5 37.5t-10.5 11.5q-15 0 -44 -27.5t-59.5 -69t-55 -89.5t-30 -89.5t14.5 -69t80 -27.5q11 0 23.5 1t26.5 3q83 14 146 25.5t108.5 21t76.5 18t50 14.5q45 15 47 25q28 -286 29 -563q0 -118 -5.5 -246t-20 -254.5t-40.5 -246t-66 -220.5 q-36 -90 -83 -156t-100 -108.5t-109 -63t-109 -20.5q-66 0 -123 29.5t-94.5 86t-50 137t10.5 182.5q21 92 66 196.5t126 214t204.5 219.5t302 213.5t417 197t550.5 168.5t702.5 128t871.5 77"
         horiz-adv-x="3053"
         unicode="ⅎ"
         glyph-name="uni214E" />
      <glyph
         id="glyph2274"
         d="M-1460 1217q77 64 222 117t339.5 97t429.5 79t493.5 62.5t531 48t541 35t525 24t483 15.5t413.5 8t317 2M-4 376q107 306 178.5 586t110.5 522.5t48 440t-8.5 338t-59.5 217t-105 76.5q-3 0 -5.5 -0.5t-5.5 -0.5q-39 -4 -78 -78.5t-73 -199t-60.5 -289.5t-41 -350.5 t-15 -381t18.5 -381t59 -351t106.5 -291t160.5 -201t222 -81.5q23 -1 46.5 -1.5t46.5 -0.5q155 0 311.5 19t307.5 50.5t292 71.5t265 82q291 97 557 222"
         horiz-adv-x="2279"
         unicode="ↄ"
         glyph-name="uni2184" />
      <glyph
         id="glyph2276"
         d="M228 649q-143 -137 -218.5 -242t-93.5 -175.5t17.5 -106.5t115.5 -36q65 0 161 26q68 19 132.5 50t119 69t96 81t64 85t21.5 81.5t-31 71t-92.5 52t-164.5 25.5q25 -6 65 -11q34 -4 88 -7.5t132 -3.5q89 0 211.5 6.5t283 23t362.5 45.5t449 74"
         horiz-adv-x="1945"
         unicode="∂"
         glyph-name="partialdiff" />
      <glyph
         id="glyph2278"
         d="M501 632q-13 10 -39 10q-39 0 -99.5 -22t-129 -59.5t-138 -87.5t-127.5 -106t-97.5 -114.5t-47.5 -113.5t22.5 -103t112.5 -82q41 -17 90.5 -25t107.5 -8q113 0 252 29t293.5 82.5t319 128.5t328 166.5t319.5 198t294 223t252.5 240t194.5 249.5q95 151 156 306.5 t93.5 300t38.5 272t-9.5 222t-49.5 149t-82 54.5q-37 0 -81 -37t-93 -118q-31 -52 -70.5 -130t-83 -175t-90.5 -209t-94.5 -233.5t-93.5 -248t-88 -252t-78.5 -246.5t-64.5 -230q-31 -121 -49 -222.5t-20 -174.5t14.5 -113.5t54.5 -40.5q47 0 128.5 66.5t205.5 214.5"
         horiz-adv-x="2054"
         unicode="∩"
         glyph-name="intersection" />
      <glyph
         id="glyph2280"
         d="M744 510q-45 21 -96.5 30.5t-108.5 9.5q-91 0 -188 -22t-189 -58t-173 -83.5t-140 -98.5t-90 -102t-22 -94.5t63.5 -76.5t165.5 -48q74 -9 150 -9q127 0 263.5 23t274 63.5t273 96t262 120t240.5 135t207.5 141.5t164 140.5t109.5 130.5t72 157.5t57.5 213t39 245 t17.5 253t-8 238t-37 199.5t-69.5 137t-106.5 51q-46 0 -100 -29q-47 -25 -86.5 -85.5t-71.5 -147t-57.5 -194.5t-45.5 -229t-35 -250.5t-26 -258.5q-10 -128 -14 -251.5t0.5 -234t18.5 -204t39.5 -161.5t63.5 -106t91 -38q65 0 154.5 66t206.5 214"
         horiz-adv-x="2013"
         unicode="∨"
         glyph-name="logicalor" />
    </font>
</defs>
</svg>
